Fedorovsk-Regular.ufo
<glyph name="uni0021" format="2">
  <advance width="256"/>
  <unicode hex="0021"/>
  <outline>
    <contour>
      <point x="53" y="73" type="curve"/>
      <point x="53" y="115"/>
      <point x="84" y="144"/>
      <point x="127" y="144" type="curve" smooth="yes"/>
      <point x="171" y="144"/>
      <point x="198" y="119"/>
      <point x="198" y="80" type="curve" smooth="yes"/>
      <point x="198" y="38"/>
      <point x="167" y="0"/>
      <point x="122" y="0" type="curve" smooth="yes"/>
      <point x="121" y="0"/>
      <point x="119" y="0"/>
      <point x="118" y="0" type="curve" smooth="yes"/>
      <point x="84" y="3"/>
      <point x="61" y="25"/>
      <point x="54" y="54" type="curve" smooth="yes"/>
      <point x="53" y="62"/>
      <point x="52" y="68"/>
    </contour>
    <contour>
      <point x="212" y="266" type="curve" smooth="yes"/>
      <point x="218" y="266"/>
      <point x="226" y="262"/>
      <point x="226" y="255" type="curve" smooth="yes"/>
      <point x="226" y="233"/>
      <point x="153" y="191"/>
      <point x="138" y="183" type="curve" smooth="yes"/>
      <point x="127" y="178"/>
      <point x="120" y="175"/>
      <point x="115" y="175" type="curve" smooth="yes"/>
      <point x="114" y="175" type="line" smooth="yes"/>
      <point x="86" y="175"/>
      <point x="82" y="202"/>
      <point x="82" y="232" type="curve" smooth="yes"/>
      <point x="82" y="243"/>
      <point x="82" y="254"/>
      <point x="82" y="264" type="curve" smooth="yes"/>
      <point x="84" y="353"/>
      <point x="95" y="448"/>
      <point x="95" y="532" type="curve" smooth="yes"/>
      <point x="95" y="546"/>
      <point x="84" y="554"/>
      <point x="77" y="562" type="curve" smooth="yes"/>
      <point x="73" y="567"/>
      <point x="68" y="570"/>
      <point x="62" y="572" type="curve" smooth="yes"/>
      <point x="50" y="574"/>
      <point x="43" y="585"/>
      <point x="43" y="597" type="curve" smooth="yes"/>
      <point x="43" y="610"/>
      <point x="46" y="613"/>
      <point x="60" y="618" type="curve" smooth="yes"/>
      <point x="108" y="634"/>
      <point x="175" y="635"/>
      <point x="222" y="652" type="curve" smooth="yes"/>
      <point x="225" y="653"/>
      <point x="229" y="654"/>
      <point x="231" y="654" type="curve" smooth="yes"/>
      <point x="245" y="654"/>
      <point x="252" y="642"/>
      <point x="256" y="630" type="curve" smooth="yes"/>
      <point x="257" y="628"/>
      <point x="258" y="626"/>
      <point x="258" y="624" type="curve" smooth="yes"/>
      <point x="258" y="620"/>
      <point x="255" y="616"/>
      <point x="253" y="612" type="curve"/>
      <point x="250" y="609"/>
      <point x="243" y="604"/>
      <point x="232" y="599" type="curve" smooth="yes"/>
      <point x="221" y="594"/>
      <point x="211" y="587"/>
      <point x="204" y="580" type="curve" smooth="yes"/>
      <point x="193" y="567"/>
      <point x="188" y="554"/>
      <point x="184" y="538" type="curve" smooth="yes"/>
      <point x="167" y="455"/>
      <point x="152" y="355"/>
      <point x="149" y="258" type="curve"/>
      <point x="146" y="249"/>
      <point x="155" y="236"/>
      <point x="166" y="240" type="curve" smooth="yes"/>
      <point x="178" y="245"/>
      <point x="195" y="266"/>
    </contour>
  </outline>
</glyph>
<glyph name="uni0022" format="2">
  <advance width="404"/>
  <unicode hex="0022"/>
  <outline>
    <contour>
      <point x="132" y="533" type="curve" smooth="yes"/>
      <point x="132" y="559"/>
      <point x="125" y="591"/>
      <point x="88" y="591" type="curve" smooth="yes"/>
      <point x="59" y="591"/>
      <point x="35" y="571"/>
      <point x="22" y="554" type="curve" smooth="yes"/>
      <point x="18" y="549"/>
      <point x="12" y="550"/>
      <point x="12" y="555" type="curve" smooth="yes"/>
      <point x="12" y="556"/>
      <point x="13" y="558"/>
      <point x="14" y="560" type="curve"/>
      <point x="32" y="604"/>
      <point x="68" y="649"/>
      <point x="113" y="665" type="curve" smooth="yes"/>
      <point x="119" y="667"/>
      <point x="126" y="668"/>
      <point x="132" y="668" type="curve" smooth="yes"/>
      <point x="172" y="668"/>
      <point x="188" y="617"/>
      <point x="188" y="576" type="curve" smooth="yes"/>
      <point x="188" y="486"/>
      <point x="129" y="422"/>
      <point x="72" y="388" type="curve" smooth="yes"/>
      <point x="70" y="387"/>
      <point x="69" y="387"/>
      <point x="67" y="387" type="curve" smooth="yes"/>
      <point x="63" y="387"/>
      <point x="64" y="392"/>
      <point x="68" y="398" type="curve" smooth="yes"/>
      <point x="85" y="420"/>
      <point x="100" y="443"/>
      <point x="113" y="466" type="curve" smooth="yes"/>
      <point x="126" y="489"/>
      <point x="132" y="512"/>
    </contour>
    <contour>
      <point x="338" y="533" type="curve" smooth="yes"/>
      <point x="338" y="559"/>
      <point x="331" y="591"/>
      <point x="294" y="591" type="curve" smooth="yes"/>
      <point x="265" y="591"/>
      <point x="241" y="571"/>
      <point x="228" y="554" type="curve" smooth="yes"/>
      <point x="224" y="549"/>
      <point x="218" y="550"/>
      <point x="218" y="555" type="curve" smooth="yes"/>
      <point x="218" y="556"/>
      <point x="219" y="558"/>
      <point x="220" y="560" type="curve"/>
      <point x="238" y="604"/>
      <point x="274" y="649"/>
      <point x="319" y="665" type="curve" smooth="yes"/>
      <point x="325" y="667"/>
      <point x="332" y="668"/>
      <point x="338" y="668" type="curve" smooth="yes"/>
      <point x="378" y="668"/>
      <point x="394" y="617"/>
      <point x="394" y="576" type="curve" smooth="yes"/>
      <point x="394" y="486"/>
      <point x="335" y="422"/>
      <point x="278" y="388" type="curve" smooth="yes"/>
      <point x="276" y="387"/>
      <point x="275" y="387"/>
      <point x="273" y="387" type="curve" smooth="yes"/>
      <point x="269" y="387"/>
      <point x="270" y="392"/>
      <point x="274" y="398" type="curve" smooth="yes"/>
      <point x="291" y="420"/>
      <point x="306" y="443"/>
      <point x="319" y="466" type="curve" smooth="yes"/>
      <point x="332" y="489"/>
      <point x="338" y="512"/>
    </contour>
  </outline>
</glyph>
<glyph name="uni0023" format="2">
  <advance width="521"/>
  <unicode hex="0023"/>
  <outline>
    <contour>
      <point x="471" y="272" type="line"/>
      <point x="471" y="217" type="line"/>
      <point x="362" y="217" type="line"/>
      <point x="331" y="1" type="line"/>
      <point x="273" y="1" type="line"/>
      <point x="304" y="217" type="line"/>
      <point x="170" y="217" type="line"/>
      <point x="137" y="1" type="line"/>
      <point x="79" y="1" type="line"/>
      <point x="112" y="217" type="line"/>
      <point x="5" y="217" type="line"/>
      <point x="5" y="272" type="line"/>
      <point x="121" y="272" type="line"/>
      <point x="142" y="406" type="line"/>
      <point x="32" y="406" type="line"/>
      <point x="32" y="461" type="line"/>
      <point x="150" y="461" type="line"/>
      <point x="181" y="663" type="line"/>
      <point x="239" y="663" type="line"/>
      <point x="208" y="461" type="line"/>
      <point x="341" y="461" type="line"/>
      <point x="371" y="663" type="line"/>
      <point x="429" y="663" type="line"/>
      <point x="399" y="461" type="line"/>
      <point x="496" y="461" type="line"/>
      <point x="496" y="406" type="line"/>
      <point x="391" y="406" type="line"/>
      <point x="371" y="272" type="line"/>
    </contour>
    <contour>
      <point x="333" y="406" type="line"/>
      <point x="200" y="406" type="line"/>
      <point x="179" y="272" type="line"/>
      <point x="313" y="272" type="line"/>
    </contour>
  </outline>
</glyph>
<glyph name="uni0024" format="2">
  <advance width="500"/>
  <unicode hex="0024"/>
  <outline>
    <contour>
      <point x="230" y="1" type="line"/>
      <point x="140" y="1"/>
      <point x="104" y="15"/>
      <point x="44" y="52" type="curve"/>
      <point x="44" y="182" type="line"/>
      <point x="59" y="182" type="line"/>
      <point x="80" y="88"/>
      <point x="124" y="29"/>
      <point x="230" y="29" type="curve"/>
      <point x="230" y="311" type="line"/>
      <point x="164" y="348"/>
      <point x="118" y="381"/>
      <point x="92" y="409" type="curve" smooth="yes"/>
      <point x="65" y="439"/>
      <point x="52" y="473"/>
      <point x="52" y="513" type="curve" smooth="yes"/>
      <point x="52" y="613"/>
      <point x="131" y="654"/>
      <point x="230" y="665" type="curve"/>
      <point x="230" y="728" type="line"/>
      <point x="264" y="728" type="line"/>
      <point x="264" y="665" type="line"/>
      <point x="339" y="656"/>
      <point x="393" y="639"/>
      <point x="425" y="612" type="curve"/>
      <point x="425" y="501" type="line"/>
      <point x="410" y="501" type="line"/>
      <point x="393" y="584"/>
      <point x="351" y="627"/>
      <point x="264" y="638" type="curve"/>
      <point x="264" y="392" type="line"/>
      <point x="297" y="372"/>
      <point x="341" y="348"/>
      <point x="372" y="327" type="curve" smooth="yes"/>
      <point x="402" y="308"/>
      <point x="402" y="304"/>
      <point x="424" y="279" type="curve" smooth="yes"/>
      <point x="442" y="258"/>
      <point x="446" y="244"/>
      <point x="452" y="214" type="curve" smooth="yes"/>
      <point x="456" y="201"/>
      <point x="457" y="186"/>
      <point x="457" y="171" type="curve" smooth="yes"/>
      <point x="457" y="121"/>
      <point x="443" y="83"/>
      <point x="410" y="57" type="curve" smooth="yes"/>
      <point x="378" y="30"/>
      <point x="328" y="12"/>
      <point x="264" y="1" type="curve"/>
      <point x="264" y="-86" type="line"/>
      <point x="230" y="-86" type="line"/>
    </contour>
    <contour>
      <point x="230" y="408" type="curve"/>
      <point x="230" y="638" type="line"/>
      <point x="161" y="624"/>
      <point x="126" y="590"/>
      <point x="126" y="535" type="curve" smooth="yes"/>
      <point x="126" y="512"/>
      <point x="133" y="492"/>
      <point x="146" y="475" type="curve" smooth="yes"/>
      <point x="160" y="458"/>
      <point x="189" y="436"/>
    </contour>
    <contour>
      <point x="264" y="294" type="curve"/>
      <point x="264" y="29" type="line"/>
      <point x="340" y="44"/>
      <point x="378" y="83"/>
      <point x="378" y="147" type="curve" smooth="yes"/>
      <point x="378" y="178"/>
      <point x="371" y="203"/>
      <point x="356" y="221" type="curve" smooth="yes"/>
      <point x="341" y="241"/>
      <point x="311" y="265"/>
    </contour>
  </outline>
</glyph>
<glyph name="uni0025" format="2">
  <advance width="815"/>
  <unicode hex="0025"/>
  <outline>
    <contour>
      <point x="569" y="1" type="curve" smooth="yes"/>
      <point x="495" y="1"/>
      <point x="449" y="55"/>
      <point x="449" y="130" type="curve" smooth="yes"/>
      <point x="449" y="193"/>
      <point x="472" y="249"/>
      <point x="516" y="298" type="curve" smooth="yes"/>
      <point x="562" y="347"/>
      <point x="612" y="372"/>
      <point x="669" y="372" type="curve" smooth="yes"/>
      <point x="735" y="372"/>
      <point x="772" y="332"/>
      <point x="772" y="265" type="curve" smooth="yes"/>
      <point x="772" y="178"/>
      <point x="732" y="99"/>
      <point x="686" y="52" type="curve" smooth="yes"/>
      <point x="652" y="18"/>
      <point x="613" y="1"/>
    </contour>
    <contour>
      <point x="525" y="95" type="curve" smooth="yes"/>
      <point x="525" y="58"/>
      <point x="550" y="31"/>
      <point x="586" y="31" type="curve" smooth="yes"/>
      <point x="654" y="31"/>
      <point x="704" y="105"/>
      <point x="726" y="159" type="curve" smooth="yes"/>
      <point x="739" y="195"/>
      <point x="746" y="228"/>
      <point x="746" y="260" type="curve" smooth="yes"/>
      <point x="746" y="301"/>
      <point x="716" y="340"/>
      <point x="676" y="340" type="curve" smooth="yes"/>
      <point x="607" y="340"/>
      <point x="557" y="239"/>
      <point x="540" y="181" type="curve" smooth="yes"/>
      <point x="530" y="145"/>
      <point x="525" y="116"/>
    </contour>
    <contour>
      <point x="179" y="290" type="curve" smooth="yes"/>
      <point x="113" y="290"/>
      <point x="61" y="350"/>
      <point x="61" y="417" type="curve" smooth="yes"/>
      <point x="61" y="480"/>
      <point x="84" y="537"/>
      <point x="128" y="587" type="curve" smooth="yes"/>
      <point x="174" y="638"/>
      <point x="225" y="663"/>
      <point x="282" y="663" type="curve" smooth="yes"/>
      <point x="303" y="663"/>
      <point x="319" y="659"/>
      <point x="332" y="649" type="curve" smooth="yes"/>
      <point x="361" y="629"/>
      <point x="387" y="609"/>
      <point x="439" y="609" type="curve" smooth="yes"/>
      <point x="470" y="609"/>
      <point x="498" y="614"/>
      <point x="520" y="624" type="curve" smooth="yes"/>
      <point x="544" y="634"/>
      <point x="568" y="652"/>
      <point x="595" y="677" type="curve"/>
      <point x="634" y="677" type="line"/>
      <point x="249" y="-12" type="line"/>
      <point x="201" y="-12" type="line"/>
      <point x="552" y="614" type="line"/>
      <point x="517" y="594"/>
      <point x="481" y="584"/>
      <point x="442" y="584" type="curve" smooth="yes"/>
      <point x="416" y="584"/>
      <point x="394" y="587"/>
      <point x="377" y="594" type="curve"/>
      <point x="382" y="577"/>
      <point x="384" y="563"/>
      <point x="384" y="550" type="curve" smooth="yes"/>
      <point x="384" y="488"/>
      <point x="364" y="429"/>
      <point x="324" y="373" type="curve" smooth="yes"/>
      <point x="285" y="318"/>
      <point x="236" y="290"/>
    </contour>
    <contour>
      <point x="137" y="385" type="curve" smooth="yes"/>
      <point x="137" y="350"/>
      <point x="161" y="324"/>
      <point x="196" y="324" type="curve" smooth="yes"/>
      <point x="237" y="324"/>
      <point x="274" y="348"/>
      <point x="308" y="395" type="curve" smooth="yes"/>
      <point x="342" y="443"/>
      <point x="359" y="495"/>
      <point x="359" y="552" type="curve" smooth="yes"/>
      <point x="359" y="565"/>
      <point x="356" y="581"/>
      <point x="350" y="601" type="curve"/>
      <point x="331" y="606"/>
      <point x="309" y="614"/>
      <point x="298" y="623" type="curve" smooth="yes"/>
      <point x="294" y="627"/>
      <point x="289" y="633"/>
      <point x="282" y="633" type="curve" smooth="yes"/>
      <point x="250" y="633"/>
      <point x="218" y="604"/>
      <point x="186" y="545" type="curve" smooth="yes"/>
      <point x="153" y="487"/>
      <point x="137" y="434"/>
    </contour>
  </outline>
</glyph>
<glyph name="uni0026" format="2">
  <advance width="774"/>
  <unicode hex="0026"/>
  <outline>
    <contour>
      <point x="116" y="0" type="curve" smooth="yes"/>
      <point x="68" y="0"/>
      <point x="21" y="28"/>
      <point x="21" y="73" type="curve" smooth="yes"/>
      <point x="21" y="88"/>
      <point x="22" y="105"/>
      <point x="28" y="122" type="curve"/>
      <point x="61" y="248"/>
      <point x="133" y="323"/>
      <point x="238" y="376" type="curve"/>
      <point x="238" y="392" type="line"/>
      <point x="235" y="395"/>
      <point x="232" y="396"/>
      <point x="229" y="399" type="curve" smooth="yes"/>
      <point x="216" y="409"/>
      <point x="204" y="418"/>
      <point x="194" y="426" type="curve" smooth="yes"/>
      <point x="165" y="449"/>
      <point x="136" y="465"/>
      <point x="109" y="487" type="curve" smooth="yes"/>
      <point x="106" y="490"/>
      <point x="111" y="484"/>
      <point x="108" y="487" type="curve"/>
      <point x="110" y="504" type="line"/>
      <point x="124" y="525"/>
      <point x="137" y="542"/>
      <point x="147" y="555" type="curve" smooth="yes"/>
      <point x="188" y="612"/>
      <point x="223" y="645"/>
      <point x="278" y="700" type="curve" smooth="yes"/>
      <point x="315" y="737" type="line"/>
      <point x="316" y="737" type="line"/>
      <point x="326" y="747" type="line"/>
      <point x="334" y="754"/>
      <point x="343" y="757"/>
      <point x="351" y="757" type="curve" smooth="yes"/>
      <point x="359" y="757"/>
      <point x="373" y="755"/>
      <point x="391" y="749" type="curve" smooth="yes"/>
      <point x="410" y="743"/>
      <point x="430" y="735"/>
      <point x="454" y="726" type="curve" smooth="yes"/>
      <point x="474" y="718"/>
      <point x="479" y="708"/>
      <point x="479" y="682" type="curve" smooth="yes"/>
      <point x="479" y="606"/>
      <point x="448" y="530"/>
      <point x="386" y="453" type="curve"/>
      <point x="388" y="439" type="line"/>
      <point x="428" y="406"/>
      <point x="456" y="380"/>
      <point x="494" y="345" type="curve"/>
      <point x="509" y="347" type="line"/>
      <point x="523" y="367"/>
      <point x="535" y="383"/>
      <point x="545" y="398" type="curve" smooth="yes"/>
      <point x="580" y="446"/>
      <point x="601" y="489"/>
      <point x="627" y="549" type="curve"/>
      <point x="684" y="558" type="line"/>
      <point x="671" y="518"/>
      <point x="653" y="490"/>
      <point x="630" y="456" type="curve" smooth="yes"/>
      <point x="628" y="454"/>
      <point x="628" y="453"/>
      <point x="631" y="455" type="curve"/>
      <point x="623" y="440"/>
      <point x="616" y="435"/>
      <point x="606" y="422" type="curve" smooth="yes"/>
      <point x="585" y="397"/>
      <point x="570" y="378"/>
      <point x="544" y="345" type="curve"/>
      <point x="543" y="343" type="line"/>
      <point x="537" y="334" type="line" smooth="yes"/>
      <point x="534" y="330"/>
      <point x="532" y="328"/>
      <point x="530" y="325" type="curve"/>
      <point x="530" y="313" type="line"/>
      <point x="698" y="132" type="line"/>
      <point x="697" y="124" type="line"/>
      <point x="604" y="10" type="line"/>
      <point x="595" y="8" type="line"/>
      <point x="581" y="25"/>
      <point x="575" y="37"/>
      <point x="562" y="53" type="curve" smooth="yes"/>
      <point x="541" y="77"/>
      <point x="523" y="101"/>
      <point x="497" y="129" type="curve"/>
      <point x="479" y="150"/>
      <point x="463" y="173"/>
      <point x="445" y="196" type="curve"/>
      <point x="431" y="196" type="line"/>
      <point x="360" y="130"/>
      <point x="218" y="0"/>
    </contour>
    <contour>
      <point x="401" y="234" type="line"/>
      <point x="284" y="354" type="line"/>
      <point x="274" y="356" type="line"/>
      <point x="232" y="338"/>
      <point x="199" y="318"/>
      <point x="180" y="295" type="curve"/>
      <point x="159" y="272"/>
      <point x="150" y="246"/>
      <point x="150" y="216" type="curve" smooth="yes"/>
      <point x="150" y="206"/>
      <point x="152" y="196"/>
      <point x="156" y="186" type="curve" smooth="yes"/>
      <point x="166" y="162"/>
      <point x="191" y="134"/>
      <point x="224" y="134" type="curve" smooth="yes"/>
      <point x="226" y="134" type="line" smooth="yes"/>
      <point x="231" y="134"/>
      <point x="237" y="135"/>
      <point x="245" y="137" type="curve" smooth="yes"/>
      <point x="273" y="142"/>
      <point x="304" y="152"/>
      <point x="326" y="165" type="curve"/>
      <point x="358" y="179"/>
      <point x="373" y="194"/>
      <point x="401" y="220" type="curve"/>
    </contour>
    <contour>
      <point x="237" y="570" type="curve" smooth="yes"/>
      <point x="237" y="568"/>
      <point x="238" y="571"/>
      <point x="238" y="569" type="curve" smooth="yes"/>
      <point x="242" y="562" type="line"/>
      <point x="253" y="554"/>
      <point x="263" y="545"/>
      <point x="271" y="538" type="curve" smooth="yes"/>
      <point x="284" y="528"/>
      <point x="284" y="528"/>
      <point x="297" y="518" type="curve" smooth="yes"/>
      <point x="319" y="500"/>
      <point x="335" y="485"/>
      <point x="359" y="464" type="curve"/>
      <point x="374" y="467" type="line"/>
      <point x="388" y="491"/>
      <point x="397" y="507"/>
      <point x="402" y="519" type="curve" smooth="yes"/>
      <point x="407" y="531"/>
      <point x="410" y="543"/>
      <point x="410" y="553" type="curve" smooth="yes"/>
      <point x="410" y="566"/>
      <point x="407" y="579"/>
      <point x="400" y="591" type="curve" smooth="yes"/>
      <point x="384" y="625"/>
      <point x="349" y="652"/>
      <point x="300" y="652" type="curve" smooth="yes"/>
      <point x="264" y="652"/>
      <point x="230" y="628"/>
      <point x="230" y="592" type="curve" smooth="yes"/>
      <point x="230" y="583"/>
      <point x="234" y="578"/>
    </contour>
  </outline>
</glyph>
<glyph name="uni0027" format="2">
  <advance width="199"/>
  <unicode hex="0027"/>
  <outline>
    <contour>
      <point x="132" y="667" type="curve" smooth="yes"/>
      <point x="172" y="667"/>
      <point x="188" y="616"/>
      <point x="188" y="575" type="curve" smooth="yes"/>
      <point x="188" y="485"/>
      <point x="129" y="421"/>
      <point x="72" y="387" type="curve" smooth="yes"/>
      <point x="70" y="386"/>
      <point x="69" y="386"/>
      <point x="67" y="386" type="curve" smooth="yes"/>
      <point x="63" y="386"/>
      <point x="64" y="391"/>
      <point x="68" y="397" type="curve" smooth="yes"/>
      <point x="85" y="419"/>
      <point x="100" y="442"/>
      <point x="113" y="465" type="curve" smooth="yes"/>
      <point x="126" y="488"/>
      <point x="132" y="511"/>
      <point x="132" y="532" type="curve" smooth="yes"/>
      <point x="132" y="556"/>
      <point x="128" y="582"/>
      <point x="98" y="589" type="curve" smooth="yes"/>
      <point x="94" y="590"/>
      <point x="93" y="590"/>
      <point x="88" y="590" type="curve" smooth="yes"/>
      <point x="59" y="590"/>
      <point x="35" y="570"/>
      <point x="22" y="553" type="curve" smooth="yes"/>
      <point x="17" y="547"/>
      <point x="8" y="550"/>
      <point x="14" y="559" type="curve"/>
      <point x="32" y="603"/>
      <point x="68" y="648"/>
      <point x="113" y="664" type="curve" smooth="yes"/>
      <point x="119" y="666"/>
      <point x="126" y="667"/>
    </contour>
  </outline>
</glyph>
<glyph name="uni0028" format="2">
  <advance width="500"/>
  <unicode hex="0028"/>
  <outline>
    <contour>
      <point x="301" y="328" type="curve" smooth="yes"/>
      <point x="301" y="96"/>
      <point x="331" y="-65"/>
      <point x="433" y="-185" type="curve"/>
      <point x="410" y="-219" type="line"/>
      <point x="323" y="-156"/>
      <point x="255" y="-80"/>
      <point x="206" y="11" type="curve" smooth="yes"/>
      <point x="155" y="105"/>
      <point x="129" y="204"/>
      <point x="129" y="309" type="curve" smooth="yes"/>
      <point x="129" y="347" type="line" smooth="yes"/>
      <point x="129" y="589"/>
      <point x="257" y="762"/>
      <point x="410" y="876" type="curve"/>
      <point x="433" y="842" type="line"/>
      <point x="331" y="722"/>
      <point x="301" y="560"/>
    </contour>
  </outline>
</glyph>
<glyph name="uni0029" format="2">
  <advance width="476"/>
  <unicode hex="0029"/>
  <outline>
    <contour>
      <point x="153" y="876" type="line"/>
      <point x="303" y="762"/>
      <point x="433" y="586"/>
      <point x="433" y="347" type="curve" smooth="yes"/>
      <point x="433" y="309" type="line" smooth="yes"/>
      <point x="433" y="70"/>
      <point x="302" y="-110"/>
      <point x="153" y="-219" type="curve"/>
      <point x="129" y="-185" type="line"/>
      <point x="229" y="-69"/>
      <point x="260" y="100"/>
      <point x="260" y="328" type="curve" smooth="yes"/>
      <point x="260" y="562"/>
      <point x="231" y="722"/>
      <point x="129" y="842" type="curve"/>
    </contour>
  </outline>
</glyph>
<glyph name="uni002A" format="2">
  <advance width="283"/>
  <unicode hex="002A"/>
  <outline>
    <contour>
      <point x="230" y="692" type="curve" smooth="yes"/>
      <point x="236" y="692"/>
      <point x="240" y="689"/>
      <point x="240" y="684" type="curve" smooth="yes"/>
      <point x="240" y="673"/>
      <point x="221" y="660"/>
      <point x="214" y="655" type="curve" smooth="yes"/>
      <point x="205" y="648"/>
      <point x="181" y="633"/>
      <point x="181" y="621" type="curve" smooth="yes"/>
      <point x="181" y="606"/>
      <point x="206" y="591"/>
      <point x="216" y="584" type="curve" smooth="yes"/>
      <point x="225" y="577"/>
      <point x="232" y="571"/>
      <point x="238" y="566" type="curve" smooth="yes"/>
      <point x="242" y="562"/>
      <point x="244" y="558"/>
      <point x="244" y="555" type="curve" smooth="yes"/>
      <point x="244" y="550"/>
      <point x="238" y="546"/>
      <point x="231" y="546" type="curve" smooth="yes"/>
      <point x="229" y="546"/>
      <point x="227" y="545"/>
      <point x="224" y="546" type="curve" smooth="yes"/>
      <point x="208" y="550"/>
      <point x="187" y="561"/>
      <point x="172" y="566" type="curve" smooth="yes"/>
      <point x="166" y="568"/>
      <point x="162" y="569"/>
      <point x="159" y="569" type="curve" smooth="yes"/>
      <point x="153" y="569"/>
      <point x="151" y="565"/>
      <point x="148" y="554" type="curve" smooth="yes"/>
      <point x="143" y="540"/>
      <point x="138" y="520"/>
      <point x="133" y="507" type="curve" smooth="yes"/>
      <point x="130" y="500"/>
      <point x="127" y="497"/>
      <point x="123" y="497" type="curve" smooth="yes"/>
      <point x="101" y="497"/>
      <point x="100" y="560"/>
      <point x="89" y="571" type="curve" smooth="yes"/>
      <point x="88" y="572"/>
      <point x="87" y="572"/>
      <point x="85" y="572" type="curve" smooth="yes"/>
      <point x="76" y="572"/>
      <point x="54" y="559"/>
      <point x="48" y="557" type="curve" smooth="yes"/>
      <point x="41" y="554"/>
      <point x="25" y="546"/>
      <point x="14" y="546" type="curve" smooth="yes"/>
      <point x="9" y="546"/>
      <point x="3" y="548"/>
      <point x="3" y="553" type="curve" smooth="yes"/>
      <point x="3" y="563"/>
      <point x="24" y="578"/>
      <point x="30" y="583" type="curve" smooth="yes"/>
      <point x="40" y="592"/>
      <point x="63" y="606"/>
      <point x="63" y="619" type="curve" smooth="yes"/>
      <point x="63" y="635"/>
      <point x="40" y="650"/>
      <point x="28" y="658" type="curve"/>
      <point x="21" y="664"/>
      <point x="0" y="678"/>
      <point x="0" y="688" type="curve" smooth="yes"/>
      <point x="0" y="689"/>
      <point x="0" y="690"/>
      <point x="0" y="691" type="curve" smooth="yes"/>
      <point x="2" y="694"/>
      <point x="7" y="696"/>
      <point x="11" y="696" type="curve" smooth="yes"/>
      <point x="22" y="696"/>
      <point x="38" y="688"/>
      <point x="45" y="685" type="curve" smooth="yes"/>
      <point x="53" y="682"/>
      <point x="71" y="672"/>
      <point x="85" y="672" type="curve" smooth="yes"/>
      <point x="105" y="672"/>
      <point x="105" y="702"/>
      <point x="109" y="720" type="curve" smooth="yes"/>
      <point x="112" y="732"/>
      <point x="116" y="756"/>
      <point x="127" y="756" type="curve" smooth="yes"/>
      <point x="149" y="756"/>
      <point x="142" y="682"/>
      <point x="156" y="674" type="curve" smooth="yes"/>
      <point x="159" y="672"/>
      <point x="162" y="672"/>
      <point x="165" y="672" type="curve" smooth="yes"/>
      <point x="177" y="672"/>
      <point x="193" y="679"/>
      <point x="200" y="682" type="curve" smooth="yes"/>
      <point x="206" y="685"/>
      <point x="221" y="692"/>
    </contour>
    <contour>
      <point x="88" y="623" type="curve" smooth="yes"/>
      <point x="88" y="604"/>
      <point x="102" y="593"/>
      <point x="121" y="593" type="curve" smooth="yes"/>
      <point x="138" y="593"/>
      <point x="157" y="603"/>
      <point x="157" y="621" type="curve" smooth="yes"/>
      <point x="157" y="639"/>
      <point x="141" y="659"/>
      <point x="121" y="659" type="curve" smooth="yes"/>
      <point x="103" y="659"/>
      <point x="88" y="642"/>
    </contour>
  </outline>
</glyph>
<glyph name="uni002B" format="2">
  <advance width="406"/>
  <unicode hex="002B"/>
  <outline>
    <contour>
      <point x="218" y="24" type="curve" smooth="yes"/>
      <point x="218" y="16"/>
      <point x="209" y="13"/>
      <point x="198" y="13" type="curve" smooth="yes"/>
      <point x="186" y="13"/>
      <point x="173" y="17"/>
      <point x="170" y="24" type="curve" smooth="yes"/>
      <point x="168" y="28"/>
      <point x="167" y="33"/>
      <point x="167" y="36" type="curve" smooth="yes"/>
      <point x="167" y="81"/>
      <point x="172" y="132"/>
      <point x="172" y="182" type="curve"/>
      <point x="160" y="182"/>
      <point x="148" y="181"/>
      <point x="136" y="181" type="curve" smooth="yes"/>
      <point x="112" y="180"/>
      <point x="92" y="179"/>
      <point x="73" y="179" type="curve" smooth="yes"/>
      <point x="55" y="179"/>
      <point x="38" y="180"/>
      <point x="19" y="182" type="curve" smooth="yes"/>
      <point x="12" y="183"/>
      <point x="10" y="188"/>
      <point x="10" y="194" type="curve" smooth="yes"/>
      <point x="10" y="204"/>
      <point x="15" y="218"/>
      <point x="18" y="224" type="curve" smooth="yes"/>
      <point x="20" y="229"/>
      <point x="25" y="231"/>
      <point x="32" y="232" type="curve" smooth="yes"/>
      <point x="35" y="232"/>
      <point x="35" y="232"/>
      <point x="50" y="232" type="curve" smooth="yes"/>
      <point x="88" y="232"/>
      <point x="134" y="230"/>
      <point x="172" y="230" type="curve"/>
      <point x="172" y="241"/>
      <point x="171" y="249"/>
      <point x="171" y="260" type="curve" smooth="yes"/>
      <point x="170" y="284"/>
      <point x="169" y="304"/>
      <point x="169" y="323" type="curve" smooth="yes"/>
      <point x="169" y="341"/>
      <point x="170" y="358"/>
      <point x="172" y="377" type="curve" smooth="yes"/>
      <point x="173" y="384"/>
      <point x="178" y="386"/>
      <point x="184" y="386" type="curve" smooth="yes"/>
      <point x="194" y="386"/>
      <point x="208" y="381"/>
      <point x="214" y="378" type="curve" smooth="yes"/>
      <point x="219" y="376"/>
      <point x="221" y="371"/>
      <point x="222" y="364" type="curve" smooth="yes"/>
      <point x="222" y="361"/>
      <point x="222" y="361"/>
      <point x="222" y="346" type="curve" smooth="yes"/>
      <point x="222" y="310"/>
      <point x="220" y="265"/>
      <point x="220" y="228" type="curve"/>
      <point x="237" y="228"/>
      <point x="237" y="228"/>
      <point x="256" y="228" type="curve" smooth="yes"/>
      <point x="281" y="228"/>
      <point x="309" y="229"/>
      <point x="334" y="229" type="curve" smooth="yes"/>
      <point x="346" y="229"/>
      <point x="356" y="229"/>
      <point x="365" y="228" type="curve" smooth="yes"/>
      <point x="368" y="228"/>
      <point x="368" y="228"/>
      <point x="372" y="228" type="curve" smooth="yes"/>
      <point x="380" y="228"/>
      <point x="383" y="219"/>
      <point x="383" y="208" type="curve" smooth="yes"/>
      <point x="383" y="196"/>
      <point x="379" y="183"/>
      <point x="372" y="180" type="curve" smooth="yes"/>
      <point x="368" y="178"/>
      <point x="363" y="177"/>
      <point x="360" y="177" type="curve" smooth="yes"/>
      <point x="316" y="177"/>
      <point x="266" y="182"/>
      <point x="218" y="182" type="curve"/>
      <point x="218" y="166"/>
      <point x="218" y="166"/>
      <point x="218" y="146" type="curve" smooth="yes"/>
      <point x="218" y="119"/>
      <point x="219" y="90"/>
      <point x="219" y="64" type="curve" smooth="yes"/>
      <point x="219" y="51"/>
      <point x="219" y="40"/>
      <point x="218" y="31" type="curve" smooth="yes"/>
      <point x="218" y="28"/>
      <point x="218" y="28"/>
    </contour>
  </outline>
</glyph>
<glyph name="uni002C" format="2">
  <advance width="302"/>
  <unicode hex="002C"/>
  <outline>
    <contour>
      <point x="36" y="-4" type="curve" smooth="yes"/>
      <point x="30" y="-4"/>
      <point x="27" y="1"/>
      <point x="27" y="8" type="curve" smooth="yes"/>
      <point x="27" y="28"/>
      <point x="51" y="46"/>
      <point x="65" y="56" type="curve" smooth="yes"/>
      <point x="97" y="79"/>
      <point x="132" y="95"/>
      <point x="180" y="102" type="curve" smooth="yes"/>
      <point x="187" y="104"/>
      <point x="194" y="104"/>
      <point x="200" y="104" type="curve" smooth="yes"/>
      <point x="243" y="104"/>
      <point x="262" y="80"/>
      <point x="262" y="45" type="curve" smooth="yes"/>
      <point x="262" y="29"/>
      <point x="258" y="11"/>
      <point x="250" y="-9" type="curve"/>
      <point x="237" y="-45"/>
      <point x="197" y="-81"/>
      <point x="166" y="-104" type="curve" smooth="yes"/>
      <point x="138" y="-125"/>
      <point x="97" y="-154"/>
      <point x="59" y="-158" type="curve"/>
      <point x="58" y="-158"/>
      <point x="58" y="-158"/>
      <point x="57" y="-158" type="curve" smooth="yes"/>
      <point x="43" y="-158"/>
      <point x="37" y="-150"/>
      <point x="37" y="-142" type="curve" smooth="yes"/>
      <point x="37" y="-135"/>
      <point x="41" y="-127"/>
      <point x="48" y="-122" type="curve" smooth="yes"/>
      <point x="75" y="-103"/>
      <point x="104" y="-77"/>
      <point x="124" y="-49" type="curve" smooth="yes"/>
      <point x="131" y="-39"/>
      <point x="141" y="-17"/>
      <point x="141" y="1" type="curve" smooth="yes"/>
      <point x="141" y="13"/>
      <point x="137" y="23"/>
      <point x="126" y="28" type="curve" smooth="yes"/>
      <point x="123" y="29"/>
      <point x="118" y="30"/>
      <point x="114" y="30" type="curve" smooth="yes"/>
      <point x="107" y="30"/>
      <point x="100" y="28"/>
      <point x="95" y="24" type="curve" smooth="yes"/>
      <point x="84" y="16"/>
      <point x="58" y="-2"/>
      <point x="44" y="-4" type="curve" smooth="yes"/>
      <point x="41" y="-4"/>
      <point x="41" y="-4"/>
    </contour>
  </outline>
</glyph>
<glyph name="uni002D" format="2">
  <advance width="394"/>
  <unicode hex="002D"/>
  <outline>
    <contour>
      <point x="358" y="242" type="curve" smooth="yes"/>
      <point x="367" y="242"/>
      <point x="370" y="233"/>
      <point x="370" y="222" type="curve" smooth="yes"/>
      <point x="370" y="210"/>
      <point x="366" y="197"/>
      <point x="360" y="194" type="curve" smooth="yes"/>
      <point x="354" y="192"/>
      <point x="350" y="191"/>
      <point x="347" y="191" type="curve" smooth="yes"/>
      <point x="327" y="191"/>
      <point x="301" y="194"/>
      <point x="274" y="194" type="curve" smooth="yes"/>
      <point x="245" y="195"/>
      <point x="212" y="196"/>
      <point x="180" y="196" type="curve" smooth="yes"/>
      <point x="164" y="196"/>
      <point x="148" y="195"/>
      <point x="133" y="195" type="curve" smooth="yes"/>
      <point x="109" y="194"/>
      <point x="89" y="193"/>
      <point x="70" y="193" type="curve" smooth="yes"/>
      <point x="52" y="193"/>
      <point x="35" y="194"/>
      <point x="16" y="196" type="curve" smooth="yes"/>
      <point x="9" y="197"/>
      <point x="7" y="202"/>
      <point x="7" y="208" type="curve" smooth="yes"/>
      <point x="7" y="218"/>
      <point x="12" y="232"/>
      <point x="15" y="238" type="curve" smooth="yes"/>
      <point x="17" y="243"/>
      <point x="22" y="245"/>
      <point x="29" y="246" type="curve" smooth="yes"/>
      <point x="78" y="246" type="line" smooth="yes"/>
      <point x="119" y="246"/>
      <point x="167" y="243"/>
      <point x="205" y="243" type="curve" smooth="yes"/>
      <point x="216" y="242"/>
      <point x="228" y="242"/>
      <point x="240" y="242" type="curve" smooth="yes"/>
      <point x="266" y="242"/>
      <point x="294" y="243"/>
      <point x="319" y="243" type="curve" smooth="yes"/>
      <point x="332" y="243"/>
      <point x="343" y="243"/>
      <point x="352" y="242" type="curve" smooth="yes"/>
      <point x="355" y="242"/>
      <point x="355" y="242"/>
    </contour>
  </outline>
</glyph>
<glyph name="uni002E" format="2">
  <advance width="238"/>
  <unicode hex="002E"/>
  <outline>
    <contour>
      <point x="190" y="115" type="curve" smooth="yes"/>
      <point x="196" y="105"/>
      <point x="199" y="94"/>
      <point x="199" y="83" type="curve" smooth="yes"/>
      <point x="199" y="60"/>
      <point x="188" y="37"/>
      <point x="177" y="25" type="curve" smooth="yes"/>
      <point x="165" y="12"/>
      <point x="147" y="-0"/>
      <point x="122" y="-0" type="curve" smooth="yes"/>
      <point x="121" y="-0"/>
      <point x="119" y="-0"/>
      <point x="118" y="-0" type="curve"/>
      <point x="84" y="3"/>
      <point x="61" y="25"/>
      <point x="54" y="54" type="curve" smooth="yes"/>
      <point x="53" y="60"/>
      <point x="53" y="65"/>
      <point x="53" y="69" type="curve" smooth="yes"/>
      <point x="53" y="101"/>
      <point x="69" y="124"/>
      <point x="91" y="136" type="curve" smooth="yes"/>
      <point x="100" y="142"/>
      <point x="113" y="144"/>
      <point x="127" y="144" type="curve" smooth="yes"/>
      <point x="143" y="144"/>
      <point x="160" y="140"/>
      <point x="170" y="134" type="curve" smooth="yes"/>
      <point x="179" y="129"/>
      <point x="186" y="122"/>
    </contour>
  </outline>
</glyph>
<glyph name="uni002F" format="2">
  <advance width="390"/>
  <unicode hex="002F"/>
  <outline>
    <contour>
      <point x="300" y="774" type="line"/>
      <point x="360" y="774" type="line"/>
      <point x="130" y="0" type="line"/>
      <point x="70" y="0" type="line"/>
    </contour>
  </outline>
</glyph>
<glyph name="uni0031" format="2">
  <advance width="332"/>
  <unicode hex="0031"/>
  <outline>
    <contour>
      <point x="156" y="316" type="curve"/>
      <point x="134" y="306"/>
      <point x="63" y="283"/>
      <point x="31" y="283" type="curve" smooth="yes"/>
      <point x="19" y="283"/>
      <point x="13" y="300"/>
      <point x="13" y="333" type="curve"/>
      <point x="100" y="348"/>
      <point x="177" y="371"/>
      <point x="246" y="404" type="curve" smooth="yes"/>
      <point x="252" y="407"/>
      <point x="261" y="409"/>
      <point x="274" y="409" type="curve" smooth="yes"/>
      <point x="285" y="409"/>
      <point x="291" y="398"/>
      <point x="291" y="377" type="curve" smooth="yes"/>
      <point x="291" y="374"/>
      <point x="289" y="344"/>
      <point x="286" y="289" type="curve" smooth="yes"/>
      <point x="283" y="234"/>
      <point x="281" y="189"/>
      <point x="281" y="154" type="curve" smooth="yes"/>
      <point x="281" y="137"/>
      <point x="281" y="113"/>
      <point x="282" y="84" type="curve" smooth="yes"/>
      <point x="282" y="40" type="line" smooth="yes"/>
      <point x="282" y="21"/>
      <point x="277" y="11"/>
      <point x="266" y="10" type="curve" smooth="yes"/>
      <point x="210" y="3"/>
      <point x="178" y="0"/>
      <point x="170" y="0" type="curve" smooth="yes"/>
      <point x="155" y="0"/>
      <point x="148" y="11"/>
      <point x="148" y="32" type="curve" smooth="yes"/>
      <point x="148" y="63"/>
      <point x="156" y="283"/>
    </contour>
  </outline>
</glyph>
<glyph name="uni0032" format="2">
  <advance width="598"/>
  <unicode hex="0032"/>
  <outline>
    <contour>
      <point x="330" y="415" type="curve" smooth="yes"/>
      <point x="469" y="415"/>
      <point x="537" y="364"/>
      <point x="537" y="228" type="curve" smooth="yes"/>
      <point x="537" y="191"/>
      <point x="520" y="156"/>
      <point x="486" y="125" type="curve" smooth="yes"/>
      <point x="433" y="76"/>
      <point x="331" y="18"/>
      <point x="178" y="-51" type="curve"/>
      <point x="213" y="-51"/>
      <point x="254" y="-63"/>
      <point x="301" y="-87" type="curve" smooth="yes"/>
      <point x="320" y="-97"/>
      <point x="357" y="-119"/>
      <point x="411" y="-154" type="curve" smooth="yes"/>
      <point x="449" y="-178"/>
      <point x="474" y="-191"/>
      <point x="487" y="-191" type="curve" smooth="yes"/>
      <point x="508" y="-191"/>
      <point x="526" y="-172"/>
      <point x="541" y="-134" type="curve"/>
      <point x="570" y="-159" type="line"/>
      <point x="545" y="-216"/>
      <point x="471" y="-292"/>
      <point x="394" y="-292" type="curve" smooth="yes"/>
      <point x="372" y="-292"/>
      <point x="342" y="-278"/>
      <point x="304" y="-250" type="curve"/>
      <point x="256" y="-211"/>
      <point x="256" y="-211"/>
      <point x="208" y="-172" type="curve" smooth="yes"/>
      <point x="172" y="-144"/>
      <point x="146" y="-130"/>
      <point x="130" y="-130" type="curve" smooth="yes"/>
      <point x="97" y="-130"/>
      <point x="69" y="-138"/>
      <point x="46" y="-154" type="curve"/>
      <point x="32" y="-128" type="line"/>
      <point x="63" y="-89"/>
      <point x="112" y="-49"/>
      <point x="180" y="-7" type="curve" smooth="yes"/>
      <point x="261" y="42"/>
      <point x="311" y="75"/>
      <point x="330" y="93" type="curve" smooth="yes"/>
      <point x="375" y="134"/>
      <point x="398" y="183"/>
      <point x="398" y="239" type="curve" smooth="yes"/>
      <point x="398" y="306"/>
      <point x="359" y="373"/>
      <point x="297" y="373" type="curve" smooth="yes"/>
      <point x="215" y="373"/>
      <point x="170" y="349"/>
      <point x="170" y="273" type="curve" smooth="yes"/>
      <point x="170" y="257"/>
      <point x="172" y="237"/>
      <point x="176" y="213" type="curve"/>
      <point x="65" y="181" type="line"/>
      <point x="50" y="193" type="line"/>
      <point x="50" y="366"/>
      <point x="146" y="415"/>
    </contour>
  </outline>
</glyph>
<glyph name="uni0033" format="2">
  <advance width="616"/>
  <unicode hex="0033"/>
  <outline>
    <contour>
      <point x="251" y="408" type="curve" smooth="yes"/>
      <point x="282" y="408"/>
      <point x="425" y="406"/>
      <point x="454" y="406" type="curve" smooth="yes"/>
      <point x="507" y="406"/>
      <point x="541" y="407"/>
      <point x="556" y="408" type="curve"/>
      <point x="562" y="396" type="line"/>
      <point x="364" y="172" type="line"/>
      <point x="364" y="162" type="line"/>
      <point x="373" y="163"/>
      <point x="382" y="164"/>
      <point x="390" y="164" type="curve" smooth="yes"/>
      <point x="431" y="164"/>
      <point x="467" y="149"/>
      <point x="498" y="119" type="curve" smooth="yes"/>
      <point x="531" y="87"/>
      <point x="547" y="48"/>
      <point x="547" y="2" type="curve" smooth="yes"/>
      <point x="547" y="-33"/>
      <point x="520" y="-74"/>
      <point x="466" y="-122" type="curve" smooth="yes"/>
      <point x="424" y="-159"/>
      <point x="384" y="-177"/>
      <point x="346" y="-177" type="curve" smooth="yes"/>
      <point x="316" y="-177"/>
      <point x="278" y="-165"/>
      <point x="230" y="-142" type="curve" smooth="yes"/>
      <point x="184" y="-118"/>
      <point x="153" y="-106"/>
      <point x="140" y="-106" type="curve" smooth="yes"/>
      <point x="106" y="-106"/>
      <point x="72" y="-122"/>
      <point x="38" y="-155" type="curve"/>
      <point x="20" y="-128" type="line"/>
      <point x="19" y="-128" type="line"/>
      <point x="96" y="-58"/>
      <point x="146" y="-23"/>
      <point x="170" y="-23" type="curve" smooth="yes"/>
      <point x="196" y="-23"/>
      <point x="236" y="-35"/>
      <point x="291" y="-60" type="curve" smooth="yes"/>
      <point x="346" y="-84"/>
      <point x="379" y="-96"/>
      <point x="392" y="-96" type="curve" smooth="yes"/>
      <point x="402" y="-96"/>
      <point x="407" y="-90"/>
      <point x="407" y="-79" type="curve" smooth="yes"/>
      <point x="407" y="-19"/>
      <point x="394" y="31"/>
      <point x="368" y="71" type="curve" smooth="yes"/>
      <point x="345" y="106"/>
      <point x="321" y="123"/>
      <point x="295" y="123" type="curve" smooth="yes"/>
      <point x="276" y="123"/>
      <point x="258" y="121"/>
      <point x="243" y="116" type="curve"/>
      <point x="221" y="146" type="line"/>
      <point x="315" y="174"/>
      <point x="371" y="230"/>
      <point x="390" y="314" type="curve"/>
      <point x="278" y="314" type="line" smooth="yes"/>
      <point x="194" y="314"/>
      <point x="174" y="287"/>
      <point x="170" y="204" type="curve"/>
      <point x="145" y="212" type="line"/>
      <point x="143" y="228"/>
      <point x="123" y="297"/>
      <point x="123" y="317" type="curve" smooth="yes"/>
      <point x="123" y="378"/>
      <point x="166" y="408"/>
    </contour>
  </outline>
</glyph>
<glyph name="uni0034" format="2">
  <advance width="647"/>
  <unicode hex="0034"/>
  <outline>
    <contour>
      <point x="634" y="274" type="line"/>
      <point x="627" y="236"/>
      <point x="613" y="206"/>
      <point x="590" y="183" type="curve"/>
      <point x="467" y="190" type="line"/>
      <point x="467" y="36" type="line" smooth="yes"/>
      <point x="467" y="21"/>
      <point x="462" y="12"/>
      <point x="452" y="7" type="curve"/>
      <point x="395" y="2"/>
      <point x="360" y="-1"/>
      <point x="347" y="-1" type="curve" smooth="yes"/>
      <point x="328" y="-1"/>
      <point x="318" y="9"/>
      <point x="318" y="30" type="curve"/>
      <point x="318" y="30"/>
      <point x="320" y="50"/>
      <point x="324" y="97" type="curve" smooth="yes"/>
      <point x="328" y="143"/>
      <point x="330" y="176"/>
      <point x="330" y="195" type="curve"/>
      <point x="206" y="200"/>
      <point x="131" y="203"/>
      <point x="106" y="203" type="curve" smooth="yes"/>
      <point x="77" y="203"/>
      <point x="52" y="202"/>
      <point x="31" y="200" type="curve"/>
      <point x="30" y="227" type="line"/>
      <point x="135" y="336"/>
      <point x="197" y="401"/>
      <point x="214" y="421" type="curve" smooth="yes"/>
      <point x="269" y="484"/>
      <point x="310" y="545"/>
      <point x="338" y="603" type="curve"/>
      <point x="474" y="639" type="line"/>
      <point x="486" y="625" type="line"/>
      <point x="441" y="562"/>
      <point x="381" y="494"/>
      <point x="306" y="419" type="curve" smooth="yes"/>
      <point x="255" y="368"/>
      <point x="203" y="316"/>
      <point x="150" y="265" type="curve"/>
      <point x="156" y="259" type="line"/>
      <point x="330" y="259" type="line"/>
      <point x="330" y="417" type="line"/>
      <point x="373" y="426"/>
      <point x="409" y="434"/>
      <point x="440" y="443" type="curve"/>
      <point x="463" y="448"/>
      <point x="476" y="451"/>
      <point x="480" y="451" type="curve" smooth="yes"/>
      <point x="485" y="451"/>
      <point x="487" y="444"/>
      <point x="487" y="429" type="curve" smooth="yes"/>
      <point x="487" y="426"/>
      <point x="487" y="422"/>
      <point x="486" y="415" type="curve"/>
      <point x="476" y="379"/>
      <point x="468" y="327"/>
      <point x="463" y="260" type="curve"/>
      <point x="534" y="266"/>
      <point x="590" y="273"/>
      <point x="630" y="280" type="curve"/>
    </contour>
  </outline>
</glyph>
<glyph name="uni0035" format="2">
  <advance width="621"/>
  <unicode hex="0035"/>
  <outline>
    <contour>
      <point x="122" y="168" type="curve" smooth="yes"/>
      <point x="122" y="195"/>
      <point x="130" y="296"/>
      <point x="130" y="323" type="curve" smooth="yes"/>
      <point x="130" y="362"/>
      <point x="125" y="393"/>
      <point x="114" y="415" type="curve"/>
      <point x="125" y="427" type="line"/>
      <point x="220" y="427" type="line" smooth="yes"/>
      <point x="267" y="427"/>
      <point x="320" y="422"/>
      <point x="378" y="410" type="curve" smooth="yes"/>
      <point x="438" y="400"/>
      <point x="472" y="394"/>
      <point x="483" y="394" type="curve" smooth="yes"/>
      <point x="504" y="394"/>
      <point x="522" y="413"/>
      <point x="537" y="451" type="curve"/>
      <point x="566" y="426" type="line"/>
      <point x="541" y="369"/>
      <point x="467" y="293"/>
      <point x="390" y="293" type="curve" smooth="yes"/>
      <point x="363" y="293"/>
      <point x="329" y="302"/>
      <point x="288" y="319" type="curve" smooth="yes"/>
      <point x="247" y="336"/>
      <point x="217" y="345"/>
      <point x="198" y="345" type="curve"/>
      <point x="186" y="203" type="line"/>
      <point x="263" y="220"/>
      <point x="326" y="228"/>
      <point x="374" y="228" type="curve" smooth="yes"/>
      <point x="409" y="228"/>
      <point x="435" y="223"/>
      <point x="450" y="214" type="curve" smooth="yes"/>
      <point x="499" y="182"/>
      <point x="547" y="109"/>
      <point x="547" y="32" type="curve" smooth="yes"/>
      <point x="547" y="-3"/>
      <point x="520" y="-44"/>
      <point x="466" y="-92" type="curve" smooth="yes"/>
      <point x="424" y="-129"/>
      <point x="384" y="-147"/>
      <point x="346" y="-147" type="curve" smooth="yes"/>
      <point x="317" y="-147"/>
      <point x="279" y="-135"/>
      <point x="231" y="-112" type="curve" smooth="yes"/>
      <point x="183" y="-88"/>
      <point x="153" y="-76"/>
      <point x="140" y="-76" type="curve" smooth="yes"/>
      <point x="106" y="-76"/>
      <point x="72" y="-91"/>
      <point x="38" y="-124" type="curve"/>
      <point x="20" y="-98" type="line"/>
      <point x="19" y="-98" type="line"/>
      <point x="96" y="-28"/>
      <point x="146" y="7"/>
      <point x="170" y="7" type="curve" smooth="yes"/>
      <point x="196" y="7"/>
      <point x="236" y="-5"/>
      <point x="291" y="-30" type="curve" smooth="yes"/>
      <point x="346" y="-54"/>
      <point x="379" y="-66"/>
      <point x="392" y="-66" type="curve" smooth="yes"/>
      <point x="402" y="-66"/>
      <point x="407" y="-60"/>
      <point x="407" y="-49" type="curve" smooth="yes"/>
      <point x="407" y="12"/>
      <point x="394" y="62"/>
      <point x="368" y="102" type="curve" smooth="yes"/>
      <point x="345" y="136"/>
      <point x="321" y="153"/>
      <point x="295" y="153" type="curve" smooth="yes"/>
      <point x="265" y="153"/>
      <point x="166" y="122"/>
      <point x="148" y="113" type="curve"/>
      <point x="125" y="122" type="line"/>
      <point x="123" y="135"/>
      <point x="122" y="151"/>
    </contour>
  </outline>
</glyph>
<glyph name="uni0036" format="2">
  <advance width="552"/>
  <unicode hex="0036"/>
  <outline>
    <contour>
      <point x="178" y="177" type="curve" smooth="yes"/>
      <point x="178" y="111"/>
      <point x="217" y="43"/>
      <point x="279" y="43" type="curve" smooth="yes"/>
      <point x="364" y="43"/>
      <point x="406" y="79"/>
      <point x="406" y="150" type="curve" smooth="yes"/>
      <point x="406" y="234"/>
      <point x="360" y="279"/>
      <point x="268" y="284" type="curve"/>
      <point x="257" y="304" type="line"/>
      <point x="308" y="362"/>
      <point x="347" y="391"/>
      <point x="372" y="391" type="curve" smooth="yes"/>
      <point x="407" y="391"/>
      <point x="440" y="372"/>
      <point x="473" y="332" type="curve" smooth="yes"/>
      <point x="506" y="294"/>
      <point x="522" y="253"/>
      <point x="522" y="212" type="curve" smooth="yes"/>
      <point x="522" y="65"/>
      <point x="402" y="0"/>
      <point x="246" y="0" type="curve" smooth="yes"/>
      <point x="107" y="0"/>
      <point x="38" y="66"/>
      <point x="38" y="199" type="curve" smooth="yes"/>
      <point x="38" y="235"/>
      <point x="55" y="272"/>
      <point x="88" y="310" type="curve" smooth="yes"/>
      <point x="137" y="367"/>
      <point x="225" y="436"/>
      <point x="353" y="517" type="curve" smooth="yes"/>
      <point x="497" y="608" type="line"/>
      <point x="511" y="565" type="line"/>
      <point x="397" y="499"/>
      <point x="319" y="445"/>
      <point x="276" y="403" type="curve" smooth="yes"/>
      <point x="211" y="338"/>
      <point x="178" y="263"/>
    </contour>
  </outline>
</glyph>
<glyph name="uni0037" format="2">
  <advance width="558"/>
  <unicode hex="0037"/>
  <outline>
    <contour>
      <point x="110" y="326" type="curve" smooth="yes"/>
      <point x="110" y="386"/>
      <point x="163" y="415"/>
      <point x="228" y="415" type="curve" smooth="yes"/>
      <point x="543" y="415" type="line"/>
      <point x="549" y="403" type="line"/>
      <point x="469" y="330"/>
      <point x="393" y="248"/>
      <point x="322" y="158" type="curve" smooth="yes"/>
      <point x="304" y="137"/>
      <point x="287" y="103"/>
      <point x="270" y="58" type="curve" smooth="yes"/>
      <point x="243" y="-11"/>
      <point x="230" y="-81"/>
      <point x="230" y="-153" type="curve"/>
      <point x="80" y="-153" type="line" smooth="yes"/>
      <point x="63" y="-153"/>
      <point x="55" y="-146"/>
      <point x="55" y="-136" type="curve" smooth="yes"/>
      <point x="55" y="-115"/>
      <point x="71" y="-85"/>
      <point x="102" y="-43" type="curve" smooth="yes"/>
      <point x="377" y="321" type="line"/>
      <point x="265" y="321" type="line" smooth="yes"/>
      <point x="184" y="321"/>
      <point x="159" y="266"/>
      <point x="154" y="182" type="curve"/>
      <point x="132" y="176" type="line"/>
      <point x="133" y="182"/>
      <point x="132" y="188"/>
      <point x="132" y="195" type="curve" smooth="yes"/>
      <point x="132" y="211"/>
      <point x="130" y="234"/>
      <point x="122" y="264" type="curve" smooth="yes"/>
      <point x="114" y="293"/>
      <point x="110" y="314"/>
    </contour>
  </outline>
</glyph>
<glyph name="uni0038" format="2">
  <advance width="618"/>
  <unicode hex="0038"/>
  <outline>
    <contour>
      <point x="313" y="583" type="curve" smooth="yes"/>
      <point x="407" y="583"/>
      <point x="534" y="537"/>
      <point x="534" y="453" type="curve" smooth="yes"/>
      <point x="534" y="427"/>
      <point x="526" y="404"/>
      <point x="511" y="385" type="curve" smooth="yes"/>
      <point x="496" y="366"/>
      <point x="469" y="346"/>
      <point x="431" y="325" type="curve"/>
      <point x="482" y="306"/>
      <point x="517" y="287"/>
      <point x="538" y="267" type="curve" smooth="yes"/>
      <point x="561" y="245"/>
      <point x="572" y="216"/>
      <point x="572" y="179" type="curve" smooth="yes"/>
      <point x="572" y="166"/>
      <point x="561" y="144"/>
      <point x="538" y="113" type="curve" smooth="yes"/>
      <point x="493" y="53"/>
      <point x="413" y="-17"/>
      <point x="324" y="-17" type="curve" smooth="yes"/>
      <point x="264" y="-17"/>
      <point x="205" y="3"/>
      <point x="146" y="44" type="curve" smooth="yes"/>
      <point x="85" y="87"/>
      <point x="54" y="132"/>
      <point x="54" y="181" type="curve" smooth="yes"/>
      <point x="54" y="233"/>
      <point x="97" y="277"/>
      <point x="183" y="313" type="curve"/>
      <point x="114" y="346"/>
      <point x="80" y="384"/>
      <point x="80" y="425" type="curve" smooth="yes"/>
      <point x="80" y="464"/>
      <point x="105" y="500"/>
      <point x="154" y="533" type="curve" smooth="yes"/>
      <point x="203" y="566"/>
      <point x="256" y="583"/>
    </contour>
    <contour>
      <point x="262" y="537" type="curve" smooth="yes"/>
      <point x="228" y="537"/>
      <point x="189" y="509"/>
      <point x="189" y="476" type="curve" smooth="yes"/>
      <point x="189" y="448"/>
      <point x="204" y="425"/>
      <point x="233" y="407" type="curve" smooth="yes"/>
      <point x="252" y="394"/>
      <point x="297" y="376"/>
      <point x="367" y="351" type="curve"/>
      <point x="398" y="366"/>
      <point x="414" y="389"/>
      <point x="414" y="421" type="curve" smooth="yes"/>
      <point x="414" y="493"/>
      <point x="337" y="537"/>
    </contour>
    <contour>
      <point x="401" y="59" type="curve" smooth="yes"/>
      <point x="435" y="59"/>
      <point x="461" y="100"/>
      <point x="461" y="135" type="curve" smooth="yes"/>
      <point x="461" y="159"/>
      <point x="433" y="190"/>
      <point x="377" y="227" type="curve" smooth="yes"/>
      <point x="318" y="266"/>
      <point x="265" y="285"/>
      <point x="218" y="285" type="curve" smooth="yes"/>
      <point x="191" y="285"/>
      <point x="166" y="249"/>
      <point x="166" y="222" type="curve" smooth="yes"/>
      <point x="166" y="189"/>
      <point x="187" y="155"/>
      <point x="230" y="120" type="curve" smooth="yes"/>
      <point x="279" y="79"/>
      <point x="336" y="59"/>
    </contour>
  </outline>
</glyph>
<glyph name="uni0039" format="2">
  <advance width="572"/>
  <unicode hex="0039"/>
  <outline>
    <contour>
      <point x="47" y="192" type="curve" smooth="yes"/>
      <point x="47" y="341"/>
      <point x="165" y="403"/>
      <point x="323" y="403" type="curve" smooth="yes"/>
      <point x="461" y="403"/>
      <point x="530" y="337"/>
      <point x="530" y="205" type="curve" smooth="yes"/>
      <point x="530" y="164"/>
      <point x="515" y="125"/>
      <point x="485" y="86" type="curve" smooth="yes"/>
      <point x="437" y="24"/>
      <point x="349" y="-44"/>
      <point x="220" y="-119" type="curve" smooth="yes"/>
      <point x="72" y="-204" type="line"/>
      <point x="58" y="-161" type="line"/>
      <point x="172" y="-96"/>
      <point x="250" y="-42"/>
      <point x="293" y="1" type="curve" smooth="yes"/>
      <point x="358" y="66"/>
      <point x="391" y="141"/>
      <point x="391" y="227" type="curve" smooth="yes"/>
      <point x="391" y="292"/>
      <point x="351" y="361"/>
      <point x="290" y="361" type="curve" smooth="yes"/>
      <point x="205" y="361"/>
      <point x="162" y="325"/>
      <point x="162" y="253" type="curve" smooth="yes"/>
      <point x="162" y="185"/>
      <point x="208" y="141"/>
      <point x="301" y="120" type="curve"/>
      <point x="312" y="100" type="line"/>
      <point x="267" y="43"/>
      <point x="229" y="15"/>
      <point x="197" y="15" type="curve" smooth="yes"/>
      <point x="160" y="15"/>
      <point x="126" y="34"/>
      <point x="94" y="72" type="curve" smooth="yes"/>
      <point x="63" y="110"/>
      <point x="47" y="150"/>
    </contour>
  </outline>
</glyph>
<glyph name="uni003A" format="2">
  <advance width="238"/>
  <unicode hex="003A"/>
  <outline>
    <contour>
      <point x="91" y="376" type="curve" smooth="yes"/>
      <point x="100" y="382"/>
      <point x="113" y="384"/>
      <point x="127" y="384" type="curve" smooth="yes"/>
      <point x="143" y="384"/>
      <point x="160" y="380"/>
      <point x="170" y="374" type="curve" smooth="yes"/>
      <point x="189" y="363"/>
      <point x="198" y="342"/>
      <point x="198" y="320" type="curve" smooth="yes"/>
      <point x="198" y="300"/>
      <point x="191" y="280"/>
      <point x="177" y="265" type="curve" smooth="yes"/>
      <point x="165" y="252"/>
      <point x="147" y="240"/>
      <point x="122" y="240" type="curve" smooth="yes"/>
      <point x="121" y="240"/>
      <point x="119" y="240"/>
      <point x="118" y="240" type="curve"/>
      <point x="84" y="243"/>
      <point x="61" y="265"/>
      <point x="54" y="294" type="curve" smooth="yes"/>
      <point x="53" y="300"/>
      <point x="53" y="305"/>
      <point x="53" y="309" type="curve" smooth="yes"/>
      <point x="53" y="341"/>
      <point x="69" y="364"/>
    </contour>
    <contour>
      <point x="91" y="136" type="curve" smooth="yes"/>
      <point x="100" y="142"/>
      <point x="113" y="144"/>
      <point x="127" y="144" type="curve" smooth="yes"/>
      <point x="143" y="144"/>
      <point x="160" y="140"/>
      <point x="170" y="134" type="curve" smooth="yes"/>
      <point x="189" y="123"/>
      <point x="198" y="102"/>
      <point x="198" y="80" type="curve" smooth="yes"/>
      <point x="198" y="60"/>
      <point x="191" y="40"/>
      <point x="177" y="25" type="curve" smooth="yes"/>
      <point x="165" y="12"/>
      <point x="147" y="-0"/>
      <point x="122" y="-0" type="curve" smooth="yes"/>
      <point x="121" y="-0"/>
      <point x="119" y="-0"/>
      <point x="118" y="-0" type="curve"/>
      <point x="84" y="3"/>
      <point x="61" y="25"/>
      <point x="54" y="54" type="curve" smooth="yes"/>
      <point x="53" y="60"/>
      <point x="53" y="65"/>
      <point x="53" y="69" type="curve" smooth="yes"/>
      <point x="53" y="101"/>
      <point x="69" y="124"/>
    </contour>
  </outline>
</glyph>
<glyph name="uni003B" format="2">
  <advance width="302"/>
  <unicode hex="003B"/>
  <outline>
    <contour>
      <point x="111" y="370" type="curve" smooth="yes"/>
      <point x="120" y="376"/>
      <point x="133" y="378"/>
      <point x="147" y="378" type="curve" smooth="yes"/>
      <point x="163" y="378"/>
      <point x="180" y="374"/>
      <point x="190" y="368" type="curve" smooth="yes"/>
      <point x="209" y="357"/>
      <point x="218" y="336"/>
      <point x="218" y="314" type="curve" smooth="yes"/>
      <point x="218" y="294"/>
      <point x="211" y="274"/>
      <point x="197" y="259" type="curve" smooth="yes"/>
      <point x="185" y="246"/>
      <point x="167" y="234"/>
      <point x="142" y="234" type="curve" smooth="yes"/>
      <point x="141" y="234"/>
      <point x="139" y="234"/>
      <point x="138" y="234" type="curve"/>
      <point x="104" y="237"/>
      <point x="81" y="259"/>
      <point x="74" y="288" type="curve" smooth="yes"/>
      <point x="73" y="296"/>
      <point x="72" y="302"/>
      <point x="73" y="307" type="curve" smooth="yes"/>
      <point x="73" y="337"/>
      <point x="90" y="359"/>
    </contour>
    <contour>
      <point x="36" y="12" type="curve" smooth="yes"/>
      <point x="30" y="12"/>
      <point x="27" y="17"/>
      <point x="27" y="24" type="curve" smooth="yes"/>
      <point x="27" y="44"/>
      <point x="51" y="62"/>
      <point x="65" y="72" type="curve" smooth="yes"/>
      <point x="97" y="95"/>
      <point x="132" y="111"/>
      <point x="180" y="118" type="curve" smooth="yes"/>
      <point x="187" y="120"/>
      <point x="194" y="120"/>
      <point x="200" y="120" type="curve" smooth="yes"/>
      <point x="243" y="120"/>
      <point x="262" y="96"/>
      <point x="262" y="61" type="curve" smooth="yes"/>
      <point x="262" y="45"/>
      <point x="258" y="27"/>
      <point x="250" y="7" type="curve"/>
      <point x="237" y="-29"/>
      <point x="197" y="-65"/>
      <point x="166" y="-88" type="curve" smooth="yes"/>
      <point x="138" y="-109"/>
      <point x="97" y="-138"/>
      <point x="59" y="-142" type="curve"/>
      <point x="58" y="-142"/>
      <point x="58" y="-142"/>
      <point x="57" y="-142" type="curve" smooth="yes"/>
      <point x="43" y="-142"/>
      <point x="37" y="-134"/>
      <point x="37" y="-126" type="curve" smooth="yes"/>
      <point x="37" y="-119"/>
      <point x="41" y="-111"/>
      <point x="48" y="-106" type="curve" smooth="yes"/>
      <point x="75" y="-87"/>
      <point x="104" y="-61"/>
      <point x="124" y="-33" type="curve" smooth="yes"/>
      <point x="131" y="-23"/>
      <point x="141" y="-1"/>
      <point x="141" y="17" type="curve" smooth="yes"/>
      <point x="141" y="29"/>
      <point x="137" y="39"/>
      <point x="126" y="44" type="curve" smooth="yes"/>
      <point x="123" y="45"/>
      <point x="118" y="46"/>
      <point x="114" y="46" type="curve" smooth="yes"/>
      <point x="107" y="46"/>
      <point x="100" y="44"/>
      <point x="95" y="40" type="curve" smooth="yes"/>
      <point x="84" y="32"/>
      <point x="58" y="14"/>
      <point x="44" y="12" type="curve" smooth="yes"/>
      <point x="41" y="12"/>
      <point x="41" y="12"/>
    </contour>
  </outline>
</glyph>
<glyph name="uni003C" format="2">
  <advance width="690"/>
  <unicode hex="003C"/>
  <outline>
    <contour>
      <point x="45" y="258" type="line"/>
      <point x="615" y="492" type="line"/>
      <point x="645" y="417" type="line"/>
      <point x="129" y="203" type="line"/>
      <point x="645" y="-11" type="line"/>
      <point x="615" y="-86" type="line"/>
      <point x="45" y="148" type="line"/>
    </contour>
  </outline>
</glyph>
<glyph name="uni003D" format="2">
  <advance width="394"/>
  <unicode hex="003D"/>
  <outline>
    <contour>
      <point x="358" y="150" type="curve" smooth="yes"/>
      <point x="367" y="150"/>
      <point x="370" y="141"/>
      <point x="370" y="130" type="curve" smooth="yes"/>
      <point x="370" y="118"/>
      <point x="366" y="105"/>
      <point x="360" y="102" type="curve" smooth="yes"/>
      <point x="354" y="100"/>
      <point x="350" y="99"/>
      <point x="347" y="99" type="curve" smooth="yes"/>
      <point x="327" y="99"/>
      <point x="301" y="102"/>
      <point x="274" y="102" type="curve" smooth="yes"/>
      <point x="245" y="103"/>
      <point x="212" y="104"/>
      <point x="180" y="104" type="curve" smooth="yes"/>
      <point x="164" y="104"/>
      <point x="148" y="103"/>
      <point x="133" y="103" type="curve" smooth="yes"/>
      <point x="109" y="102"/>
      <point x="89" y="101"/>
      <point x="70" y="101" type="curve" smooth="yes"/>
      <point x="52" y="101"/>
      <point x="35" y="102"/>
      <point x="16" y="104" type="curve" smooth="yes"/>
      <point x="9" y="105"/>
      <point x="7" y="110"/>
      <point x="7" y="116" type="curve" smooth="yes"/>
      <point x="7" y="126"/>
      <point x="12" y="140"/>
      <point x="15" y="146" type="curve" smooth="yes"/>
      <point x="17" y="151"/>
      <point x="22" y="153"/>
      <point x="29" y="154" type="curve" smooth="yes"/>
      <point x="78" y="154" type="line" smooth="yes"/>
      <point x="119" y="154"/>
      <point x="167" y="151"/>
      <point x="205" y="151" type="curve" smooth="yes"/>
      <point x="216" y="150"/>
      <point x="228" y="150"/>
      <point x="240" y="150" type="curve" smooth="yes"/>
      <point x="266" y="150"/>
      <point x="294" y="151"/>
      <point x="319" y="151" type="curve" smooth="yes"/>
      <point x="332" y="151"/>
      <point x="343" y="151"/>
      <point x="352" y="150" type="curve" smooth="yes"/>
      <point x="355" y="150"/>
      <point x="355" y="150"/>
    </contour>
    <contour>
      <point x="358" y="280" type="curve" smooth="yes"/>
      <point x="367" y="280"/>
      <point x="370" y="271"/>
      <point x="370" y="260" type="curve" smooth="yes"/>
      <point x="370" y="248"/>
      <point x="366" y="235"/>
      <point x="360" y="232" type="curve" smooth="yes"/>
      <point x="354" y="230"/>
      <point x="350" y="229"/>
      <point x="347" y="229" type="curve" smooth="yes"/>
      <point x="327" y="229"/>
      <point x="301" y="232"/>
      <point x="274" y="232" type="curve" smooth="yes"/>
      <point x="245" y="233"/>
      <point x="212" y="234"/>
      <point x="180" y="234" type="curve" smooth="yes"/>
      <point x="164" y="234"/>
      <point x="148" y="233"/>
      <point x="133" y="233" type="curve" smooth="yes"/>
      <point x="109" y="232"/>
      <point x="89" y="231"/>
      <point x="70" y="231" type="curve" smooth="yes"/>
      <point x="52" y="231"/>
      <point x="35" y="232"/>
      <point x="16" y="234" type="curve" smooth="yes"/>
      <point x="9" y="235"/>
      <point x="7" y="240"/>
      <point x="7" y="246" type="curve" smooth="yes"/>
      <point x="7" y="256"/>
      <point x="12" y="270"/>
      <point x="15" y="276" type="curve" smooth="yes"/>
      <point x="17" y="281"/>
      <point x="22" y="283"/>
      <point x="29" y="284" type="curve" smooth="yes"/>
      <point x="78" y="284" type="line" smooth="yes"/>
      <point x="119" y="284"/>
      <point x="167" y="281"/>
      <point x="205" y="281" type="curve" smooth="yes"/>
      <point x="216" y="280"/>
      <point x="228" y="280"/>
      <point x="240" y="280" type="curve" smooth="yes"/>
      <point x="266" y="280"/>
      <point x="294" y="281"/>
      <point x="319" y="281" type="curve" smooth="yes"/>
      <point x="332" y="281"/>
      <point x="343" y="281"/>
      <point x="352" y="280" type="curve" smooth="yes"/>
      <point x="355" y="280"/>
      <point x="355" y="280"/>
    </contour>
  </outline>
</glyph>
<glyph name="uni003E" format="2">
  <advance width="690"/>
  <unicode hex="003E"/>
  <outline>
    <contour>
      <point x="645" y="138" type="line"/>
      <point x="75" y="-96" type="line"/>
      <point x="45" y="-21" type="line"/>
      <point x="561" y="193" type="line"/>
      <point x="45" y="407" type="line"/>
      <point x="75" y="482" type="line"/>
      <point x="645" y="248" type="line"/>
    </contour>
  </outline>
</glyph>
<glyph name="uni003F" format="2">
  <advance width="558"/>
  <unicode hex="003F"/>
  <outline>
    <contour>
      <point x="85" y="652" type="curve" smooth="yes"/>
      <point x="85" y="710"/>
      <point x="199" y="726"/>
      <point x="271" y="726" type="curve" smooth="yes"/>
      <point x="321" y="726"/>
      <point x="369" y="700"/>
      <point x="414" y="648" type="curve" smooth="yes"/>
      <point x="457" y="597"/>
      <point x="479" y="546"/>
      <point x="479" y="495" type="curve" smooth="yes"/>
      <point x="479" y="438"/>
      <point x="464" y="394"/>
      <point x="434" y="362" type="curve" smooth="yes"/>
      <point x="367" y="290" type="line" smooth="yes"/>
      <point x="359" y="281"/>
      <point x="351" y="272"/>
      <point x="344" y="263" type="curve"/>
      <point x="331" y="251"/>
      <point x="317" y="245"/>
      <point x="302" y="245" type="curve" smooth="yes"/>
      <point x="270" y="245"/>
      <point x="241" y="291"/>
      <point x="241" y="323" type="curve" smooth="yes"/>
      <point x="241" y="352"/>
      <point x="265" y="389"/>
      <point x="312" y="434" type="curve" smooth="yes"/>
      <point x="360" y="479"/>
      <point x="384" y="515"/>
      <point x="384" y="541" type="curve" smooth="yes"/>
      <point x="384" y="590"/>
      <point x="350" y="628"/>
      <point x="300" y="628" type="curve" smooth="yes"/>
      <point x="275" y="628"/>
      <point x="254" y="620"/>
      <point x="237" y="603" type="curve" smooth="yes"/>
      <point x="233" y="599"/>
      <point x="221" y="583"/>
      <point x="201" y="555" type="curve" smooth="yes"/>
      <point x="189" y="538"/>
      <point x="177" y="530"/>
      <point x="165" y="530" type="curve" smooth="yes"/>
      <point x="138" y="530"/>
      <point x="121" y="534"/>
      <point x="115" y="543" type="curve" smooth="yes"/>
      <point x="105" y="559"/>
      <point x="85" y="623"/>
    </contour>
    <contour>
      <point x="371" y="74" type="curve" smooth="yes"/>
      <point x="371" y="25"/>
      <point x="344" y="0"/>
      <point x="291" y="0" type="curve" smooth="yes"/>
      <point x="239" y="0"/>
      <point x="213" y="25"/>
      <point x="213" y="74" type="curve" smooth="yes"/>
      <point x="213" y="125"/>
      <point x="240" y="150"/>
      <point x="294" y="150" type="curve" smooth="yes"/>
      <point x="345" y="150"/>
      <point x="371" y="125"/>
    </contour>
  </outline>
</glyph>
<glyph name="uni0040" format="2">
  <advance width="856"/>
  <unicode hex="0040"/>
  <outline>
    <contour>
      <point x="570" y="288" type="curve" smooth="yes"/>
      <point x="570" y="326"/>
      <point x="542" y="352"/>
      <point x="506" y="352" type="curve" smooth="yes"/>
      <point x="488" y="352"/>
      <point x="446" y="342"/>
      <point x="416" y="312" type="curve" smooth="yes"/>
      <point x="364" y="260"/>
      <point x="348" y="196"/>
      <point x="348" y="134" type="curve" smooth="yes"/>
      <point x="348" y="86"/>
      <point x="362" y="42"/>
      <point x="426" y="42" type="curve" smooth="yes"/>
      <point x="460" y="42"/>
      <point x="510" y="100"/>
      <point x="540" y="172" type="curve" smooth="yes"/>
      <point x="554" y="204"/>
      <point x="570" y="254"/>
    </contour>
    <contour>
      <point x="584" y="46" type="curve" smooth="yes"/>
      <point x="584" y="36"/>
      <point x="594" y="34"/>
      <point x="596" y="34" type="curve" smooth="yes"/>
      <point x="698" y="34"/>
      <point x="760" y="82"/>
      <point x="760" y="248" type="curve" smooth="yes"/>
      <point x="760" y="454"/>
      <point x="586" y="552"/>
      <point x="460" y="552" type="curve" smooth="yes"/>
      <point x="308" y="552"/>
      <point x="140" y="450"/>
      <point x="140" y="214" type="curve" smooth="yes"/>
      <point x="140" y="64"/>
      <point x="216" y="-152"/>
      <point x="474" y="-152" type="curve" smooth="yes"/>
      <point x="560" y="-152"/>
      <point x="622" y="-130"/>
      <point x="676" y="-86" type="curve"/>
      <point x="688" y="-104" type="line"/>
      <point x="628" y="-150"/>
      <point x="568" y="-186"/>
      <point x="456" y="-186" type="curve" smooth="yes"/>
      <point x="216" y="-186"/>
      <point x="60" y="-18"/>
      <point x="60" y="196" type="curve" smooth="yes"/>
      <point x="60" y="410"/>
      <point x="246" y="584"/>
      <point x="470" y="584" type="curve" smooth="yes"/>
      <point x="686" y="584"/>
      <point x="840" y="442"/>
      <point x="840" y="254" type="curve" smooth="yes"/>
      <point x="840" y="140"/>
      <point x="770" y="0"/>
      <point x="552" y="0" type="curve" smooth="yes"/>
      <point x="524" y="0"/>
      <point x="516" y="24"/>
      <point x="516" y="40" type="curve" smooth="yes"/>
      <point x="516" y="56"/>
      <point x="524" y="78"/>
      <point x="532" y="104" type="curve"/>
      <point x="530" y="104" type="line"/>
      <point x="486" y="30"/>
      <point x="432" y="2"/>
      <point x="396" y="2" type="curve" smooth="yes"/>
      <point x="296" y="2"/>
      <point x="274" y="86"/>
      <point x="274" y="126" type="curve" smooth="yes"/>
      <point x="274" y="268"/>
      <point x="402" y="382"/>
      <point x="508" y="382" type="curve" smooth="yes"/>
      <point x="540" y="382"/>
      <point x="574" y="366"/>
      <point x="584" y="340" type="curve"/>
      <point x="590" y="364" type="line"/>
      <point x="642" y="376" type="line"/>
      <point x="658" y="372" type="line"/>
      <point x="598" y="114" type="line" smooth="yes"/>
      <point x="592" y="86"/>
      <point x="584" y="53"/>
    </contour>
  </outline>
</glyph>
<glyph name="uni005B" format="2">
  <advance width="310"/>
  <unicode hex="005B"/>
  <outline>
    <contour>
      <point x="260" y="-136" type="curve" smooth="yes"/>
      <point x="260" y="-149"/>
      <point x="250" y="-150"/>
      <point x="230" y="-151" type="curve" smooth="yes"/>
      <point x="202" y="-153"/>
      <point x="166" y="-153"/>
      <point x="132" y="-153" type="curve" smooth="yes"/>
      <point x="97" y="-153"/>
      <point x="61" y="-152"/>
      <point x="32" y="-147" type="curve" smooth="yes"/>
      <point x="7" y="-143"/>
      <point x="2" y="-140"/>
      <point x="0" y="-116" type="curve" smooth="yes"/>
      <point x="0" y="-113"/>
      <point x="0" y="-110"/>
      <point x="0" y="-107" type="curve" smooth="yes"/>
      <point x="0" y="-100"/>
      <point x="0" y="-92"/>
      <point x="0" y="-83" type="curve" smooth="yes"/>
      <point x="0" y="10"/>
      <point x="5" y="96"/>
      <point x="8" y="200" type="curve" smooth="yes"/>
      <point x="13" y="339"/>
      <point x="15" y="453"/>
      <point x="15" y="567" type="curve" smooth="yes"/>
      <point x="15" y="609"/>
      <point x="15" y="650"/>
      <point x="14" y="692" type="curve" smooth="yes"/>
      <point x="13" y="742"/>
      <point x="13" y="777"/>
      <point x="13" y="800" type="curve" smooth="yes"/>
      <point x="13" y="823"/>
      <point x="15" y="837"/>
      <point x="18" y="842" type="curve" smooth="yes"/>
      <point x="25" y="852"/>
      <point x="61" y="853"/>
      <point x="81" y="855" type="curve" smooth="yes"/>
      <point x="109" y="857"/>
      <point x="142" y="859"/>
      <point x="173" y="859" type="curve" smooth="yes"/>
      <point x="195" y="859"/>
      <point x="216" y="858"/>
      <point x="235" y="856" type="curve" smooth="yes"/>
      <point x="258" y="855"/>
      <point x="270" y="853"/>
      <point x="270" y="833" type="curve" smooth="yes"/>
      <point x="270" y="815"/>
      <point x="261" y="812"/>
      <point x="239" y="812" type="curve" smooth="yes"/>
      <point x="228" y="811"/>
      <point x="216" y="811"/>
      <point x="202" y="811" type="curve" smooth="yes"/>
      <point x="198" y="811"/>
      <point x="193" y="811"/>
      <point x="188" y="811" type="curve" smooth="yes"/>
      <point x="171" y="811"/>
      <point x="151" y="810"/>
      <point x="143" y="804" type="curve" smooth="yes"/>
      <point x="140" y="802"/>
      <point x="139" y="790"/>
      <point x="138" y="765" type="curve" smooth="yes"/>
      <point x="138" y="750"/>
      <point x="138" y="731"/>
      <point x="138" y="715" type="curve" smooth="yes"/>
      <point x="138" y="662"/>
      <point x="139" y="604"/>
      <point x="139" y="549" type="curve" smooth="yes"/>
      <point x="139" y="377"/>
      <point x="124" y="204"/>
      <point x="124" y="34" type="curve" smooth="yes"/>
      <point x="124" y="6"/>
      <point x="125" y="-20"/>
      <point x="126" y="-48" type="curve" smooth="yes"/>
      <point x="126" y="-78"/>
      <point x="129" y="-97"/>
      <point x="133" y="-101" type="curve" smooth="yes"/>
      <point x="140" y="-108"/>
      <point x="157" y="-109"/>
      <point x="174" y="-109" type="curve" smooth="yes"/>
      <point x="181" y="-109"/>
      <point x="188" y="-109"/>
      <point x="194" y="-108" type="curve" smooth="yes"/>
      <point x="202" y="-108"/>
      <point x="217" y="-107"/>
      <point x="229" y="-107" type="curve" smooth="yes"/>
      <point x="238" y="-107"/>
      <point x="247" y="-108"/>
      <point x="250" y="-111" type="curve" smooth="yes"/>
      <point x="256" y="-117"/>
      <point x="260" y="-125"/>
    </contour>
  </outline>
</glyph>
<glyph name="uni005D" format="2">
  <advance width="323"/>
  <unicode hex="005D"/>
  <outline>
    <contour>
      <point x="94" y="811" type="curve" smooth="yes"/>
      <point x="85" y="811"/>
      <point x="75" y="810"/>
      <point x="66" y="810" type="curve" smooth="yes"/>
      <point x="45" y="810"/>
      <point x="27" y="813"/>
      <point x="27" y="831" type="curve" smooth="yes"/>
      <point x="27" y="853"/>
      <point x="40" y="855"/>
      <point x="64" y="856" type="curve" smooth="yes"/>
      <point x="85" y="858"/>
      <point x="109" y="859"/>
      <point x="134" y="859" type="curve" smooth="yes"/>
      <point x="178" y="859"/>
      <point x="224" y="856"/>
      <point x="259" y="850" type="curve" smooth="yes"/>
      <point x="270" y="848"/>
      <point x="277" y="845"/>
      <point x="279" y="842" type="curve" smooth="yes"/>
      <point x="282" y="838"/>
      <point x="283" y="827"/>
      <point x="283" y="811" type="curve" smooth="yes"/>
      <point x="283" y="807"/>
      <point x="283" y="804"/>
      <point x="283" y="800" type="curve" smooth="yes"/>
      <point x="280" y="707"/>
      <point x="275" y="619"/>
      <point x="271" y="500" type="curve" smooth="yes"/>
      <point x="268" y="420"/>
      <point x="267" y="320"/>
      <point x="267" y="200" type="curve" smooth="yes"/>
      <point x="267" y="121"/>
      <point x="267" y="121"/>
      <point x="267" y="66" type="curve" smooth="yes"/>
      <point x="267" y="9"/>
      <point x="267" y="-37"/>
      <point x="266" y="-83" type="curve" smooth="yes"/>
      <point x="265" y="-107"/>
      <point x="266" y="-128"/>
      <point x="255" y="-139" type="curve" smooth="yes"/>
      <point x="245" y="-149"/>
      <point x="209" y="-150"/>
      <point x="186" y="-152" type="curve" smooth="yes"/>
      <point x="168" y="-152"/>
      <point x="149" y="-153"/>
      <point x="130" y="-153" type="curve" smooth="yes"/>
      <point x="96" y="-153"/>
      <point x="61" y="-153"/>
      <point x="32" y="-151" type="curve" smooth="yes"/>
      <point x="14" y="-150"/>
      <point x="4" y="-150"/>
      <point x="4" y="-136" type="curve" smooth="yes"/>
      <point x="4" y="-125"/>
      <point x="8" y="-117"/>
      <point x="14" y="-111" type="curve" smooth="yes"/>
      <point x="17" y="-109"/>
      <point x="24" y="-108"/>
      <point x="35" y="-108" type="curve" smooth="yes"/>
      <point x="49" y="-108"/>
      <point x="70" y="-110"/>
      <point x="89" y="-110" type="curve" smooth="yes"/>
      <point x="107" y="-110"/>
      <point x="124" y="-108"/>
      <point x="131" y="-101" type="curve" smooth="yes"/>
      <point x="135" y="-97"/>
      <point x="138" y="-78"/>
      <point x="141" y="-48" type="curve" smooth="yes"/>
      <point x="148" y="30"/>
      <point x="148" y="124"/>
      <point x="148" y="219" type="curve" smooth="yes"/>
      <point x="148" y="234" type="line" smooth="yes"/>
      <point x="148" y="275"/>
      <point x="148" y="318"/>
      <point x="148" y="361" type="curve" smooth="yes"/>
      <point x="148" y="382"/>
      <point x="148" y="404"/>
      <point x="148" y="426" type="curve" smooth="yes"/>
      <point x="148" y="507"/>
      <point x="149" y="593"/>
      <point x="153" y="670" type="curve" smooth="yes"/>
      <point x="155" y="709"/>
      <point x="156" y="748"/>
      <point x="156" y="784" type="curve" smooth="yes"/>
      <point x="156" y="809"/>
      <point x="153" y="809"/>
      <point x="130" y="810" type="curve" smooth="yes"/>
      <point x="119" y="811"/>
      <point x="106" y="811"/>
    </contour>
  </outline>
</glyph>
<glyph name="uni005E" format="2">
  <advance width="427"/>
  <unicode hex="005E"/>
  <outline>
    <contour>
      <point x="220" y="744" type="line"/>
      <point x="118" y="497" type="line"/>
      <point x="74" y="497" type="line"/>
      <point x="200" y="801" type="line"/>
      <point x="242" y="801" type="line"/>
      <point x="368" y="497" type="line"/>
      <point x="324" y="497" type="line"/>
    </contour>
  </outline>
</glyph>
<glyph name="uni005F" format="2">
  <advance width="394"/>
  <unicode hex="005F"/>
  <outline>
    <contour>
      <point x="358" y="48" type="curve" smooth="yes"/>
      <point x="367" y="48"/>
      <point x="370" y="39"/>
      <point x="370" y="28" type="curve" smooth="yes"/>
      <point x="370" y="16"/>
      <point x="366" y="4"/>
      <point x="360" y="1" type="curve" smooth="yes"/>
      <point x="354" y="-1"/>
      <point x="350" y="-3"/>
      <point x="347" y="-3" type="curve" smooth="yes"/>
      <point x="327" y="-3"/>
      <point x="301" y="0"/>
      <point x="274" y="0" type="curve" smooth="yes"/>
      <point x="245" y="1"/>
      <point x="212" y="2"/>
      <point x="180" y="2" type="curve" smooth="yes"/>
      <point x="164" y="2"/>
      <point x="148" y="1"/>
      <point x="133" y="1" type="curve" smooth="yes"/>
      <point x="109" y="0"/>
      <point x="89" y="-1"/>
      <point x="70" y="-1" type="curve" smooth="yes"/>
      <point x="52" y="-1"/>
      <point x="35" y="0"/>
      <point x="16" y="2" type="curve" smooth="yes"/>
      <point x="9" y="3"/>
      <point x="7" y="8"/>
      <point x="7" y="14" type="curve" smooth="yes"/>
      <point x="7" y="24"/>
      <point x="12" y="38"/>
      <point x="15" y="44" type="curve" smooth="yes"/>
      <point x="17" y="49"/>
      <point x="22" y="51"/>
      <point x="29" y="52" type="curve" smooth="yes"/>
      <point x="78" y="52" type="line" smooth="yes"/>
      <point x="119" y="52"/>
      <point x="167" y="49"/>
      <point x="205" y="49" type="curve" smooth="yes"/>
      <point x="216" y="48"/>
      <point x="228" y="48"/>
      <point x="240" y="48" type="curve" smooth="yes"/>
      <point x="266" y="48"/>
      <point x="294" y="49"/>
      <point x="319" y="49" type="curve" smooth="yes"/>
      <point x="332" y="49"/>
      <point x="343" y="49"/>
      <point x="352" y="48" type="curve" smooth="yes"/>
      <point x="355" y="48"/>
      <point x="355" y="48"/>
    </contour>
  </outline>
</glyph>
<glyph name="uni0060" format="2">
  <advance width="196"/>
  <unicode hex="0060"/>
  <outline>
    <contour>
      <point x="147" y="472" type="line"/>
      <point x="0" y="681" type="line" smooth="yes"/>
      <point x="-1" y="682"/>
      <point x="1" y="682"/>
      <point x="1" y="683" type="curve" smooth="yes"/>
      <point x="1" y="685"/>
      <point x="2" y="685"/>
      <point x="4" y="685" type="curve" smooth="yes"/>
      <point x="5" y="685"/>
      <point x="6" y="685"/>
      <point x="7" y="685" type="curve" smooth="yes"/>
      <point x="72" y="685" type="line"/>
      <point x="183" y="480" type="line" smooth="yes"/>
      <point x="184" y="479"/>
      <point x="184" y="478"/>
      <point x="184" y="477" type="curve" smooth="yes"/>
      <point x="184" y="474"/>
      <point x="183" y="472"/>
      <point x="180" y="472" type="curve" smooth="yes"/>
    </contour>
  </outline>
</glyph>
<glyph name="uni007B" format="2">
  <advance width="320"/>
  <unicode hex="007B"/>
  <outline>
    <contour>
      <point x="115" y="-69" type="curve" smooth="yes"/>
      <point x="115" y="122"/>
      <point x="84" y="218"/>
      <point x="21" y="218" type="curve" smooth="yes"/>
      <point x="19" y="218"/>
      <point x="17" y="218"/>
      <point x="15" y="218" type="curve"/>
      <point x="15" y="238" type="line"/>
      <point x="17" y="238"/>
      <point x="19" y="238"/>
      <point x="21" y="238" type="curve" smooth="yes"/>
      <point x="84" y="238"/>
      <point x="115" y="334"/>
      <point x="115" y="527" type="curve" smooth="yes"/>
      <point x="115" y="727"/>
      <point x="175" y="827"/>
      <point x="296" y="827" type="curve"/>
      <point x="296" y="807" type="line"/>
      <point x="219" y="807"/>
      <point x="180" y="725"/>
      <point x="180" y="561" type="curve" smooth="yes"/>
      <point x="180" y="521" type="line" smooth="yes"/>
      <point x="180" y="359"/>
      <point x="153" y="262"/>
      <point x="99" y="228" type="curve"/>
      <point x="153" y="187"/>
      <point x="180" y="88"/>
      <point x="180" y="-69" type="curve" smooth="yes"/>
      <point x="180" y="-108" type="line" smooth="yes"/>
      <point x="180" y="-267"/>
      <point x="219" y="-347"/>
      <point x="296" y="-347" type="curve"/>
      <point x="296" y="-367" type="line"/>
      <point x="175" y="-367"/>
      <point x="115" y="-268"/>
    </contour>
  </outline>
</glyph>
<glyph name="uni007D" format="2">
  <advance width="302"/>
  <unicode hex="007D"/>
  <outline>
    <contour>
      <point x="6" y="-373" type="curve"/>
      <point x="6" y="-353" type="line"/>
      <point x="83" y="-353"/>
      <point x="122" y="-273"/>
      <point x="122" y="-114" type="curve" smooth="yes"/>
      <point x="122" y="-75" type="line" smooth="yes"/>
      <point x="122" y="82"/>
      <point x="149" y="181"/>
      <point x="203" y="222" type="curve"/>
      <point x="149" y="256"/>
      <point x="122" y="353"/>
      <point x="122" y="515" type="curve" smooth="yes"/>
      <point x="122" y="555" type="line" smooth="yes"/>
      <point x="122" y="719"/>
      <point x="83" y="801"/>
      <point x="6" y="801" type="curve"/>
      <point x="6" y="821" type="line"/>
      <point x="127" y="821"/>
      <point x="187" y="721"/>
      <point x="187" y="521" type="curve" smooth="yes"/>
      <point x="187" y="328"/>
      <point x="218" y="232"/>
      <point x="281" y="232" type="curve" smooth="yes"/>
      <point x="283" y="232"/>
      <point x="285" y="232"/>
      <point x="287" y="232" type="curve"/>
      <point x="287" y="212" type="line"/>
      <point x="285" y="212"/>
      <point x="283" y="212"/>
      <point x="281" y="212" type="curve" smooth="yes"/>
      <point x="218" y="212"/>
      <point x="187" y="116"/>
      <point x="187" y="-75" type="curve" smooth="yes"/>
      <point x="187" y="-274"/>
      <point x="127" y="-373"/>
    </contour>
  </outline>
</glyph>
<glyph name="uni00A4" format="2">
  <advance width="500"/>
  <unicode hex="00A4"/>
  <outline>
    <contour>
      <point x="128" y="187" type="curve" smooth="yes"/>
      <point x="128" y="110"/>
      <point x="176" y="46"/>
      <point x="252" y="46" type="curve" smooth="yes"/>
      <point x="326" y="46"/>
      <point x="374" y="111"/>
      <point x="374" y="186" type="curve" smooth="yes"/>
      <point x="374" y="265"/>
      <point x="318" y="328"/>
      <point x="254" y="328" type="curve" smooth="yes"/>
      <point x="180" y="328"/>
      <point x="128" y="262"/>
    </contour>
    <contour>
      <point x="252" y="1" type="curve" smooth="yes"/>
      <point x="210" y="1"/>
      <point x="172" y="14"/>
      <point x="138" y="39" type="curve"/>
      <point x="92" y="-17" type="line"/>
      <point x="50" y="26" type="line"/>
      <point x="106" y="71" type="line"/>
      <point x="80" y="104"/>
      <point x="64" y="143"/>
      <point x="64" y="186" type="curve" smooth="yes"/>
      <point x="64" y="231"/>
      <point x="80" y="270"/>
      <point x="106" y="302" type="curve"/>
      <point x="52" y="346" type="line"/>
      <point x="90" y="388" type="line"/>
      <point x="138" y="334" type="line"/>
      <point x="174" y="359"/>
      <point x="210" y="371"/>
      <point x="252" y="371" type="curve" smooth="yes"/>
      <point x="294" y="371"/>
      <point x="332" y="358"/>
      <point x="366" y="332" type="curve"/>
      <point x="416" y="390" type="line"/>
      <point x="456" y="347" type="line"/>
      <point x="398" y="300" type="line"/>
      <point x="424" y="268"/>
      <point x="438" y="230"/>
      <point x="438" y="186" type="curve" smooth="yes"/>
      <point x="438" y="144"/>
      <point x="424" y="106"/>
      <point x="400" y="73" type="curve"/>
      <point x="454" y="27" type="line"/>
      <point x="416" y="-13" type="line"/>
      <point x="368" y="40" type="line"/>
      <point x="334" y="14"/>
      <point x="294" y="1"/>
    </contour>
  </outline>
</glyph>
<glyph name="uni00A7" format="2">
  <advance width="500"/>
  <unicode hex="00A7"/>
  <outline>
    <contour>
      <point x="242" y="-107" type="curve"/>
      <point x="286" y="-107"/>
      <point x="320" y="-71"/>
      <point x="320" y="-26" type="curve" smooth="yes"/>
      <point x="320" y="21"/>
      <point x="290" y="60"/>
      <point x="230" y="93" type="curve"/>
      <point x="219" y="97"/>
      <point x="199" y="107"/>
      <point x="170" y="124" type="curve" smooth="yes"/>
      <point x="120" y="154"/>
      <point x="130" y="150"/>
      <point x="98" y="176" type="curve" smooth="yes"/>
      <point x="77" y="194"/>
      <point x="75" y="206"/>
      <point x="61" y="230" type="curve" smooth="yes"/>
      <point x="51" y="247"/>
      <point x="46" y="271"/>
      <point x="46" y="301" type="curve" smooth="yes"/>
      <point x="46" y="359"/>
      <point x="71" y="408"/>
      <point x="121" y="449" type="curve"/>
      <point x="91" y="479"/>
      <point x="76" y="514"/>
      <point x="76" y="554" type="curve" smooth="yes"/>
      <point x="76" y="637"/>
      <point x="143" y="692"/>
      <point x="230" y="692" type="curve" smooth="yes"/>
      <point x="276" y="692"/>
      <point x="311" y="681"/>
      <point x="336" y="659" type="curve" smooth="yes"/>
      <point x="360" y="637"/>
      <point x="372" y="614"/>
      <point x="372" y="590" type="curve" smooth="yes"/>
      <point x="372" y="565"/>
      <point x="360" y="553"/>
      <point x="336" y="553" type="curve" smooth="yes"/>
      <point x="317" y="553"/>
      <point x="303" y="567"/>
      <point x="294" y="594" type="curve"/>
      <point x="283" y="633"/>
      <point x="271" y="661"/>
      <point x="224" y="661" type="curve" smooth="yes"/>
      <point x="180" y="661"/>
      <point x="146" y="625"/>
      <point x="146" y="580" type="curve" smooth="yes"/>
      <point x="146" y="533"/>
      <point x="176" y="494"/>
      <point x="236" y="461" type="curve"/>
      <point x="247" y="457"/>
      <point x="267" y="447"/>
      <point x="296" y="430" type="curve" smooth="yes"/>
      <point x="346" y="400"/>
      <point x="336" y="404"/>
      <point x="368" y="378" type="curve" smooth="yes"/>
      <point x="389" y="360"/>
      <point x="391" y="348"/>
      <point x="405" y="324" type="curve" smooth="yes"/>
      <point x="415" y="307"/>
      <point x="420" y="283"/>
      <point x="420" y="253" type="curve" smooth="yes"/>
      <point x="420" y="195"/>
      <point x="395" y="146"/>
      <point x="345" y="105" type="curve"/>
      <point x="375" y="75"/>
      <point x="390" y="40"/>
      <point x="390" y="0" type="curve" smooth="yes"/>
      <point x="390" y="-83"/>
      <point x="323" y="-138"/>
      <point x="236" y="-138" type="curve" smooth="yes"/>
      <point x="190" y="-138"/>
      <point x="155" y="-127"/>
      <point x="130" y="-105" type="curve" smooth="yes"/>
      <point x="106" y="-83"/>
      <point x="94" y="-60"/>
      <point x="94" y="-36" type="curve" smooth="yes"/>
      <point x="94" y="-11"/>
      <point x="106" y="1"/>
      <point x="130" y="1" type="curve" smooth="yes"/>
      <point x="149" y="1"/>
      <point x="163" y="-13"/>
      <point x="172" y="-40" type="curve"/>
      <point x="183" y="-79"/>
      <point x="195" y="-107"/>
    </contour>
    <contour>
      <point x="324" y="124" type="curve"/>
      <point x="352" y="149"/>
      <point x="366" y="176"/>
      <point x="366" y="205" type="curve" smooth="yes"/>
      <point x="366" y="236"/>
      <point x="356" y="265"/>
      <point x="336" y="293" type="curve" smooth="yes"/>
      <point x="329" y="302"/>
      <point x="317" y="314"/>
      <point x="300" y="327" type="curve" smooth="yes"/>
      <point x="282" y="340"/>
      <point x="270" y="349"/>
      <point x="262" y="353" type="curve" smooth="yes"/>
      <point x="204" y="386"/>
      <point x="164" y="412"/>
      <point x="143" y="430" type="curve"/>
      <point x="114" y="405"/>
      <point x="100" y="378"/>
      <point x="100" y="349" type="curve" smooth="yes"/>
      <point x="100" y="318"/>
      <point x="110" y="289"/>
      <point x="130" y="261" type="curve" smooth="yes"/>
      <point x="137" y="252"/>
      <point x="149" y="240"/>
      <point x="166" y="227" type="curve" smooth="yes"/>
      <point x="184" y="214"/>
      <point x="196" y="205"/>
      <point x="204" y="201" type="curve" smooth="yes"/>
      <point x="261" y="168"/>
      <point x="301" y="143"/>
    </contour>
  </outline>
</glyph>
<glyph name="uni00AB" format="2">
  <advance width="476"/>
  <unicode hex="00AB"/>
  <outline>
    <contour>
      <point x="112" y="187" type="curve"/>
      <point x="150" y="144"/>
      <point x="188" y="96"/>
      <point x="240" y="17" type="curve"/>
      <point x="237" y="7"/>
      <point x="226" y="-2"/>
      <point x="216" y="-2" type="curve"/>
      <point x="136" y="83"/>
      <point x="86" y="132"/>
      <point x="30" y="181" type="curve"/>
      <point x="30" y="193" type="line"/>
      <point x="86" y="242"/>
      <point x="136" y="290"/>
      <point x="216" y="376" type="curve"/>
      <point x="226" y="374"/>
      <point x="237" y="367"/>
      <point x="240" y="357" type="curve"/>
      <point x="188" y="278"/>
      <point x="150" y="229"/>
    </contour>
    <contour>
      <point x="292" y="187" type="curve"/>
      <point x="330" y="144"/>
      <point x="368" y="96"/>
      <point x="420" y="17" type="curve"/>
      <point x="417" y="7"/>
      <point x="406" y="-2"/>
      <point x="396" y="-2" type="curve"/>
      <point x="316" y="83"/>
      <point x="266" y="132"/>
      <point x="210" y="181" type="curve"/>
      <point x="210" y="193" type="line"/>
      <point x="266" y="242"/>
      <point x="316" y="290"/>
      <point x="396" y="376" type="curve"/>
      <point x="406" y="374"/>
      <point x="417" y="367"/>
      <point x="420" y="357" type="curve"/>
      <point x="368" y="278"/>
      <point x="330" y="229"/>
    </contour>
  </outline>
</glyph>
<glyph name="uni00AC" format="2">
  <advance width="575"/>
  <unicode hex="00AC"/>
  <outline>
    <contour>
      <point x="498" y="-1" type="curve"/>
      <point x="498" y="223" type="line"/>
      <point x="39" y="223" type="line"/>
      <point x="36" y="230"/>
      <point x="35" y="237"/>
      <point x="35" y="246" type="curve" smooth="yes"/>
      <point x="35" y="252"/>
      <point x="36" y="259"/>
      <point x="39" y="267" type="curve"/>
      <point x="552" y="267" type="line"/>
      <point x="552" y="-1" type="line"/>
      <point x="543" y="-5"/>
      <point x="533" y="-7"/>
      <point x="523" y="-7" type="curve" smooth="yes"/>
      <point x="515" y="-7"/>
      <point x="506" y="-5"/>
    </contour>
  </outline>
</glyph>
<glyph name="uni00B0" format="2">
  <advance width="400"/>
  <unicode hex="00B0"/>
  <outline>
    <contour>
      <point x="60" y="386" type="curve"/>
      <point x="60" y="466"/>
      <point x="124" y="530"/>
      <point x="203" y="530" type="curve" smooth="yes"/>
      <point x="283" y="530"/>
      <point x="346" y="466"/>
      <point x="346" y="386" type="curve" smooth="yes"/>
      <point x="346" y="306"/>
      <point x="281" y="244"/>
      <point x="201" y="244" type="curve" smooth="yes"/>
      <point x="124" y="244"/>
      <point x="60" y="310"/>
    </contour>
    <contour>
      <point x="307" y="386" type="curve" smooth="yes"/>
      <point x="307" y="444"/>
      <point x="260" y="496"/>
      <point x="203" y="496" type="curve" smooth="yes"/>
      <point x="146" y="496"/>
      <point x="99" y="444"/>
      <point x="99" y="386" type="curve" smooth="yes"/>
      <point x="99" y="330"/>
      <point x="145" y="278"/>
      <point x="202" y="278" type="curve" smooth="yes"/>
      <point x="260" y="278"/>
      <point x="307" y="328"/>
    </contour>
  </outline>
</glyph>
<glyph name="uni00B4" format="2">
  <advance width="192"/>
  <unicode hex="00B4"/>
  <outline>
    <contour>
      <point x="5" y="315" type="line" smooth="yes"/>
      <point x="2" y="315"/>
      <point x="1" y="317"/>
      <point x="1" y="320" type="curve" smooth="yes"/>
      <point x="1" y="321"/>
      <point x="0" y="323"/>
      <point x="1" y="324" type="curve" smooth="yes"/>
      <point x="119" y="537" type="line"/>
      <point x="185" y="537" type="line" smooth="yes"/>
      <point x="188" y="537"/>
      <point x="192" y="534"/>
      <point x="192" y="530" type="curve" smooth="yes"/>
      <point x="192" y="529"/>
      <point x="192" y="528"/>
      <point x="191" y="527" type="curve" smooth="yes"/>
      <point x="38" y="315" type="line"/>
    </contour>
  </outline>
</glyph>
<glyph name="uni00B6" format="2">
  <advance width="512"/>
  <unicode hex="00B6"/>
  <outline>
    <contour>
      <point x="34" y="635" type="curve" smooth="yes"/>
      <point x="34" y="687"/>
      <point x="60" y="737"/>
      <point x="89" y="770" type="curve" smooth="yes"/>
      <point x="124" y="807"/>
      <point x="172" y="834"/>
      <point x="235" y="834" type="curve" smooth="yes"/>
      <point x="315" y="834" type="line"/>
      <point x="315" y="-200" type="line"/>
      <point x="235" y="-200" type="line"/>
      <point x="235" y="429" type="line"/>
      <point x="178" y="429"/>
      <point x="131" y="445"/>
      <point x="96" y="482" type="curve" smooth="yes"/>
      <point x="63" y="517"/>
      <point x="34" y="559"/>
    </contour>
    <contour>
      <point x="396" y="834" type="line"/>
      <point x="477" y="834" type="line"/>
      <point x="477" y="-200" type="line"/>
      <point x="396" y="-200" type="line"/>
    </contour>
  </outline>
</glyph>
<glyph name="uni00B7" format="2">
  <advance width="149"/>
  <unicode hex="00B7"/>
  <outline>
    <contour>
      <point x="13" y="200" type="curve" smooth="yes"/>
      <point x="13" y="236"/>
      <point x="42" y="265"/>
      <point x="78" y="265" type="curve" smooth="yes"/>
      <point x="114" y="265"/>
      <point x="142" y="236"/>
      <point x="142" y="200" type="curve" smooth="yes"/>
      <point x="142" y="164"/>
      <point x="114" y="135"/>
      <point x="78" y="135" type="curve" smooth="yes"/>
      <point x="42" y="135"/>
      <point x="13" y="164"/>
    </contour>
  </outline>
</glyph>
<glyph name="uni00BB" format="2">
  <advance width="510"/>
  <unicode hex="00BB"/>
  <outline>
    <contour>
      <point x="384" y="189" type="curve"/>
      <point x="347" y="231"/>
      <point x="310" y="280"/>
      <point x="258" y="359" type="curve"/>
      <point x="260" y="369"/>
      <point x="271" y="376"/>
      <point x="282" y="378" type="curve"/>
      <point x="361" y="292"/>
      <point x="411" y="244"/>
      <point x="466" y="195" type="curve"/>
      <point x="466" y="183" type="line"/>
      <point x="411" y="134"/>
      <point x="361" y="85"/>
      <point x="282" y="-0" type="curve"/>
      <point x="271" y="-0"/>
      <point x="260" y="9"/>
      <point x="258" y="19" type="curve"/>
      <point x="310" y="98"/>
      <point x="347" y="146"/>
    </contour>
    <contour>
      <point x="204" y="189" type="curve"/>
      <point x="167" y="231"/>
      <point x="130" y="280"/>
      <point x="78" y="359" type="curve"/>
      <point x="80" y="369"/>
      <point x="91" y="376"/>
      <point x="102" y="378" type="curve"/>
      <point x="181" y="292"/>
      <point x="231" y="244"/>
      <point x="286" y="195" type="curve"/>
      <point x="286" y="183" type="line"/>
      <point x="231" y="134"/>
      <point x="181" y="85"/>
      <point x="102" y="-0" type="curve"/>
      <point x="91" y="-0"/>
      <point x="80" y="9"/>
      <point x="78" y="19" type="curve"/>
      <point x="130" y="98"/>
      <point x="167" y="146"/>
    </contour>
  </outline>
</glyph>
<glyph name="uni00C0" format="2">
  <advance width="715"/>
  <unicode hex="00C0"/>
  <outline>
    <contour>
      <point x="263" y="283" type="curve" smooth="yes"/>
      <point x="440" y="283" type="line"/>
      <point x="346" y="555" type="line"/>
      <point x="340" y="555" type="line"/>
      <point x="238" y="296" type="line" smooth="yes"/>
      <point x="237" y="295"/>
      <point x="237" y="293"/>
      <point x="237" y="292" type="curve" smooth="yes"/>
      <point x="237" y="285"/>
      <point x="245" y="283"/>
    </contour>
    <contour>
      <point x="172" y="119" type="line" smooth="yes"/>
      <point x="170" y="113"/>
      <point x="152" y="69"/>
      <point x="152" y="64" type="curve" smooth="yes"/>
      <point x="152" y="37"/>
      <point x="191" y="31"/>
      <point x="224" y="31" type="curve"/>
      <point x="227" y="28"/>
      <point x="228" y="21"/>
      <point x="228" y="14" type="curve" smooth="yes"/>
      <point x="228" y="8"/>
      <point x="227" y="3"/>
      <point x="224" y="0" type="curve"/>
      <point x="7" y="0" type="line"/>
      <point x="4" y="3"/>
      <point x="0" y="8"/>
      <point x="0" y="14" type="curve" smooth="yes"/>
      <point x="0" y="21"/>
      <point x="4" y="28"/>
      <point x="7" y="31" type="curve"/>
      <point x="50" y="31"/>
      <point x="81" y="40"/>
      <point x="107" y="102" type="curve" smooth="yes"/>
      <point x="334" y="638" type="line"/>
      <point x="347" y="638"/>
      <point x="374" y="649"/>
      <point x="389" y="658" type="curve"/>
      <point x="595" y="86" type="line" smooth="yes"/>
      <point x="612" y="38"/>
      <point x="646" y="31"/>
      <point x="685" y="31" type="curve"/>
      <point x="688" y="28"/>
      <point x="690" y="21"/>
      <point x="690" y="14" type="curve" smooth="yes"/>
      <point x="690" y="8"/>
      <point x="688" y="3"/>
      <point x="685" y="0" type="curve"/>
      <point x="440" y="0" type="line"/>
      <point x="437" y="3"/>
      <point x="436" y="8"/>
      <point x="436" y="14" type="curve" smooth="yes"/>
      <point x="436" y="21"/>
      <point x="437" y="28"/>
      <point x="440" y="31" type="curve"/>
      <point x="482" y="31"/>
      <point x="516" y="37"/>
      <point x="516" y="61" type="curve" smooth="yes"/>
      <point x="516" y="64"/>
      <point x="515" y="68"/>
      <point x="514" y="72" type="curve" smooth="yes"/>
      <point x="456" y="241" type="line"/>
      <point x="245" y="241" type="line" smooth="yes"/>
      <point x="221" y="241"/>
      <point x="215" y="237"/>
      <point x="210" y="224" type="curve" smooth="yes"/>
    </contour>
    <contour>
      <point x="284" y="818" type="curve"/>
      <point x="405" y="734" type="line" smooth="yes"/>
      <point x="416" y="726"/>
      <point x="420" y="720"/>
      <point x="420" y="713" type="curve" smooth="yes"/>
      <point x="420" y="705"/>
      <point x="413" y="698"/>
      <point x="405" y="698" type="curve" smooth="yes"/>
      <point x="397" y="698"/>
      <point x="383" y="701"/>
      <point x="362" y="710" type="curve" smooth="yes"/>
      <point x="208" y="773" type="line"/>
      <point x="226" y="791"/>
      <point x="250" y="806"/>
    </contour>
  </outline>
</glyph>
<glyph name="uni00CF" format="2">
  <advance width="296"/>
  <unicode hex="00CF"/>
  <outline>
    <contour>
      <point x="191" y="122" type="line" smooth="yes"/>
      <point x="191" y="39"/>
      <point x="208" y="34"/>
      <point x="278" y="31" type="curve"/>
      <point x="281" y="28"/>
      <point x="282" y="21"/>
      <point x="282" y="14" type="curve" smooth="yes"/>
      <point x="282" y="8"/>
      <point x="281" y="3"/>
      <point x="278" y="0" type="curve"/>
      <point x="263" y="0"/>
      <point x="248" y="0"/>
      <point x="233" y="0" type="curve" smooth="yes"/>
      <point x="202" y="0"/>
      <point x="173" y="0"/>
      <point x="149" y="0" type="curve" smooth="yes"/>
      <point x="125" y="0"/>
      <point x="95" y="0"/>
      <point x="65" y="0" type="curve" smooth="yes"/>
      <point x="49" y="0"/>
      <point x="34" y="0"/>
      <point x="19" y="0" type="curve"/>
      <point x="16" y="3"/>
      <point x="14" y="8"/>
      <point x="14" y="14" type="curve" smooth="yes"/>
      <point x="14" y="21"/>
      <point x="16" y="28"/>
      <point x="19" y="31" type="curve"/>
      <point x="89" y="34"/>
      <point x="106" y="39"/>
      <point x="106" y="122" type="curve" smooth="yes"/>
      <point x="106" y="523" type="line" smooth="yes"/>
      <point x="106" y="606"/>
      <point x="89" y="611"/>
      <point x="19" y="614" type="curve"/>
      <point x="16" y="617"/>
      <point x="14" y="624"/>
      <point x="14" y="630" type="curve" smooth="yes"/>
      <point x="14" y="637"/>
      <point x="16" y="644"/>
      <point x="19" y="647" type="curve"/>
      <point x="66" y="646"/>
      <point x="114" y="645"/>
      <point x="148" y="645" type="curve" smooth="yes"/>
      <point x="186" y="645"/>
      <point x="234" y="646"/>
      <point x="278" y="647" type="curve"/>
      <point x="281" y="644"/>
      <point x="282" y="637"/>
      <point x="282" y="630" type="curve" smooth="yes"/>
      <point x="282" y="624"/>
      <point x="281" y="617"/>
      <point x="278" y="614" type="curve"/>
      <point x="208" y="611"/>
      <point x="191" y="606"/>
      <point x="191" y="523" type="curve" smooth="yes"/>
    </contour>
    <contour>
      <point x="195" y="757" type="curve" smooth="yes"/>
      <point x="195" y="783"/>
      <point x="217" y="805"/>
      <point x="243" y="805" type="curve" smooth="yes"/>
      <point x="269" y="805"/>
      <point x="291" y="783"/>
      <point x="291" y="757" type="curve" smooth="yes"/>
      <point x="291" y="731"/>
      <point x="269" y="709"/>
      <point x="243" y="709" type="curve" smooth="yes"/>
      <point x="217" y="709"/>
      <point x="195" y="731"/>
    </contour>
    <contour>
      <point x="6" y="757" type="curve" smooth="yes"/>
      <point x="6" y="783"/>
      <point x="28" y="805"/>
      <point x="54" y="805" type="curve" smooth="yes"/>
      <point x="80" y="805"/>
      <point x="102" y="783"/>
      <point x="102" y="757" type="curve" smooth="yes"/>
      <point x="102" y="731"/>
      <point x="80" y="709"/>
      <point x="54" y="709" type="curve" smooth="yes"/>
      <point x="28" y="709"/>
      <point x="6" y="731"/>
    </contour>
  </outline>
</glyph>
<glyph name="uni00D4" format="2">
  <advance width="694"/>
  <unicode hex="00D4"/>
  <outline>
    <contour>
      <point x="331" y="622" type="curve" smooth="yes"/>
      <point x="232" y="622"/>
      <point x="133" y="537"/>
      <point x="133" y="327" type="curve" smooth="yes"/>
      <point x="133" y="135"/>
      <point x="248" y="26"/>
      <point x="370" y="26" type="curve" smooth="yes"/>
      <point x="484" y="26"/>
      <point x="570" y="131"/>
      <point x="570" y="310" type="curve" smooth="yes"/>
      <point x="570" y="512"/>
      <point x="463" y="622"/>
    </contour>
    <contour>
      <point x="666" y="329" type="curve" smooth="yes"/>
      <point x="666" y="131"/>
      <point x="541" y="-10"/>
      <point x="350" y="-10" type="curve" smooth="yes"/>
      <point x="180" y="-10"/>
      <point x="37" y="113"/>
      <point x="37" y="310" type="curve" smooth="yes"/>
      <point x="37" y="504"/>
      <point x="150" y="658"/>
      <point x="344" y="658" type="curve" smooth="yes"/>
      <point x="523" y="658"/>
      <point x="666" y="536"/>
    </contour>
    <contour>
      <point x="366" y="808" type="curve"/>
      <point x="396" y="772"/>
      <point x="433" y="738"/>
      <point x="469" y="711" type="curve"/>
      <point x="466" y="702"/>
      <point x="462" y="694"/>
      <point x="453" y="690" type="curve"/>
      <point x="414" y="708"/>
      <point x="380" y="726"/>
      <point x="347" y="751" type="curve"/>
      <point x="310" y="724"/>
      <point x="278" y="707"/>
      <point x="240" y="690" type="curve"/>
      <point x="231" y="696"/>
      <point x="228" y="702"/>
      <point x="226" y="711" type="curve"/>
      <point x="263" y="739"/>
      <point x="296" y="774"/>
      <point x="327" y="808" type="curve"/>
      <point x="334" y="812"/>
      <point x="340" y="814"/>
      <point x="346" y="814" type="curve" smooth="yes"/>
      <point x="352" y="814"/>
      <point x="358" y="812"/>
    </contour>
  </outline>
</glyph>
<glyph name="uni00D6" format="2">
  <advance width="694"/>
  <unicode hex="00D6"/>
  <outline>
    <contour>
      <point x="331" y="622" type="curve" smooth="yes"/>
      <point x="232" y="622"/>
      <point x="133" y="537"/>
      <point x="133" y="327" type="curve" smooth="yes"/>
      <point x="133" y="135"/>
      <point x="248" y="26"/>
      <point x="370" y="26" type="curve" smooth="yes"/>
      <point x="484" y="26"/>
      <point x="570" y="131"/>
      <point x="570" y="310" type="curve" smooth="yes"/>
      <point x="570" y="512"/>
      <point x="463" y="622"/>
    </contour>
    <contour>
      <point x="666" y="329" type="curve" smooth="yes"/>
      <point x="666" y="131"/>
      <point x="541" y="-10"/>
      <point x="350" y="-10" type="curve" smooth="yes"/>
      <point x="180" y="-10"/>
      <point x="37" y="113"/>
      <point x="37" y="310" type="curve" smooth="yes"/>
      <point x="37" y="504"/>
      <point x="150" y="658"/>
      <point x="344" y="658" type="curve" smooth="yes"/>
      <point x="523" y="658"/>
      <point x="666" y="536"/>
    </contour>
    <contour>
      <point x="97" y="706" type="curve" smooth="yes"/>
      <point x="97" y="732"/>
      <point x="119" y="754"/>
      <point x="145" y="754" type="curve" smooth="yes"/>
      <point x="171" y="754"/>
      <point x="193" y="732"/>
      <point x="193" y="706" type="curve" smooth="yes"/>
      <point x="193" y="680"/>
      <point x="171" y="658"/>
      <point x="145" y="658" type="curve" smooth="yes"/>
      <point x="119" y="658"/>
      <point x="97" y="680"/>
    </contour>
    <contour>
      <point x="506" y="706" type="curve" smooth="yes"/>
      <point x="506" y="732"/>
      <point x="528" y="754"/>
      <point x="554" y="754" type="curve" smooth="yes"/>
      <point x="580" y="754"/>
      <point x="602" y="732"/>
      <point x="602" y="706" type="curve" smooth="yes"/>
      <point x="602" y="680"/>
      <point x="580" y="658"/>
      <point x="554" y="658" type="curve" smooth="yes"/>
      <point x="528" y="658"/>
      <point x="506" y="680"/>
    </contour>
  </outline>
</glyph>
<glyph name="uni00F4" format="2">
  <advance width="487"/>
  <unicode hex="00F4"/>
  <outline>
    <contour>
      <point x="467" y="224" type="curve" smooth="yes"/>
      <point x="467" y="102"/>
      <point x="389" y="0"/>
      <point x="255" y="0" type="curve" smooth="yes"/>
      <point x="113" y="0"/>
      <point x="45" y="113"/>
      <point x="45" y="215" type="curve" smooth="yes"/>
      <point x="45" y="345"/>
      <point x="127" y="449"/>
      <point x="257" y="449" type="curve" smooth="yes"/>
      <point x="410" y="449"/>
      <point x="467" y="328"/>
    </contour>
    <contour>
      <point x="242" y="414" type="curve" smooth="yes"/>
      <point x="152" y="414"/>
      <point x="131" y="325"/>
      <point x="131" y="238" type="curve" smooth="yes"/>
      <point x="131" y="161"/>
      <point x="165" y="35"/>
      <point x="269" y="35" type="curve" smooth="yes"/>
      <point x="316" y="35"/>
      <point x="381" y="66"/>
      <point x="381" y="192" type="curve" smooth="yes"/>
      <point x="381" y="336"/>
      <point x="328" y="414"/>
    </contour>
    <contour>
      <point x="268" y="660" type="curve"/>
      <point x="297" y="613"/>
      <point x="341" y="560"/>
      <point x="377" y="520" type="curve"/>
      <point x="372" y="513"/>
      <point x="363" y="505"/>
      <point x="354" y="503" type="curve"/>
      <point x="316" y="527"/>
      <point x="281" y="555"/>
      <point x="251" y="586" type="curve"/>
      <point x="219" y="554"/>
      <point x="186" y="525"/>
      <point x="147" y="503" type="curve"/>
      <point x="138" y="505"/>
      <point x="131" y="511"/>
      <point x="125" y="520" type="curve"/>
      <point x="161" y="560"/>
      <point x="207" y="614"/>
      <point x="236" y="660" type="curve"/>
      <point x="242" y="661"/>
      <point x="247" y="662"/>
      <point x="253" y="662" type="curve" smooth="yes"/>
      <point x="258" y="662"/>
      <point x="263" y="661"/>
    </contour>
  </outline>
</glyph>
<glyph name="uni02BC" format="2">
  <advance width="199"/>
  <unicode hex="02BC"/>
  <outline>
    <contour>
      <point x="125" y="580" type="curve" smooth="yes"/>
      <point x="165" y="580"/>
      <point x="181" y="529"/>
      <point x="181" y="488" type="curve" smooth="yes"/>
      <point x="181" y="398"/>
      <point x="122" y="334"/>
      <point x="65" y="300" type="curve" smooth="yes"/>
      <point x="63" y="299"/>
      <point x="62" y="299"/>
      <point x="60" y="299" type="curve" smooth="yes"/>
      <point x="56" y="299"/>
      <point x="57" y="304"/>
      <point x="61" y="310" type="curve" smooth="yes"/>
      <point x="78" y="332"/>
      <point x="93" y="355"/>
      <point x="106" y="378" type="curve" smooth="yes"/>
      <point x="119" y="401"/>
      <point x="125" y="424"/>
      <point x="125" y="445" type="curve" smooth="yes"/>
      <point x="125" y="469"/>
      <point x="121" y="496"/>
      <point x="91" y="503" type="curve" smooth="yes"/>
      <point x="87" y="504"/>
      <point x="86" y="503"/>
      <point x="81" y="503" type="curve" smooth="yes"/>
      <point x="52" y="503"/>
      <point x="28" y="483"/>
      <point x="15" y="466" type="curve" smooth="yes"/>
      <point x="10" y="460"/>
      <point x="1" y="463"/>
      <point x="7" y="472" type="curve"/>
      <point x="25" y="516"/>
      <point x="61" y="561"/>
      <point x="106" y="577" type="curve" smooth="yes"/>
      <point x="112" y="579"/>
      <point x="119" y="580"/>
    </contour>
  </outline>
</glyph>
<glyph name="uni0300" format="2">
  <advance width="0"/>
  <unicode hex="0300"/>
  <anchor x="-214" y="737.7" name="_Stacking"/>
  <anchor x="-174" y="927" name="Stacking"/>
  <anchor x="-210" y="737" name="_Diacritic"/>
  <outline>
    <contour>
      <point x="-380" y="852" type="curve"/>
      <point x="-384" y="856"/>
      <point x="-386" y="860"/>
      <point x="-386" y="864" type="curve" smooth="yes"/>
      <point x="-386" y="882"/>
      <point x="-343" y="903"/>
      <point x="-312" y="903" type="curve" smooth="yes"/>
      <point x="-306" y="903"/>
      <point x="-301" y="902"/>
      <point x="-297" y="901" type="curve" smooth="yes"/>
      <point x="-258" y="891"/>
      <point x="-221" y="869"/>
      <point x="-185" y="856" type="curve"/>
      <point x="-145" y="843"/>
      <point x="-105" y="820"/>
      <point x="-58" y="820" type="curve" smooth="yes"/>
      <point x="-43" y="820"/>
      <point x="-3" y="818"/>
      <point x="-3" y="803" type="curve" smooth="yes"/>
      <point x="-3" y="783"/>
      <point x="-16" y="761"/>
      <point x="-26" y="750" type="curve"/>
      <point x="-31" y="746"/>
      <point x="-35" y="744"/>
      <point x="-40" y="744" type="curve" smooth="yes"/>
      <point x="-49" y="745"/>
      <point x="-67" y="752"/>
      <point x="-94" y="764" type="curve"/>
      <point x="-133" y="784"/>
      <point x="-195" y="809"/>
      <point x="-248" y="820" type="curve" smooth="yes"/>
      <point x="-283" y="828"/>
      <point x="-318" y="835"/>
      <point x="-350" y="842" type="curve"/>
      <point x="-363" y="846"/>
      <point x="-373" y="849"/>
    </contour>
  </outline>
</glyph>
<glyph name="uni0301" format="2">
  <advance width="0"/>
  <unicode hex="0301"/>
  <anchor x="-11.5" y="974.3" name="Stacking"/>
  <anchor x="-164" y="661" name="_Stacking"/>
  <anchor x="-164.5" y="661.7" name="_Diacritic"/>
  <outline>
    <contour>
      <point x="-21" y="850" type="curve" smooth="yes"/>
      <point x="-56" y="796"/>
      <point x="-88" y="744"/>
      <point x="-128" y="696" type="curve"/>
      <point x="-140" y="684"/>
      <point x="-150" y="667"/>
      <point x="-170" y="667" type="curve" smooth="yes"/>
      <point x="-186" y="667"/>
      <point x="-207" y="679"/>
      <point x="-207" y="697" type="curve" smooth="yes"/>
      <point x="-207" y="700"/>
      <point x="-206" y="703"/>
      <point x="-205" y="706" type="curve"/>
      <point x="-190" y="726"/>
      <point x="-175" y="738"/>
      <point x="-158" y="760" type="curve" smooth="yes"/>
      <point x="-135" y="790"/>
      <point x="-85" y="871"/>
      <point x="-76" y="892" type="curve" smooth="yes"/>
      <point x="-68" y="911"/>
      <point x="-62" y="922"/>
      <point x="-59" y="925" type="curve" smooth="yes"/>
      <point x="-54" y="933"/>
      <point x="-40" y="937"/>
      <point x="-26" y="937" type="curve" smooth="yes"/>
      <point x="-7" y="937"/>
      <point x="13" y="929"/>
      <point x="13" y="913" type="curve" smooth="yes"/>
      <point x="13" y="892"/>
      <point x="-9" y="869"/>
    </contour>
  </outline>
</glyph>
<glyph name="uni0306" format="2">
  <advance width="0"/>
  <unicode hex="0306"/>
  <anchor x="-123.722" y="853.1" name="Stacking"/>
  <anchor x="-229.722" y="625.1" name="_Stacking"/>
  <anchor x="-228" y="628" name="_Diacritic"/>
  <outline>
    <contour>
      <point x="-226" y="638" type="curve" smooth="yes"/>
      <point x="-265" y="638"/>
      <point x="-301" y="656"/>
      <point x="-301" y="690" type="curve" smooth="yes"/>
      <point x="-301" y="694"/>
      <point x="-302" y="699"/>
      <point x="-301" y="704" type="curve" smooth="yes"/>
      <point x="-292" y="740"/>
      <point x="-263" y="773"/>
      <point x="-238" y="796" type="curve" smooth="yes"/>
      <point x="-227" y="806"/>
      <point x="-213" y="816"/>
      <point x="-201" y="822" type="curve" smooth="yes"/>
      <point x="-195" y="825"/>
      <point x="-189" y="827"/>
      <point x="-184" y="827" type="curve" smooth="yes"/>
      <point x="-177" y="827"/>
      <point x="-171" y="823"/>
      <point x="-171" y="811" type="curve"/>
      <point x="-180" y="797"/>
      <point x="-184" y="793"/>
      <point x="-200" y="767" type="curve" smooth="yes"/>
      <point x="-206" y="758"/>
      <point x="-208" y="750"/>
      <point x="-208" y="744" type="curve" smooth="yes"/>
      <point x="-208" y="729"/>
      <point x="-194" y="722"/>
      <point x="-175" y="722" type="curve" smooth="yes"/>
      <point x="-142" y="722"/>
      <point x="-126" y="745"/>
      <point x="-110" y="766" type="curve" smooth="yes"/>
      <point x="-98" y="781"/>
      <point x="-84" y="804"/>
      <point x="-74" y="818" type="curve" smooth="yes"/>
      <point x="-68" y="825"/>
      <point x="-63" y="829"/>
      <point x="-57" y="829" type="curve" smooth="yes"/>
      <point x="-55" y="829"/>
      <point x="-53" y="828"/>
      <point x="-52" y="828" type="curve" smooth="yes"/>
      <point x="-41" y="823"/>
      <point x="-36" y="815"/>
      <point x="-36" y="805" type="curve" smooth="yes"/>
      <point x="-36" y="766"/>
      <point x="-106" y="694"/>
      <point x="-120" y="682" type="curve" smooth="yes"/>
      <point x="-146" y="658"/>
      <point x="-186" y="638"/>
    </contour>
  </outline>
</glyph>
<glyph name="uni0307" format="2">
  <advance width="0"/>
  <unicode hex="0307"/>
  <anchor x="-65.5" y="828.6" name="Stacking"/>
  <anchor x="-71" y="688" name="_Stacking"/>
  <anchor x="-72" y="684" name="_Diacritic"/>
  <outline>
    <contour>
      <point x="-124" y="747" type="curve" smooth="yes"/>
      <point x="-118" y="778"/>
      <point x="-101" y="794"/>
      <point x="-73" y="794" type="curve" smooth="yes"/>
      <point x="-71" y="794"/>
      <point x="-70" y="794"/>
      <point x="-69" y="794" type="curve" smooth="yes"/>
      <point x="-43" y="793"/>
      <point x="-17" y="770"/>
      <point x="-17" y="743" type="curve" smooth="yes"/>
      <point x="-17" y="740"/>
      <point x="-18" y="738"/>
      <point x="-18" y="735" type="curve" smooth="yes"/>
      <point x="-23" y="705"/>
      <point x="-40" y="690"/>
      <point x="-69" y="690" type="curve" smooth="yes"/>
      <point x="-71" y="690"/>
      <point x="-73" y="690"/>
      <point x="-75" y="690" type="curve" smooth="yes"/>
      <point x="-102" y="691"/>
      <point x="-124" y="712"/>
      <point x="-124" y="740" type="curve" smooth="yes"/>
      <point x="-124" y="742"/>
      <point x="-124" y="745"/>
    </contour>
  </outline>
</glyph>
<glyph name="uni0308" format="2">
  <advance width="0"/>
  <unicode hex="0308"/>
  <anchor x="-148.5" y="959.1" name="Stacking"/>
  <anchor x="-156" y="789" name="_Stacking"/>
  <anchor x="-156" y="789" name="_Diacritic"/>
  <outline>
    <contour>
      <point x="-225" y="805" type="curve" smooth="yes"/>
      <point x="-254" y="805"/>
      <point x="-282" y="825"/>
      <point x="-282" y="854" type="curve" smooth="yes"/>
      <point x="-282" y="882"/>
      <point x="-259" y="909"/>
      <point x="-231" y="909" type="curve" smooth="yes"/>
      <point x="-202" y="909"/>
      <point x="-175" y="888"/>
      <point x="-175" y="857" type="curve" smooth="yes"/>
      <point x="-175" y="828"/>
      <point x="-194" y="805"/>
    </contour>
    <contour>
      <point x="-80" y="798" type="curve" smooth="yes"/>
      <point x="-110" y="798"/>
      <point x="-137" y="817"/>
      <point x="-137" y="847" type="curve" smooth="yes"/>
      <point x="-137" y="876"/>
      <point x="-115" y="903"/>
      <point x="-86" y="903" type="curve" smooth="yes"/>
      <point x="-58" y="903"/>
      <point x="-30" y="882"/>
      <point x="-30" y="852" type="curve" smooth="yes"/>
      <point x="-30" y="835"/>
      <point x="-37" y="818"/>
      <point x="-48" y="808" type="curve" smooth="yes"/>
      <point x="-57" y="801"/>
      <point x="-69" y="798"/>
    </contour>
  </outline>
</glyph>
<glyph name="uni030B" format="2">
  <advance width="0"/>
  <unicode hex="030B"/>
  <anchor x="-189.5" y="1041.4" name="Stacking"/>
  <anchor x="-214" y="676" name="_Stacking"/>
  <anchor x="-213" y="675" name="_Diacritic"/>
  <outline>
    <contour>
      <point x="-380" y="878" type="curve"/>
      <point x="-373" y="881"/>
      <point x="-363" y="884"/>
      <point x="-350" y="888" type="curve"/>
      <point x="-318" y="895"/>
      <point x="-283" y="902"/>
      <point x="-248" y="910" type="curve" smooth="yes"/>
      <point x="-195" y="921"/>
      <point x="-133" y="946"/>
      <point x="-94" y="966" type="curve"/>
      <point x="-67" y="978"/>
      <point x="-49" y="985"/>
      <point x="-40" y="986" type="curve" smooth="yes"/>
      <point x="-35" y="986"/>
      <point x="-31" y="984"/>
      <point x="-26" y="980" type="curve"/>
      <point x="-16" y="969"/>
      <point x="-3" y="947"/>
      <point x="-3" y="927" type="curve" smooth="yes"/>
      <point x="-3" y="912"/>
      <point x="-43" y="910"/>
      <point x="-58" y="910" type="curve" smooth="yes"/>
      <point x="-105" y="910"/>
      <point x="-145" y="887"/>
      <point x="-185" y="874" type="curve"/>
      <point x="-221" y="861"/>
      <point x="-258" y="839"/>
      <point x="-297" y="829" type="curve" smooth="yes"/>
      <point x="-301" y="828"/>
      <point x="-306" y="827"/>
      <point x="-312" y="827" type="curve" smooth="yes"/>
      <point x="-343" y="827"/>
      <point x="-386" y="848"/>
      <point x="-386" y="866" type="curve" smooth="yes"/>
      <point x="-386" y="870"/>
      <point x="-384" y="874"/>
    </contour>
    <contour>
      <point x="-283" y="737" type="curve"/>
      <point x="-276" y="740"/>
      <point x="-266" y="743"/>
      <point x="-253" y="747" type="curve"/>
      <point x="-221" y="754"/>
      <point x="-186" y="762"/>
      <point x="-151" y="770" type="curve" smooth="yes"/>
      <point x="-98" y="781"/>
      <point x="-36" y="805"/>
      <point x="3" y="825" type="curve"/>
      <point x="30" y="837"/>
      <point x="48" y="844"/>
      <point x="57" y="845" type="curve" smooth="yes"/>
      <point x="62" y="845"/>
      <point x="66" y="843"/>
      <point x="71" y="839" type="curve"/>
      <point x="81" y="828"/>
      <point x="94" y="806"/>
      <point x="94" y="786" type="curve" smooth="yes"/>
      <point x="94" y="771"/>
      <point x="54" y="770"/>
      <point x="39" y="770" type="curve" smooth="yes"/>
      <point x="-8" y="770"/>
      <point x="-48" y="746"/>
      <point x="-88" y="733" type="curve"/>
      <point x="-124" y="720"/>
      <point x="-161" y="698"/>
      <point x="-200" y="688" type="curve" smooth="yes"/>
      <point x="-204" y="687"/>
      <point x="-209" y="686"/>
      <point x="-215" y="686" type="curve" smooth="yes"/>
      <point x="-246" y="686"/>
      <point x="-289" y="707"/>
      <point x="-289" y="725" type="curve" smooth="yes"/>
      <point x="-289" y="729"/>
      <point x="-287" y="733"/>
    </contour>
  </outline>
</glyph>
<glyph name="uni030F" format="2">
  <advance width="0"/>
  <unicode hex="030F"/>
  <anchor x="-84.5001" y="1031.8" name="Stacking"/>
  <anchor x="-150" y="663" name="_Stacking"/>
  <anchor x="-150" y="663" name="_Diacritic"/>
  <outline>
    <contour>
      <point x="-283" y="911" type="curve"/>
      <point x="-287" y="915"/>
      <point x="-289" y="919"/>
      <point x="-289" y="923" type="curve" smooth="yes"/>
      <point x="-289" y="941"/>
      <point x="-246" y="962"/>
      <point x="-215" y="962" type="curve" smooth="yes"/>
      <point x="-209" y="962"/>
      <point x="-204" y="961"/>
      <point x="-200" y="960" type="curve" smooth="yes"/>
      <point x="-161" y="950"/>
      <point x="-124" y="928"/>
      <point x="-88" y="915" type="curve"/>
      <point x="-48" y="902"/>
      <point x="-8" y="879"/>
      <point x="39" y="879" type="curve" smooth="yes"/>
      <point x="54" y="879"/>
      <point x="94" y="877"/>
      <point x="94" y="862" type="curve" smooth="yes"/>
      <point x="94" y="842"/>
      <point x="81" y="820"/>
      <point x="71" y="809" type="curve"/>
      <point x="66" y="805"/>
      <point x="62" y="803"/>
      <point x="57" y="803" type="curve" smooth="yes"/>
      <point x="48" y="804"/>
      <point x="30" y="811"/>
      <point x="3" y="823" type="curve"/>
      <point x="-36" y="843"/>
      <point x="-98" y="868"/>
      <point x="-151" y="879" type="curve" smooth="yes"/>
      <point x="-186" y="887"/>
      <point x="-221" y="894"/>
      <point x="-253" y="901" type="curve"/>
      <point x="-266" y="905"/>
      <point x="-276" y="908"/>
    </contour>
    <contour>
      <point x="-380" y="770" type="curve"/>
      <point x="-384" y="774"/>
      <point x="-386" y="778"/>
      <point x="-386" y="782" type="curve" smooth="yes"/>
      <point x="-386" y="800"/>
      <point x="-343" y="821"/>
      <point x="-312" y="821" type="curve" smooth="yes"/>
      <point x="-306" y="821"/>
      <point x="-301" y="820"/>
      <point x="-297" y="819" type="curve" smooth="yes"/>
      <point x="-258" y="809"/>
      <point x="-221" y="787"/>
      <point x="-185" y="774" type="curve"/>
      <point x="-145" y="761"/>
      <point x="-105" y="738"/>
      <point x="-58" y="738" type="curve" smooth="yes"/>
      <point x="-43" y="738"/>
      <point x="-3" y="736"/>
      <point x="-3" y="721" type="curve" smooth="yes"/>
      <point x="-3" y="701"/>
      <point x="-16" y="679"/>
      <point x="-26" y="668" type="curve"/>
      <point x="-31" y="664"/>
      <point x="-35" y="662"/>
      <point x="-40" y="662" type="curve" smooth="yes"/>
      <point x="-49" y="663"/>
      <point x="-67" y="670"/>
      <point x="-94" y="682" type="curve"/>
      <point x="-133" y="702"/>
      <point x="-195" y="727"/>
      <point x="-248" y="738" type="curve" smooth="yes"/>
      <point x="-283" y="746"/>
      <point x="-318" y="753"/>
      <point x="-350" y="760" type="curve"/>
      <point x="-363" y="764"/>
      <point x="-373" y="767"/>
    </contour>
  </outline>
</glyph>
<glyph name="uni0311" format="2">
  <advance width="0"/>
  <unicode hex="0311"/>
  <anchor x="-186" y="937.2" name="Stacking"/>
  <anchor x="-192" y="687" name="_Stacking"/>
  <anchor x="-192" y="700" name="_Diacritic"/>
  <outline>
    <contour>
      <point x="-192" y="789" type="curve" smooth="yes"/>
      <point x="-216" y="789"/>
      <point x="-234" y="768"/>
      <point x="-234" y="742" type="curve" smooth="yes"/>
      <point x="-234" y="731"/>
      <point x="-230" y="723"/>
      <point x="-230" y="710" type="curve" smooth="yes"/>
      <point x="-230" y="702"/>
      <point x="-237" y="694"/>
      <point x="-243" y="692" type="curve"/>
      <point x="-261" y="692"/>
      <point x="-278" y="689"/>
      <point x="-295" y="689" type="curve" smooth="yes"/>
      <point x="-298" y="689"/>
      <point x="-301" y="689"/>
      <point x="-304" y="690" type="curve"/>
      <point x="-321" y="690"/>
      <point x="-325" y="691"/>
      <point x="-332" y="702" type="curve"/>
      <point x="-336" y="713"/>
      <point x="-341" y="732"/>
      <point x="-341" y="747" type="curve" smooth="yes"/>
      <point x="-341" y="783"/>
      <point x="-322" y="808"/>
      <point x="-298" y="826" type="curve" smooth="yes"/>
      <point x="-266" y="850"/>
      <point x="-239" y="858"/>
      <point x="-186" y="858" type="curve" smooth="yes"/>
      <point x="-140" y="858"/>
      <point x="-112" y="849"/>
      <point x="-84" y="832" type="curve" smooth="yes"/>
      <point x="-60" y="817"/>
      <point x="-40" y="786"/>
      <point x="-40" y="745" type="curve" smooth="yes"/>
      <point x="-40" y="725"/>
      <point x="-45" y="695"/>
      <point x="-61" y="692" type="curve" smooth="yes"/>
      <point x="-65" y="691"/>
      <point x="-71" y="691"/>
      <point x="-78" y="691" type="curve" smooth="yes"/>
      <point x="-90" y="691"/>
      <point x="-90" y="691"/>
      <point x="-101" y="691" type="curve" smooth="yes"/>
      <point x="-110" y="691"/>
      <point x="-119" y="691"/>
      <point x="-130" y="692" type="curve"/>
      <point x="-137" y="690"/>
      <point x="-143" y="700"/>
      <point x="-145" y="705" type="curve"/>
      <point x="-146" y="712"/>
      <point x="-146" y="720"/>
      <point x="-144" y="728" type="curve" smooth="yes"/>
      <point x="-144" y="730"/>
      <point x="-144" y="733"/>
      <point x="-144" y="736" type="curve" smooth="yes"/>
      <point x="-144" y="769"/>
      <point x="-161" y="789"/>
    </contour>
  </outline>
</glyph>
<glyph name="uni033E" format="2">
  <advance width="0"/>
  <unicode hex="033E"/>
  <anchor x="-41.4445" y="853.9" name="Stacking"/>
  <anchor x="-132" y="547.1" name="_Stacking"/>
  <anchor x="-132" y="547" name="_Yerok"/>
  <outline>
    <contour>
      <point x="-46" y="801" type="curve" smooth="yes"/>
      <point x="-33" y="801"/>
      <point x="-19" y="794"/>
      <point x="-19" y="784" type="curve" smooth="yes"/>
      <point x="-19" y="764"/>
      <point x="-65" y="737"/>
      <point x="-74" y="728" type="curve" smooth="yes"/>
      <point x="-78" y="724"/>
      <point x="-77" y="717"/>
      <point x="-73" y="715" type="curve"/>
      <point x="-57" y="696"/>
      <point x="-44" y="679"/>
      <point x="-30" y="662" type="curve" smooth="yes"/>
      <point x="-23" y="654"/>
      <point x="-19" y="651"/>
      <point x="-19" y="647" type="curve" smooth="yes"/>
      <point x="-19" y="644"/>
      <point x="-21" y="639"/>
      <point x="-22" y="637" type="curve" smooth="yes"/>
      <point x="-50" y="609"/>
      <point x="-73" y="587"/>
      <point x="-103" y="566" type="curve" smooth="yes"/>
      <point x="-112" y="560"/>
      <point x="-126" y="551"/>
      <point x="-136" y="551" type="curve" smooth="yes"/>
      <point x="-144" y="551"/>
      <point x="-149" y="558"/>
      <point x="-149" y="568" type="curve" smooth="yes"/>
      <point x="-149" y="582"/>
      <point x="-135" y="587"/>
      <point x="-125" y="596" type="curve" smooth="yes"/>
      <point x="-118" y="601"/>
      <point x="-107" y="608"/>
      <point x="-102" y="613" type="curve"/>
      <point x="-100" y="617"/>
      <point x="-100" y="620"/>
      <point x="-102" y="623" type="curve" smooth="yes"/>
      <point x="-102" y="624"/>
      <point x="-105" y="627"/>
      <point x="-112" y="631" type="curve" smooth="yes"/>
      <point x="-125" y="640"/>
      <point x="-144" y="653"/>
      <point x="-158" y="662" type="curve" smooth="yes"/>
      <point x="-166" y="667"/>
      <point x="-181" y="675"/>
      <point x="-181" y="686" type="curve" smooth="yes"/>
      <point x="-181" y="688"/>
      <point x="-183" y="690"/>
      <point x="-181" y="693" type="curve" smooth="yes"/>
      <point x="-180" y="695"/>
      <point x="-172" y="701"/>
      <point x="-162" y="712" type="curve" smooth="yes"/>
      <point x="-140" y="734"/>
      <point x="-111" y="760"/>
      <point x="-86" y="780" type="curve" smooth="yes"/>
      <point x="-74" y="790"/>
      <point x="-64" y="796"/>
      <point x="-57" y="799" type="curve" smooth="yes"/>
      <point x="-53" y="800"/>
      <point x="-49" y="801"/>
    </contour>
  </outline>
</glyph>
<glyph name="uni0401" format="2">
  <advance width="517"/>
  <unicode hex="0401"/>
  <anchor x="266" y="888.8" name="Yerok"/>
  <anchor x="264" y="887" name="Diacritic"/>
  <anchor x="266" y="752.5" name="HalfMark"/>
  <outline>
    <contour>
      <point x="462" y="410" type="curve" smooth="yes"/>
      <point x="462" y="389"/>
      <point x="433" y="386"/>
      <point x="386" y="386" type="curve" smooth="yes"/>
      <point x="349" y="386"/>
      <point x="332" y="387"/>
      <point x="332" y="416" type="curve"/>
      <point x="333" y="425"/>
      <point x="334" y="435"/>
      <point x="334" y="446" type="curve" smooth="yes"/>
      <point x="334" y="473"/>
      <point x="329" y="503"/>
      <point x="319" y="531" type="curve" smooth="yes"/>
      <point x="304" y="572"/>
      <point x="284" y="593"/>
      <point x="257" y="593" type="curve" smooth="yes"/>
      <point x="200" y="593"/>
      <point x="172" y="513"/>
      <point x="172" y="354" type="curve" smooth="yes"/>
      <point x="172" y="328"/>
      <point x="174" y="299"/>
      <point x="174" y="268" type="curve" smooth="yes"/>
      <point x="174" y="258"/>
      <point x="178" y="253"/>
      <point x="185" y="253" type="curve"/>
      <point x="182" y="253"/>
      <point x="191" y="258"/>
      <point x="211" y="268" type="curve" smooth="yes"/>
      <point x="242" y="284"/>
      <point x="272" y="292"/>
      <point x="301" y="292" type="curve" smooth="yes"/>
      <point x="354" y="292"/>
      <point x="427" y="262"/>
      <point x="457" y="238" type="curve" smooth="yes"/>
      <point x="477" y="221"/>
      <point x="492" y="191"/>
      <point x="492" y="156" type="curve" smooth="yes"/>
      <point x="492" y="150"/>
      <point x="487" y="145"/>
      <point x="480" y="146" type="curve" smooth="yes"/>
      <point x="471" y="148"/>
      <point x="461" y="148"/>
      <point x="450" y="148" type="curve" smooth="yes"/>
      <point x="420" y="148"/>
      <point x="387" y="143"/>
      <point x="357" y="140" type="curve" smooth="yes"/>
      <point x="344" y="138"/>
      <point x="338" y="143"/>
      <point x="338" y="155" type="curve" smooth="yes"/>
      <point x="338" y="158"/>
      <point x="339" y="162"/>
      <point x="341" y="165" type="curve" smooth="yes"/>
      <point x="344" y="171"/>
      <point x="346" y="180"/>
      <point x="346" y="192" type="curve" smooth="yes"/>
      <point x="346" y="230"/>
      <point x="328" y="249"/>
      <point x="292" y="250" type="curve"/>
      <point x="251" y="250"/>
      <point x="221" y="239"/>
      <point x="200" y="218" type="curve" smooth="yes"/>
      <point x="187" y="205"/>
      <point x="180" y="193"/>
      <point x="180" y="184" type="curve" smooth="yes"/>
      <point x="180" y="99"/>
      <point x="203" y="21"/>
      <point x="220" y="-28" type="curve" smooth="yes"/>
      <point x="239" y="-80"/>
      <point x="260" y="-106"/>
      <point x="283" y="-106" type="curve" smooth="yes"/>
      <point x="286" y="-106"/>
      <point x="288" y="-105"/>
      <point x="290" y="-105" type="curve" smooth="yes"/>
      <point x="307" y="-102"/>
      <point x="321" y="-89"/>
      <point x="333" y="-66" type="curve" smooth="yes"/>
      <point x="343" y="-48"/>
      <point x="348" y="-33"/>
      <point x="348" y="-20" type="curve" smooth="yes"/>
      <point x="348" y="-10"/>
      <point x="343" y="-6"/>
      <point x="343" y="4" type="curve" smooth="yes"/>
      <point x="343" y="28"/>
      <point x="381" y="32"/>
      <point x="457" y="33" type="curve"/>
      <point x="468" y="29"/>
      <point x="472" y="23"/>
      <point x="472" y="15" type="curve" smooth="yes"/>
      <point x="472" y="-2"/>
      <point x="448" y="-25"/>
      <point x="444" y="-31" type="curve"/>
      <point x="438" y="-53"/>
      <point x="425" y="-75"/>
      <point x="404" y="-98" type="curve" smooth="yes"/>
      <point x="371" y="-134"/>
      <point x="333" y="-153"/>
      <point x="281" y="-153" type="curve" smooth="yes"/>
      <point x="222" y="-153"/>
      <point x="167" y="-113"/>
      <point x="117" y="-33" type="curve" smooth="yes"/>
      <point x="57" y="62"/>
      <point x="28" y="158"/>
      <point x="28" y="287" type="curve" smooth="yes"/>
      <point x="28" y="465"/>
      <point x="91" y="603"/>
      <point x="225" y="641" type="curve" smooth="yes"/>
      <point x="240" y="645"/>
      <point x="255" y="647"/>
      <point x="269" y="647" type="curve" smooth="yes"/>
      <point x="326" y="647"/>
      <point x="373" y="614"/>
      <point x="409" y="549" type="curve" smooth="yes"/>
      <point x="424" y="522"/>
      <point x="436" y="489"/>
      <point x="445" y="450" type="curve"/>
      <point x="456" y="435"/>
      <point x="462" y="421"/>
    </contour>
    <contour>
      <point x="299" y="767" type="curve" smooth="yes"/>
      <point x="299" y="803"/>
      <point x="323" y="823"/>
      <point x="351" y="823" type="curve" smooth="yes"/>
      <point x="353" y="823"/>
      <point x="354" y="823"/>
      <point x="355" y="823" type="curve" smooth="yes"/>
      <point x="381" y="821"/>
      <point x="406" y="799"/>
      <point x="406" y="770" type="curve" smooth="yes"/>
      <point x="406" y="768"/>
      <point x="406" y="766"/>
      <point x="406" y="764" type="curve" smooth="yes"/>
      <point x="401" y="733"/>
      <point x="384" y="718"/>
      <point x="355" y="718" type="curve" smooth="yes"/>
      <point x="353" y="718"/>
      <point x="351" y="718"/>
      <point x="349" y="718" type="curve" smooth="yes"/>
      <point x="323" y="720"/>
      <point x="299" y="740"/>
    </contour>
    <contour>
      <point x="120" y="782" type="curve" smooth="yes"/>
      <point x="126" y="813"/>
      <point x="143" y="829"/>
      <point x="171" y="829" type="curve" smooth="yes"/>
      <point x="173" y="829"/>
      <point x="174" y="829"/>
      <point x="175" y="829" type="curve" smooth="yes"/>
      <point x="201" y="828"/>
      <point x="227" y="805"/>
      <point x="227" y="778" type="curve" smooth="yes"/>
      <point x="227" y="775"/>
      <point x="226" y="773"/>
      <point x="226" y="770" type="curve" smooth="yes"/>
      <point x="221" y="740"/>
      <point x="204" y="725"/>
      <point x="175" y="725" type="curve" smooth="yes"/>
      <point x="173" y="725"/>
      <point x="171" y="725"/>
      <point x="169" y="725" type="curve" smooth="yes"/>
      <point x="142" y="726"/>
      <point x="120" y="747"/>
      <point x="120" y="775" type="curve" smooth="yes"/>
      <point x="120" y="777"/>
      <point x="120" y="780"/>
    </contour>
  </outline>
</glyph>
<glyph name="uni0402" format="2">
  <advance width="713"/>
  <unicode hex="0402"/>
  <anchor x="348" y="752.5" name="HalfMark"/>
  <anchor x="589" y="644.9" name="Yerok"/>
  <anchor x="347.5" y="742.7" name="Diacritic"/>
  <outline>
    <contour>
      <point x="222" y="619" type="curve" smooth="yes"/>
      <point x="222" y="637"/>
      <point x="236" y="647"/>
      <point x="250" y="647" type="curve" smooth="yes"/>
      <point x="254" y="647"/>
      <point x="336" y="647"/>
      <point x="340" y="647" type="curve" smooth="yes"/>
      <point x="378" y="647"/>
      <point x="402" y="651"/>
      <point x="432" y="651" type="curve" smooth="yes"/>
      <point x="434" y="651"/>
      <point x="436" y="651"/>
      <point x="438" y="651" type="curve" smooth="yes"/>
      <point x="450" y="651"/>
      <point x="458" y="644"/>
      <point x="460" y="628" type="curve"/>
      <point x="460" y="610"/>
      <point x="452" y="601"/>
      <point x="432" y="601" type="curve"/>
      <point x="412" y="601"/>
      <point x="408" y="592"/>
      <point x="408" y="573" type="curve" smooth="yes"/>
      <point x="408" y="546" type="line" smooth="yes"/>
      <point x="408" y="520"/>
      <point x="414" y="515"/>
      <point x="440" y="515" type="curve" smooth="yes"/>
      <point x="442" y="515"/>
      <point x="444" y="515"/>
      <point x="446" y="515" type="curve" smooth="yes"/>
      <point x="460" y="515"/>
      <point x="508" y="517"/>
      <point x="554" y="517" type="curve"/>
      <point x="584" y="517"/>
      <point x="592" y="519"/>
      <point x="612" y="519" type="curve" smooth="yes"/>
      <point x="630" y="519"/>
      <point x="642" y="519"/>
      <point x="646" y="520" type="curve" smooth="yes"/>
      <point x="648" y="520" type="line" smooth="yes"/>
      <point x="660" y="520"/>
      <point x="666" y="513"/>
      <point x="666" y="502" type="curve" smooth="yes"/>
      <point x="666" y="500"/>
      <point x="666" y="497"/>
      <point x="664" y="494" type="curve" smooth="yes"/>
      <point x="664" y="485"/>
      <point x="646" y="458"/>
      <point x="610" y="413" type="curve"/>
      <point x="598" y="393"/>
      <point x="570" y="348"/>
      <point x="560" y="345" type="curve" smooth="yes"/>
      <point x="548" y="342"/>
      <point x="540" y="346"/>
      <point x="536" y="355" type="curve" smooth="yes"/>
      <point x="534" y="358"/>
      <point x="530" y="381"/>
      <point x="522" y="424" type="curve"/>
      <point x="514" y="464"/>
      <point x="502" y="476"/>
      <point x="466" y="476" type="curve" smooth="yes"/>
      <point x="464" y="476"/>
      <point x="460" y="476"/>
      <point x="456" y="476" type="curve" smooth="yes"/>
      <point x="420" y="476"/>
      <point x="408" y="470"/>
      <point x="408" y="433" type="curve" smooth="yes"/>
      <point x="408" y="310" type="line"/>
      <point x="408" y="285"/>
      <point x="414" y="281"/>
      <point x="428" y="267" type="curve" smooth="yes"/>
      <point x="434" y="259"/>
      <point x="460" y="245"/>
      <point x="502" y="224" type="curve"/>
      <point x="546" y="199"/>
      <point x="584" y="167"/>
      <point x="616" y="126" type="curve"/>
      <point x="648" y="71"/>
      <point x="666" y="-1"/>
      <point x="666" y="-90" type="curve" smooth="yes"/>
      <point x="666" y="-110" type="line" smooth="yes"/>
      <point x="666" y="-171"/>
      <point x="648" y="-226"/>
      <point x="612" y="-273" type="curve"/>
      <point x="592" y="-295"/>
      <point x="560" y="-322"/>
      <point x="536" y="-337" type="curve" smooth="yes"/>
      <point x="524" y="-343"/>
      <point x="516" y="-347"/>
      <point x="510" y="-347" type="curve" smooth="yes"/>
      <point x="510" y="-347"/>
      <point x="510" y="-347"/>
      <point x="508" y="-347" type="curve" smooth="yes"/>
      <point x="506" y="-346"/>
      <point x="504" y="-344"/>
      <point x="504" y="-341" type="curve" smooth="yes"/>
      <point x="504" y="-330"/>
      <point x="518" y="-306"/>
      <point x="520" y="-299" type="curve" smooth="yes"/>
      <point x="528" y="-287"/>
      <point x="536" y="-269"/>
      <point x="538" y="-246" type="curve" smooth="yes"/>
      <point x="538" y="-157" type="line"/>
      <point x="536" y="-66"/>
      <point x="532" y="2"/>
      <point x="524" y="42" type="curve"/>
      <point x="520" y="79"/>
      <point x="514" y="109"/>
      <point x="504" y="131" type="curve"/>
      <point x="496" y="155"/>
      <point x="490" y="166"/>
      <point x="486" y="166" type="curve"/>
      <point x="482" y="177"/>
      <point x="470" y="189"/>
      <point x="454" y="201" type="curve" smooth="yes"/>
      <point x="442" y="211"/>
      <point x="424" y="224"/>
      <point x="414" y="224" type="curve" smooth="yes"/>
      <point x="406" y="224"/>
      <point x="402" y="220"/>
      <point x="402" y="207" type="curve" smooth="yes"/>
      <point x="402" y="59" type="line" smooth="yes"/>
      <point x="402" y="48"/>
      <point x="406" y="-66"/>
      <point x="406" y="-98" type="curve" smooth="yes"/>
      <point x="408" y="-101"/>
      <point x="410" y="-105"/>
      <point x="418" y="-110" type="curve"/>
      <point x="434" y="-117"/>
      <point x="450" y="-116"/>
      <point x="450" y="-135" type="curve" smooth="yes"/>
      <point x="450" y="-136"/>
      <point x="450" y="-138"/>
      <point x="450" y="-140" type="curve" smooth="yes"/>
      <point x="448" y="-149"/>
      <point x="444" y="-153"/>
      <point x="436" y="-153" type="curve" smooth="yes"/>
      <point x="410" y="-156"/>
      <point x="256" y="-160"/>
      <point x="244" y="-160" type="curve" smooth="yes"/>
      <point x="230" y="-160"/>
      <point x="224" y="-158"/>
      <point x="222" y="-157" type="curve" smooth="yes"/>
      <point x="216" y="-152"/>
      <point x="212" y="-147"/>
      <point x="212" y="-140" type="curve" smooth="yes"/>
      <point x="212" y="-126"/>
      <point x="216" y="-124"/>
      <point x="234" y="-120" type="curve" smooth="yes"/>
      <point x="244" y="-117"/>
      <point x="252" y="-114"/>
      <point x="252" y="-109" type="curve" smooth="yes"/>
      <point x="252" y="-109"/>
      <point x="268" y="290"/>
      <point x="268" y="433" type="curve" smooth="yes"/>
      <point x="268" y="464"/>
      <point x="254" y="472"/>
      <point x="222" y="473" type="curve" smooth="yes"/>
      <point x="212" y="474"/>
      <point x="204" y="474"/>
      <point x="196" y="474" type="curve" smooth="yes"/>
      <point x="180" y="474"/>
      <point x="174" y="470"/>
      <point x="158" y="456" type="curve" smooth="yes"/>
      <point x="142" y="441"/>
      <point x="134" y="409"/>
      <point x="134" y="359" type="curve" smooth="yes"/>
      <point x="134" y="346"/>
      <point x="130" y="340"/>
      <point x="120" y="340" type="curve" smooth="yes"/>
      <point x="118" y="340"/>
      <point x="110" y="349"/>
      <point x="96" y="367" type="curve" smooth="yes"/>
      <point x="86" y="379"/>
      <point x="76" y="391"/>
      <point x="66" y="403" type="curve"/>
      <point x="46" y="420"/>
      <point x="22" y="440"/>
      <point x="-0" y="465" type="curve"/>
      <point x="-2" y="470"/>
      <point x="-4" y="476"/>
      <point x="-4" y="481" type="curve" smooth="yes"/>
      <point x="-4" y="499"/>
      <point x="0" y="510"/>
      <point x="22" y="512" type="curve" smooth="yes"/>
      <point x="138" y="512" type="line"/>
      <point x="186" y="511"/>
      <point x="220" y="511"/>
      <point x="236" y="511" type="curve" smooth="yes"/>
      <point x="260" y="512"/>
      <point x="272" y="523"/>
      <point x="272" y="544" type="curve" smooth="yes"/>
      <point x="272" y="579" type="line" smooth="yes"/>
      <point x="272" y="587"/>
      <point x="268" y="592"/>
      <point x="260" y="595" type="curve" smooth="yes"/>
      <point x="258" y="595" type="line" smooth="yes"/>
      <point x="252" y="595"/>
      <point x="242" y="597"/>
      <point x="228" y="601" type="curve"/>
      <point x="224" y="604"/>
      <point x="222" y="612"/>
    </contour>
  </outline>
</glyph>
<glyph name="uni0403" format="2">
  <advance width="528"/>
  <unicode hex="0403"/>
  <anchor x="247" y="1089" name="Yerok"/>
  <anchor x="246" y="1089" name="Diacritic"/>
  <anchor x="229" y="752.5" name="HalfMark"/>
  <outline>
    <contour>
      <point x="67" y="-85" type="curve" smooth="yes"/>
      <point x="71" y="-48"/>
      <point x="73" y="55"/>
      <point x="73" y="222" type="curve" smooth="yes"/>
      <point x="73" y="304"/>
      <point x="81" y="398"/>
      <point x="81" y="505" type="curve" smooth="yes"/>
      <point x="81" y="514"/>
      <point x="83" y="530"/>
      <point x="86" y="554" type="curve" smooth="yes"/>
      <point x="87" y="563"/>
      <point x="81" y="569"/>
      <point x="68" y="572" type="curve"/>
      <point x="63" y="571"/>
      <point x="57" y="571"/>
      <point x="50" y="571" type="curve" smooth="yes"/>
      <point x="40" y="571"/>
      <point x="29" y="572"/>
      <point x="17" y="573" type="curve"/>
      <point x="6" y="579"/>
      <point x="0" y="591"/>
      <point x="0" y="608" type="curve" smooth="yes"/>
      <point x="0" y="622"/>
      <point x="21" y="637"/>
      <point x="34" y="639" type="curve"/>
      <point x="92" y="640"/>
      <point x="160" y="641"/>
      <point x="239" y="642" type="curve"/>
      <point x="324" y="645"/>
      <point x="389" y="650"/>
      <point x="433" y="659" type="curve" smooth="yes"/>
      <point x="438" y="660"/>
      <point x="442" y="660"/>
      <point x="447" y="660" type="curve" smooth="yes"/>
      <point x="464" y="660"/>
      <point x="495" y="648"/>
      <point x="495" y="629" type="curve" smooth="yes"/>
      <point x="495" y="624"/>
      <point x="493" y="619"/>
      <point x="489" y="613" type="curve"/>
      <point x="476" y="605"/>
      <point x="457" y="589"/>
      <point x="432" y="565" type="curve"/>
      <point x="411" y="541"/>
      <point x="394" y="511"/>
      <point x="381" y="476" type="curve" smooth="yes"/>
      <point x="379" y="470"/>
      <point x="375" y="467"/>
      <point x="369" y="467" type="curve" smooth="yes"/>
      <point x="363" y="467"/>
      <point x="356" y="470"/>
      <point x="347" y="477" type="curve" smooth="yes"/>
      <point x="331" y="488"/>
      <point x="326" y="545"/>
      <point x="326" y="571" type="curve" smooth="yes"/>
      <point x="326" y="581"/>
      <point x="315" y="586"/>
      <point x="294" y="586" type="curve" smooth="yes"/>
      <point x="289" y="586"/>
      <point x="284" y="585"/>
      <point x="278" y="585" type="curve" smooth="yes"/>
      <point x="266" y="585"/>
      <point x="251" y="584"/>
      <point x="233" y="582" type="curve"/>
      <point x="223" y="578"/>
      <point x="218" y="571"/>
      <point x="218" y="562" type="curve" smooth="yes"/>
      <point x="218" y="559"/>
      <point x="219" y="557"/>
      <point x="219" y="555" type="curve" smooth="yes"/>
      <point x="217" y="502"/>
      <point x="216" y="406"/>
      <point x="216" y="268" type="curve"/>
      <point x="221" y="125"/>
      <point x="223" y="7"/>
      <point x="223" y="-85" type="curve" smooth="yes"/>
      <point x="223" y="-94"/>
      <point x="229" y="-102"/>
      <point x="242" y="-111" type="curve" smooth="yes"/>
      <point x="258" y="-123"/>
      <point x="264" y="-124"/>
      <point x="264" y="-139" type="curve" smooth="yes"/>
      <point x="264" y="-150"/>
      <point x="258" y="-156"/>
      <point x="247" y="-157" type="curve" smooth="yes"/>
      <point x="246" y="-157"/>
      <point x="243" y="-157"/>
      <point x="239" y="-157" type="curve" smooth="yes"/>
      <point x="225" y="-157"/>
      <point x="194" y="-155"/>
      <point x="146" y="-153" type="curve"/>
      <point x="94" y="-158"/>
      <point x="63" y="-162"/>
      <point x="53" y="-162" type="curve" smooth="yes"/>
      <point x="52" y="-162"/>
      <point x="51" y="-162"/>
      <point x="50" y="-162" type="curve" smooth="yes"/>
      <point x="34" y="-161"/>
      <point x="26" y="-153"/>
      <point x="26" y="-139" type="curve" smooth="yes"/>
      <point x="26" y="-126"/>
      <point x="31" y="-124"/>
      <point x="47" y="-115" type="curve"/>
      <point x="59" y="-107"/>
      <point x="66" y="-98"/>
    </contour>
    <contour>
      <point x="387" y="982" type="curve" smooth="yes"/>
      <point x="407" y="982"/>
      <point x="428" y="980"/>
      <point x="428" y="962" type="curve" smooth="yes"/>
      <point x="428" y="958"/>
      <point x="427" y="953"/>
      <point x="425" y="948" type="curve" smooth="yes"/>
      <point x="420" y="935"/>
      <point x="394" y="895"/>
      <point x="349" y="829" type="curve"/>
      <point x="319" y="787"/>
      <point x="319" y="787"/>
      <point x="309" y="773" type="curve" smooth="yes"/>
      <point x="290" y="748"/>
      <point x="276" y="731"/>
      <point x="265" y="722" type="curve" smooth="yes"/>
      <point x="259" y="717"/>
      <point x="252" y="714"/>
      <point x="243" y="714" type="curve" smooth="yes"/>
      <point x="226" y="714"/>
      <point x="208" y="728"/>
      <point x="208" y="744" type="curve" smooth="yes"/>
      <point x="208" y="747"/>
      <point x="209" y="750"/>
      <point x="210" y="753" type="curve"/>
      <point x="219" y="760"/>
      <point x="245" y="794"/>
      <point x="288" y="853" type="curve"/>
      <point x="308" y="884"/>
      <point x="325" y="913"/>
      <point x="338" y="940" type="curve" smooth="yes"/>
      <point x="349" y="961"/>
      <point x="354" y="971"/>
      <point x="355" y="972" type="curve" smooth="yes"/>
      <point x="360" y="979"/>
      <point x="370" y="982"/>
    </contour>
  </outline>
</glyph>
<glyph name="uni0404" format="2">
  <advance width="517"/>
  <unicode hex="0404"/>
  <anchor x="266" y="752.5" name="HalfMark"/>
  <anchor x="405" y="698.7" name="Yerok"/>
  <anchor x="266" y="751.7" name="Diacritic"/>
  <outline>
    <contour>
      <point x="346" y="190" type="curve" smooth="yes"/>
      <point x="346" y="227"/>
      <point x="329" y="250"/>
      <point x="292" y="250" type="curve" smooth="yes"/>
      <point x="250" y="250"/>
      <point x="219" y="237"/>
      <point x="200" y="218" type="curve" smooth="yes"/>
      <point x="191" y="209"/>
      <point x="180" y="195"/>
      <point x="180" y="183" type="curve"/>
      <point x="187" y="108"/>
      <point x="199" y="30"/>
      <point x="220" y="-27" type="curve" smooth="yes"/>
      <point x="229" y="-54"/>
      <point x="240" y="-74"/>
      <point x="252" y="-88" type="curve" smooth="yes"/>
      <point x="261" y="-100"/>
      <point x="273" y="-105"/>
      <point x="284" y="-105" type="curve" smooth="yes"/>
      <point x="295" y="-105"/>
      <point x="306" y="-100"/>
      <point x="315" y="-91" type="curve" smooth="yes"/>
      <point x="331" y="-75"/>
      <point x="348" y="-48"/>
      <point x="348" y="-20" type="curve" smooth="yes"/>
      <point x="348" y="-9"/>
      <point x="342" y="-7"/>
      <point x="342" y="1" type="curve" smooth="yes"/>
      <point x="342" y="15"/>
      <point x="347" y="20"/>
      <point x="364" y="24" type="curve" smooth="yes"/>
      <point x="392" y="30"/>
      <point x="423" y="33"/>
      <point x="457" y="33" type="curve"/>
      <point x="467" y="30"/>
      <point x="472" y="23"/>
      <point x="472" y="14" type="curve" smooth="yes"/>
      <point x="472" y="6"/>
      <point x="468" y="-3"/>
      <point x="462" y="-9" type="curve" smooth="yes"/>
      <point x="455" y="-15"/>
      <point x="449" y="-22"/>
      <point x="444" y="-31" type="curve"/>
      <point x="431" y="-74"/>
      <point x="398" y="-110"/>
      <point x="359" y="-133" type="curve" smooth="yes"/>
      <point x="338" y="-145"/>
      <point x="311" y="-153"/>
      <point x="283" y="-153" type="curve" smooth="yes"/>
      <point x="265" y="-153"/>
      <point x="247" y="-149"/>
      <point x="230" y="-141" type="curve" smooth="yes"/>
      <point x="155" y="-108"/>
      <point x="107" y="-29"/>
      <point x="75" y="48" type="curve" smooth="yes"/>
      <point x="46" y="117"/>
      <point x="28" y="196"/>
      <point x="28" y="288" type="curve" smooth="yes"/>
      <point x="28" y="412"/>
      <point x="59" y="510"/>
      <point x="120" y="579" type="curve" smooth="yes"/>
      <point x="147" y="608"/>
      <point x="182" y="629"/>
      <point x="225" y="641" type="curve" smooth="yes"/>
      <point x="241" y="645"/>
      <point x="255" y="647"/>
      <point x="269" y="647" type="curve" smooth="yes"/>
      <point x="331" y="647"/>
      <point x="374" y="608"/>
      <point x="400" y="564" type="curve" smooth="yes"/>
      <point x="419" y="532"/>
      <point x="434" y="494"/>
      <point x="445" y="450" type="curve"/>
      <point x="451" y="442"/>
      <point x="462" y="427"/>
      <point x="462" y="413" type="curve" smooth="yes"/>
      <point x="462" y="386"/>
      <point x="428" y="386"/>
      <point x="393" y="386" type="curve" smooth="yes"/>
      <point x="382" y="386"/>
      <point x="373" y="386"/>
      <point x="366" y="386" type="curve" smooth="yes"/>
      <point x="345" y="388"/>
      <point x="331" y="393"/>
      <point x="331" y="409" type="curve" smooth="yes"/>
      <point x="331" y="418"/>
      <point x="333" y="429"/>
      <point x="334" y="446" type="curve"/>
      <point x="334" y="498"/>
      <point x="317" y="552"/>
      <point x="290" y="579" type="curve" smooth="yes"/>
      <point x="280" y="589"/>
      <point x="269" y="593"/>
      <point x="258" y="593" type="curve" smooth="yes"/>
      <point x="237" y="593"/>
      <point x="216" y="579"/>
      <point x="206" y="560" type="curve"/>
      <point x="178" y="513"/>
      <point x="171" y="440"/>
      <point x="171" y="363" type="curve" smooth="yes"/>
      <point x="171" y="331"/>
      <point x="173" y="299"/>
      <point x="174" y="268" type="curve" smooth="yes"/>
      <point x="174" y="259"/>
      <point x="181" y="249"/>
      <point x="190" y="255" type="curve" smooth="yes"/>
      <point x="212" y="271"/>
      <point x="239" y="282"/>
      <point x="279" y="290" type="curve" smooth="yes"/>
      <point x="287" y="292"/>
      <point x="295" y="292"/>
      <point x="303" y="292" type="curve" smooth="yes"/>
      <point x="328" y="292"/>
      <point x="353" y="286"/>
      <point x="374" y="279" type="curve" smooth="yes"/>
      <point x="433" y="261"/>
      <point x="492" y="233"/>
      <point x="492" y="158" type="curve" smooth="yes"/>
      <point x="492" y="148"/>
      <point x="488" y="146"/>
      <point x="480" y="146" type="curve" smooth="yes"/>
      <point x="474" y="146"/>
      <point x="466" y="147"/>
      <point x="456" y="147" type="curve"/>
      <point x="454" y="148"/>
      <point x="452" y="148"/>
      <point x="450" y="148" type="curve" smooth="yes"/>
      <point x="427" y="148"/>
      <point x="407" y="144"/>
      <point x="384" y="143" type="curve" smooth="yes"/>
      <point x="374" y="142"/>
      <point x="364" y="140"/>
      <point x="355" y="140" type="curve" smooth="yes"/>
      <point x="346" y="140"/>
      <point x="338" y="145"/>
      <point x="338" y="154" type="curve" smooth="yes"/>
      <point x="338" y="157"/>
      <point x="339" y="161"/>
      <point x="341" y="165" type="curve" smooth="yes"/>
      <point x="344" y="171"/>
      <point x="346" y="180"/>
    </contour>
  </outline>
</glyph>
<glyph name="uni0405" format="2">
  <advance width="797"/>
  <unicode hex="0405"/>
  <anchor x="394" y="752.5" name="HalfMark"/>
  <anchor x="652.5" y="698.4" name="Yerok"/>
  <anchor x="396" y="787" name="Diacritic"/>
  <outline>
    <contour>
      <point x="45" y="-239" type="curve" smooth="yes"/>
      <point x="35" y="-239"/>
      <point x="31" y="-219"/>
      <point x="31" y="-210" type="curve" smooth="yes"/>
      <point x="31" y="-184"/>
      <point x="49" y="-157"/>
      <point x="64" y="-141" type="curve" smooth="yes"/>
      <point x="104" y="-96"/>
      <point x="165" y="-47"/>
      <point x="228" y="-25" type="curve" smooth="yes"/>
      <point x="281" y="-6"/>
      <point x="341" y="10"/>
      <point x="407" y="10" type="curve" smooth="yes"/>
      <point x="457" y="10"/>
      <point x="491" y="-6"/>
      <point x="522" y="-18" type="curve" smooth="yes"/>
      <point x="529" y="-21"/>
      <point x="535" y="-22"/>
      <point x="538" y="-22" type="curve" smooth="yes"/>
      <point x="545" y="-22"/>
      <point x="547" y="-18"/>
      <point x="550" y="-8" type="curve" smooth="yes"/>
      <point x="558" y="12"/>
      <point x="566" y="55"/>
      <point x="566" y="85" type="curve"/>
      <point x="566" y="96"/>
      <point x="567" y="107"/>
      <point x="567" y="118" type="curve" smooth="yes"/>
      <point x="567" y="150"/>
      <point x="563" y="183"/>
      <point x="551" y="202" type="curve"/>
      <point x="552" y="199"/>
      <point x="552" y="200"/>
      <point x="548" y="204" type="curve" smooth="yes"/>
      <point x="531" y="228"/>
      <point x="501" y="251"/>
      <point x="458" y="251" type="curve" smooth="yes"/>
      <point x="423" y="251"/>
      <point x="393" y="239"/>
      <point x="368" y="230" type="curve" smooth="yes"/>
      <point x="308" y="210"/>
      <point x="247" y="173"/>
      <point x="178" y="173" type="curve" smooth="yes"/>
      <point x="168" y="173"/>
      <point x="158" y="171"/>
      <point x="149" y="171" type="curve" smooth="yes"/>
      <point x="86" y="171"/>
      <point x="47" y="204"/>
      <point x="22" y="249" type="curve" smooth="yes"/>
      <point x="10" y="272"/>
      <point x="0" y="312"/>
      <point x="0" y="349" type="curve" smooth="yes"/>
      <point x="0" y="367"/>
      <point x="3" y="384"/>
      <point x="8" y="399" type="curve" smooth="yes"/>
      <point x="33" y="463"/>
      <point x="79" y="518"/>
      <point x="127" y="558" type="curve" smooth="yes"/>
      <point x="184" y="605"/>
      <point x="261" y="630"/>
      <point x="352" y="643" type="curve"/>
      <point x="374" y="643"/>
      <point x="395" y="647"/>
      <point x="415" y="647" type="curve" smooth="yes"/>
      <point x="474" y="647"/>
      <point x="522" y="633"/>
      <point x="568" y="620" type="curve" smooth="yes"/>
      <point x="603" y="610"/>
      <point x="643" y="607"/>
      <point x="678" y="597" type="curve" smooth="yes"/>
      <point x="699" y="591"/>
      <point x="718" y="586"/>
      <point x="733" y="586" type="curve" smooth="yes"/>
      <point x="747" y="586"/>
      <point x="756" y="578"/>
      <point x="756" y="570" type="curve" smooth="yes"/>
      <point x="756" y="554"/>
      <point x="731" y="547"/>
      <point x="711" y="544" type="curve" smooth="yes"/>
      <point x="680" y="539"/>
      <point x="639" y="530"/>
      <point x="613" y="518" type="curve" smooth="yes"/>
      <point x="595" y="510"/>
      <point x="576" y="500"/>
      <point x="559" y="492" type="curve" smooth="yes"/>
      <point x="553" y="489"/>
      <point x="544" y="485"/>
      <point x="537" y="485" type="curve" smooth="yes"/>
      <point x="533" y="485"/>
      <point x="531" y="486"/>
      <point x="529" y="488" type="curve" smooth="yes"/>
      <point x="526" y="491"/>
      <point x="522" y="497"/>
      <point x="517" y="505" type="curve" smooth="yes"/>
      <point x="497" y="544"/>
      <point x="456" y="565"/>
      <point x="395" y="565" type="curve" smooth="yes"/>
      <point x="390" y="565"/>
      <point x="383" y="564"/>
      <point x="377" y="564" type="curve" smooth="yes"/>
      <point x="273" y="564"/>
      <point x="209" y="520"/>
      <point x="175" y="441" type="curve" smooth="yes"/>
      <point x="165" y="417"/>
      <point x="160" y="394"/>
      <point x="160" y="373" type="curve" smooth="yes"/>
      <point x="160" y="342"/>
      <point x="171" y="316"/>
      <point x="194" y="297" type="curve"/>
      <point x="217" y="280"/>
      <point x="246" y="273"/>
      <point x="277" y="273" type="curve" smooth="yes"/>
      <point x="304" y="273"/>
      <point x="332" y="278"/>
      <point x="359" y="287" type="curve" smooth="yes"/>
      <point x="408" y="303"/>
      <point x="469" y="327"/>
      <point x="533" y="327" type="curve" smooth="yes"/>
      <point x="537" y="327"/>
      <point x="541" y="327"/>
      <point x="545" y="327" type="curve" smooth="yes"/>
      <point x="586" y="327"/>
      <point x="621" y="315"/>
      <point x="648" y="301" type="curve" smooth="yes"/>
      <point x="700" y="276"/>
      <point x="728" y="228"/>
      <point x="728" y="155" type="curve" smooth="yes"/>
      <point x="728" y="148"/>
      <point x="729" y="141"/>
      <point x="729" y="134" type="curve" smooth="yes"/>
      <point x="729" y="82"/>
      <point x="713" y="31"/>
      <point x="698" y="-6" type="curve" smooth="yes"/>
      <point x="684" y="-40"/>
      <point x="678" y="-48"/>
      <point x="653" y="-73" type="curve" smooth="yes"/>
      <point x="630" y="-95"/>
      <point x="600" y="-119"/>
      <point x="569" y="-134" type="curve" smooth="yes"/>
      <point x="558" y="-139"/>
      <point x="548" y="-142"/>
      <point x="538" y="-142" type="curve" smooth="yes"/>
      <point x="535" y="-142"/>
      <point x="532" y="-142"/>
      <point x="529" y="-141" type="curve" smooth="yes"/>
      <point x="473" y="-126"/>
      <point x="395" y="-115"/>
      <point x="326" y="-115" type="curve" smooth="yes"/>
      <point x="322" y="-115"/>
      <point x="318" y="-115"/>
      <point x="314" y="-115" type="curve" smooth="yes"/>
      <point x="261" y="-115"/>
      <point x="219" y="-126"/>
      <point x="182" y="-141" type="curve" smooth="yes"/>
      <point x="137" y="-158"/>
      <point x="118" y="-174"/>
      <point x="85" y="-197" type="curve" smooth="yes"/>
      <point x="72" y="-205"/>
      <point x="63" y="-217"/>
      <point x="58" y="-230" type="curve"/>
      <point x="55" y="-235"/>
      <point x="50" y="-239"/>
    </contour>
  </outline>
</glyph>
<glyph name="uni0406" format="2">
  <advance width="266"/>
  <unicode hex="0406"/>
  <anchor x="129" y="752.5" name="HalfMark"/>
  <anchor x="129" y="716.7" name="Yerok"/>
  <anchor x="128" y="771.7" name="Diacritic"/>
  <outline>
    <contour>
      <point x="150" y="645" type="curve" smooth="yes"/>
      <point x="171" y="645"/>
      <point x="186" y="648"/>
      <point x="206" y="648" type="curve" smooth="yes"/>
      <point x="220" y="648"/>
      <point x="226" y="641"/>
      <point x="226" y="633" type="curve" smooth="yes"/>
      <point x="226" y="627"/>
      <point x="223" y="620"/>
      <point x="218" y="614" type="curve" smooth="yes"/>
      <point x="208" y="602"/>
      <point x="183" y="579"/>
      <point x="183" y="557" type="curve" smooth="yes"/>
      <point x="183" y="472"/>
      <point x="178" y="372"/>
      <point x="178" y="285" type="curve" smooth="yes"/>
      <point x="178" y="259"/>
      <point x="178" y="259"/>
      <point x="178" y="249" type="curve" smooth="yes"/>
      <point x="179" y="242"/>
      <point x="179" y="231"/>
      <point x="179" y="213" type="curve" smooth="yes"/>
      <point x="179" y="85" type="line" smooth="yes"/>
      <point x="179" y="42"/>
      <point x="180" y="-4"/>
      <point x="180" y="-43" type="curve" smooth="yes"/>
      <point x="180" y="-90"/>
      <point x="186" y="-104"/>
      <point x="208" y="-127" type="curve" smooth="yes"/>
      <point x="212" y="-131"/>
      <point x="214" y="-139"/>
      <point x="214" y="-146" type="curve" smooth="yes"/>
      <point x="214" y="-151"/>
      <point x="213" y="-156"/>
      <point x="209" y="-157" type="curve" smooth="yes"/>
      <point x="202" y="-161"/>
      <point x="196" y="-163"/>
      <point x="190" y="-163" type="curve" smooth="yes"/>
      <point x="183" y="-163"/>
      <point x="176" y="-161"/>
      <point x="164" y="-159" type="curve" smooth="yes"/>
      <point x="144" y="-155"/>
      <point x="108" y="-153"/>
      <point x="77" y="-153" type="curve" smooth="yes"/>
      <point x="68" y="-153"/>
      <point x="60" y="-152"/>
      <point x="52" y="-153" type="curve" smooth="yes"/>
      <point x="46" y="-154"/>
      <point x="41" y="-154"/>
      <point x="37" y="-154" type="curve" smooth="yes"/>
      <point x="28" y="-154"/>
      <point x="21" y="-153"/>
      <point x="18" y="-153" type="curve" smooth="yes"/>
      <point x="11" y="-153"/>
      <point x="6" y="-147"/>
      <point x="6" y="-139" type="curve" smooth="yes"/>
      <point x="6" y="-136"/>
      <point x="7" y="-133"/>
      <point x="9" y="-130" type="curve" smooth="yes"/>
      <point x="20" y="-119"/>
      <point x="32" y="-94"/>
      <point x="35" y="-77" type="curve"/>
      <point x="35" y="13"/>
      <point x="43" y="122"/>
      <point x="43" y="215" type="curve" smooth="yes"/>
      <point x="43" y="239"/>
      <point x="43" y="239"/>
      <point x="43" y="243" type="curve" smooth="yes"/>
      <point x="43" y="315"/>
      <point x="49" y="401"/>
      <point x="51" y="474" type="curve" smooth="yes"/>
      <point x="52" y="505"/>
      <point x="54" y="537"/>
      <point x="54" y="561" type="curve" smooth="yes"/>
      <point x="54" y="581"/>
      <point x="28" y="605"/>
      <point x="19" y="616" type="curve" smooth="yes"/>
      <point x="16" y="620"/>
      <point x="14" y="624"/>
      <point x="14" y="628" type="curve" smooth="yes"/>
      <point x="14" y="639"/>
      <point x="27" y="648"/>
      <point x="40" y="648" type="curve" smooth="yes"/>
      <point x="66" y="648"/>
      <point x="93" y="645"/>
      <point x="119" y="645" type="curve" smooth="yes"/>
      <point x="137" y="645"/>
      <point x="137" y="645"/>
    </contour>
  </outline>
</glyph>
<glyph name="uni0407" format="2">
  <advance width="298"/>
  <unicode hex="0407"/>
  <anchor x="133" y="752.5" name="HalfMark"/>
  <anchor x="132.5" y="892.9" name="Yerok"/>
  <anchor x="133" y="892" name="Diacritic"/>
  <outline>
    <contour>
      <point x="53" y="241" type="curve" smooth="yes"/>
      <point x="53" y="342"/>
      <point x="64" y="458"/>
      <point x="64" y="559" type="curve" smooth="yes"/>
      <point x="64" y="579"/>
      <point x="38" y="603"/>
      <point x="29" y="614" type="curve" smooth="yes"/>
      <point x="26" y="618"/>
      <point x="24" y="622"/>
      <point x="24" y="626" type="curve" smooth="yes"/>
      <point x="24" y="637"/>
      <point x="37" y="646"/>
      <point x="50" y="646" type="curve" smooth="yes"/>
      <point x="76" y="646"/>
      <point x="103" y="643"/>
      <point x="129" y="643" type="curve" smooth="yes"/>
      <point x="147" y="643"/>
      <point x="147" y="643"/>
      <point x="160" y="643" type="curve" smooth="yes"/>
      <point x="181" y="643"/>
      <point x="196" y="646"/>
      <point x="216" y="646" type="curve" smooth="yes"/>
      <point x="230" y="646"/>
      <point x="236" y="639"/>
      <point x="236" y="631" type="curve" smooth="yes"/>
      <point x="236" y="625"/>
      <point x="233" y="618"/>
      <point x="228" y="612" type="curve" smooth="yes"/>
      <point x="218" y="600"/>
      <point x="193" y="577"/>
      <point x="193" y="555" type="curve" smooth="yes"/>
      <point x="193" y="470"/>
      <point x="188" y="370"/>
      <point x="188" y="283" type="curve" smooth="yes"/>
      <point x="188" y="257"/>
      <point x="188" y="257"/>
      <point x="188" y="247" type="curve"/>
      <point x="189" y="240"/>
      <point x="189" y="229"/>
      <point x="189" y="211" type="curve" smooth="yes"/>
      <point x="189" y="83" type="line" smooth="yes"/>
      <point x="189" y="40"/>
      <point x="190" y="-6"/>
      <point x="190" y="-45" type="curve" smooth="yes"/>
      <point x="190" y="-92"/>
      <point x="196" y="-106"/>
      <point x="218" y="-129" type="curve" smooth="yes"/>
      <point x="222" y="-133"/>
      <point x="224" y="-141"/>
      <point x="224" y="-148" type="curve" smooth="yes"/>
      <point x="224" y="-153"/>
      <point x="223" y="-158"/>
      <point x="219" y="-159" type="curve"/>
      <point x="212" y="-163"/>
      <point x="206" y="-165"/>
      <point x="200" y="-165" type="curve" smooth="yes"/>
      <point x="193" y="-165"/>
      <point x="186" y="-163"/>
      <point x="174" y="-161" type="curve" smooth="yes"/>
      <point x="154" y="-157"/>
      <point x="118" y="-155"/>
      <point x="87" y="-155" type="curve" smooth="yes"/>
      <point x="28" y="-155" type="line" smooth="yes"/>
      <point x="21" y="-155"/>
      <point x="16" y="-149"/>
      <point x="16" y="-141" type="curve" smooth="yes"/>
      <point x="16" y="-138"/>
      <point x="17" y="-135"/>
      <point x="19" y="-132" type="curve" smooth="yes"/>
      <point x="30" y="-121"/>
      <point x="42" y="-96"/>
      <point x="45" y="-79" type="curve"/>
      <point x="45" y="11"/>
      <point x="53" y="120"/>
      <point x="53" y="213" type="curve" smooth="yes"/>
      <point x="53" y="237"/>
      <point x="53" y="237"/>
    </contour>
    <contour>
      <point x="208" y="725" type="curve" smooth="yes"/>
      <point x="178" y="725"/>
      <point x="151" y="744"/>
      <point x="151" y="774" type="curve" smooth="yes"/>
      <point x="151" y="803"/>
      <point x="173" y="830"/>
      <point x="202" y="830" type="curve" smooth="yes"/>
      <point x="230" y="830"/>
      <point x="258" y="809"/>
      <point x="258" y="779" type="curve" smooth="yes"/>
      <point x="258" y="762"/>
      <point x="251" y="745"/>
      <point x="240" y="735" type="curve" smooth="yes"/>
      <point x="231" y="728"/>
      <point x="219" y="725"/>
    </contour>
    <contour>
      <point x="63" y="732" type="curve" smooth="yes"/>
      <point x="34" y="732"/>
      <point x="6" y="752"/>
      <point x="6" y="781" type="curve" smooth="yes"/>
      <point x="6" y="809"/>
      <point x="29" y="836"/>
      <point x="57" y="836" type="curve" smooth="yes"/>
      <point x="86" y="836"/>
      <point x="113" y="815"/>
      <point x="113" y="784" type="curve" smooth="yes"/>
      <point x="113" y="755"/>
      <point x="94" y="732"/>
    </contour>
  </outline>
</glyph>
<glyph name="uni0408" format="2">
  <advance width="504"/>
  <unicode hex="0408"/>
  <anchor x="256" y="752.5" name="HalfMark"/>
  <anchor x="389" y="751.7" name="Diacritic"/>
  <anchor x="388.5" y="718.6" name="Yerok"/>
  <outline>
    <contour>
      <point x="37" y="33" type="curve"/>
      <point x="113" y="33"/>
      <point x="151" y="28"/>
      <point x="151" y="4" type="curve" smooth="yes"/>
      <point x="151" y="-6"/>
      <point x="146" y="-10"/>
      <point x="146" y="-20" type="curve" smooth="yes"/>
      <point x="146" y="-33"/>
      <point x="151" y="-48"/>
      <point x="161" y="-66" type="curve" smooth="yes"/>
      <point x="173" y="-89"/>
      <point x="187" y="-102"/>
      <point x="204" y="-105" type="curve" smooth="yes"/>
      <point x="206" y="-105"/>
      <point x="208" y="-106"/>
      <point x="211" y="-106" type="curve" smooth="yes"/>
      <point x="234" y="-106"/>
      <point x="255" y="-80"/>
      <point x="274" y="-28" type="curve"/>
      <point x="292" y="25"/>
      <point x="305" y="95"/>
      <point x="314" y="183" type="curve"/>
      <point x="319" y="430"/>
      <point x="322" y="556"/>
      <point x="322" y="561" type="curve" smooth="yes"/>
      <point x="322" y="570"/>
      <point x="310" y="590"/>
      <point x="287" y="617" type="curve" smooth="yes"/>
      <point x="284" y="620"/>
      <point x="283" y="623"/>
      <point x="283" y="627" type="curve" smooth="yes"/>
      <point x="283" y="636"/>
      <point x="288" y="642"/>
      <point x="298" y="647" type="curve"/>
      <point x="298" y="647"/>
      <point x="328" y="646"/>
      <point x="389" y="645" type="curve" smooth="yes"/>
      <point x="394" y="645"/>
      <point x="423" y="646"/>
      <point x="476" y="648" type="curve"/>
      <point x="478" y="648" type="line" smooth="yes"/>
      <point x="490" y="648"/>
      <point x="496" y="643"/>
      <point x="496" y="634" type="curve" smooth="yes"/>
      <point x="496" y="627"/>
      <point x="493" y="621"/>
      <point x="488" y="614" type="curve"/>
      <point x="476" y="601"/>
      <point x="453" y="579"/>
      <point x="453" y="557" type="curve" smooth="yes"/>
      <point x="449" y="446"/>
      <point x="448" y="355"/>
      <point x="448" y="285" type="curve" smooth="yes"/>
      <point x="448" y="264"/>
      <point x="448" y="246"/>
      <point x="448" y="229" type="curve" smooth="yes"/>
      <point x="448" y="140"/>
      <point x="424" y="49"/>
      <point x="377" y="-43" type="curve"/>
      <point x="327" y="-116"/>
      <point x="273" y="-153"/>
      <point x="214" y="-153" type="curve" smooth="yes"/>
      <point x="161" y="-153"/>
      <point x="124" y="-134"/>
      <point x="90" y="-98" type="curve" smooth="yes"/>
      <point x="69" y="-75"/>
      <point x="56" y="-53"/>
      <point x="50" y="-31" type="curve" smooth="yes"/>
      <point x="49" y="-29"/>
      <point x="43" y="-22"/>
      <point x="32" y="-9" type="curve" smooth="yes"/>
      <point x="26" y="-1"/>
      <point x="22" y="7"/>
      <point x="22" y="15" type="curve" smooth="yes"/>
      <point x="22" y="22"/>
      <point x="26" y="29"/>
    </contour>
  </outline>
</glyph>
<glyph name="uni0409" format="2">
  <advance width="768"/>
  <unicode hex="0409"/>
  <anchor x="318" y="752.5" name="HalfMark"/>
  <anchor x="321" y="767.7" name="Diacritic"/>
  <anchor x="320.5" y="742.6" name="Yerok"/>
  <outline>
    <contour>
      <point x="148" y="-95" type="curve" smooth="yes"/>
      <point x="148" y="-112" type="line" smooth="yes"/>
      <point x="148" y="-122"/>
      <point x="150" y="-131"/>
      <point x="154" y="-140" type="curve" smooth="yes"/>
      <point x="155" y="-142"/>
      <point x="156" y="-145"/>
      <point x="156" y="-147" type="curve" smooth="yes"/>
      <point x="156" y="-162"/>
      <point x="122" y="-160"/>
      <point x="77" y="-161" type="curve"/>
      <point x="17" y="-161" type="line"/>
      <point x="4" y="-156"/>
      <point x="0" y="-148"/>
      <point x="0" y="-134" type="curve" smooth="yes"/>
      <point x="0" y="-117"/>
      <point x="6" y="-97"/>
      <point x="14" y="-79" type="curve" smooth="yes"/>
      <point x="71" y="56"/>
      <point x="111" y="124"/>
      <point x="193" y="259" type="curve" smooth="yes"/>
      <point x="221" y="304"/>
      <point x="243" y="358"/>
      <point x="258" y="420" type="curve" smooth="yes"/>
      <point x="261" y="431"/>
      <point x="262" y="449"/>
      <point x="262" y="469" type="curve" smooth="yes"/>
      <point x="262" y="508"/>
      <point x="258" y="557"/>
      <point x="252" y="588" type="curve" smooth="yes"/>
      <point x="249" y="607"/>
      <point x="238" y="613"/>
      <point x="225" y="623" type="curve" smooth="yes"/>
      <point x="220" y="628"/>
      <point x="217" y="632"/>
      <point x="217" y="637" type="curve" smooth="yes"/>
      <point x="217" y="644"/>
      <point x="221" y="648"/>
      <point x="230" y="649" type="curve" smooth="yes"/>
      <point x="232" y="649"/>
      <point x="235" y="649"/>
      <point x="239" y="649" type="curve" smooth="yes"/>
      <point x="283" y="649"/>
      <point x="356" y="647"/>
      <point x="412" y="645" type="curve" smooth="yes"/>
      <point x="420" y="644"/>
      <point x="424" y="640"/>
      <point x="424" y="633" type="curve" smooth="yes"/>
      <point x="424" y="628"/>
      <point x="422" y="623"/>
      <point x="417" y="618" type="curve" smooth="yes"/>
      <point x="404" y="604"/>
      <point x="398" y="592"/>
      <point x="398" y="581" type="curve" smooth="yes"/>
      <point x="398" y="457"/>
      <point x="412" y="357"/>
      <point x="419" y="289" type="curve"/>
      <point x="425" y="283"/>
      <point x="425" y="283"/>
      <point x="431" y="277" type="curve" smooth="yes"/>
      <point x="438" y="269"/>
      <point x="469" y="249"/>
      <point x="523" y="217" type="curve"/>
      <point x="560" y="198"/>
      <point x="586" y="186"/>
      <point x="601" y="181" type="curve" smooth="yes"/>
      <point x="619" y="175"/>
      <point x="624" y="163"/>
      <point x="629" y="147" type="curve"/>
      <point x="644" y="80"/>
      <point x="662" y="6"/>
      <point x="682" y="-74" type="curve"/>
      <point x="693" y="-100"/>
      <point x="707" y="-117"/>
      <point x="732" y="-130" type="curve" smooth="yes"/>
      <point x="739" y="-134"/>
      <point x="742" y="-139"/>
      <point x="742" y="-145" type="curve" smooth="yes"/>
      <point x="742" y="-154"/>
      <point x="738" y="-158"/>
      <point x="729" y="-157" type="curve" smooth="yes"/>
      <point x="683" y="-154"/>
      <point x="606" y="-153"/>
      <point x="497" y="-153" type="curve"/>
      <point x="473" y="-154"/>
      <point x="380" y="-157"/>
      <point x="339" y="-157" type="curve" smooth="yes"/>
      <point x="333" y="-157"/>
      <point x="328" y="-157"/>
      <point x="325" y="-157" type="curve" smooth="yes"/>
      <point x="306" y="-157"/>
      <point x="303" y="-157"/>
      <point x="301" y="-140" type="curve" smooth="yes"/>
      <point x="300" y="-138"/>
      <point x="302" y="-133"/>
      <point x="306" y="-124" type="curve" smooth="yes"/>
      <point x="310" y="-115"/>
      <point x="312" y="-105"/>
      <point x="313" y="-93" type="curve" smooth="yes"/>
      <point x="314" y="-67"/>
      <point x="315" y="-37"/>
      <point x="315" y="-5" type="curve" smooth="yes"/>
      <point x="315" y="97"/>
      <point x="308" y="216"/>
      <point x="297" y="274" type="curve" smooth="yes"/>
      <point x="296" y="279"/>
      <point x="294" y="281"/>
      <point x="289" y="281" type="curve" smooth="yes"/>
      <point x="283" y="281"/>
      <point x="278" y="277"/>
      <point x="273" y="269" type="curve" smooth="yes"/>
      <point x="250" y="230"/>
      <point x="224" y="169"/>
      <point x="194" y="87" type="curve" smooth="yes"/>
      <point x="163" y="3"/>
      <point x="148" y="-58"/>
    </contour>
    <contour>
      <point x="463" y="-93" type="curve" smooth="yes"/>
      <point x="465" y="-107"/>
      <point x="470" y="-122"/>
      <point x="486" y="-122" type="curve" smooth="yes"/>
      <point x="487" y="-122"/>
      <point x="489" y="-122"/>
      <point x="490" y="-122" type="curve" smooth="yes"/>
      <point x="505" y="-121"/>
      <point x="523" y="-119"/>
      <point x="546" y="-114" type="curve"/>
      <point x="554" y="-110"/>
      <point x="558" y="-102"/>
      <point x="558" y="-91" type="curve" smooth="yes"/>
      <point x="558" y="-36"/>
      <point x="536" y="96"/>
      <point x="520" y="140" type="curve" smooth="yes"/>
      <point x="516" y="152"/>
      <point x="511" y="162"/>
      <point x="506" y="169" type="curve" smooth="yes"/>
      <point x="503" y="172"/>
      <point x="493" y="181"/>
      <point x="476" y="194" type="curve" smooth="yes"/>
      <point x="464" y="204"/>
      <point x="448" y="218"/>
      <point x="437" y="218" type="curve" smooth="yes"/>
      <point x="434" y="218"/>
      <point x="430" y="216"/>
      <point x="428" y="212" type="curve"/>
      <point x="438" y="116"/>
      <point x="450" y="14"/>
    </contour>
  </outline>
</glyph>
<glyph name="uni040A" format="2">
  <advance width="843"/>
  <unicode hex="040A"/>
  <anchor x="315" y="752.5" name="HalfMark"/>
  <anchor x="415.5" y="723" name="Yerok"/>
  <anchor x="315" y="771" name="Diacritic"/>
  <outline>
    <contour>
      <point x="562" y="-154" type="curve" smooth="yes"/>
      <point x="527" y="-154"/>
      <point x="513" y="-154"/>
      <point x="484" y="-154" type="curve" smooth="yes"/>
      <point x="444" y="-154"/>
      <point x="405" y="-154"/>
      <point x="365" y="-154" type="curve" smooth="yes"/>
      <point x="355" y="-154"/>
      <point x="351" y="-138"/>
      <point x="357" y="-130" type="curve" smooth="yes"/>
      <point x="372" y="-113"/>
      <point x="380" y="-96"/>
      <point x="383" y="-78" type="curve"/>
      <point x="382" y="-78"/>
      <point x="376" y="31"/>
      <point x="364" y="248" type="curve"/>
      <point x="364" y="249"/>
      <point x="364" y="251"/>
      <point x="364" y="252" type="curve" smooth="yes"/>
      <point x="364" y="267"/>
      <point x="359" y="276"/>
      <point x="348" y="279" type="curve" smooth="yes"/>
      <point x="335" y="282"/>
      <point x="310" y="291"/>
      <point x="271" y="304" type="curve" smooth="yes"/>
      <point x="253" y="311"/>
      <point x="230" y="323"/>
      <point x="203" y="338" type="curve" smooth="yes"/>
      <point x="198" y="341"/>
      <point x="194" y="343"/>
      <point x="191" y="343" type="curve" smooth="yes"/>
      <point x="182" y="343"/>
      <point x="177" y="335"/>
      <point x="178" y="320" type="curve"/>
      <point x="176" y="288"/>
      <point x="175" y="266"/>
      <point x="175" y="253" type="curve" smooth="yes"/>
      <point x="175" y="250"/>
      <point x="175" y="247"/>
      <point x="175" y="245" type="curve" smooth="yes"/>
      <point x="172" y="152"/>
      <point x="171" y="46"/>
      <point x="171" y="-72" type="curve"/>
      <point x="172" y="-85"/>
      <point x="178" y="-98"/>
      <point x="188" y="-110" type="curve" smooth="yes"/>
      <point x="198" y="-123"/>
      <point x="203" y="-131"/>
      <point x="203" y="-135" type="curve" smooth="yes"/>
      <point x="203" y="-137"/>
      <point x="204" y="-139"/>
      <point x="204" y="-140" type="curve" smooth="yes"/>
      <point x="204" y="-150"/>
      <point x="197" y="-155"/>
      <point x="184" y="-157" type="curve"/>
      <point x="165" y="-157"/>
      <point x="117" y="-151"/>
      <point x="101" y="-150" type="curve" smooth="yes"/>
      <point x="100" y="-150"/>
      <point x="98" y="-150"/>
      <point x="97" y="-150" type="curve" smooth="yes"/>
      <point x="75" y="-150"/>
      <point x="22" y="-153"/>
      <point x="9" y="-154" type="curve" smooth="yes"/>
      <point x="2" y="-154"/>
      <point x="-3" y="-146"/>
      <point x="-3" y="-138" type="curve" smooth="yes"/>
      <point x="-3" y="-135"/>
      <point x="-2" y="-131"/>
      <point x="0" y="-129" type="curve" smooth="yes"/>
      <point x="15" y="-112"/>
      <point x="23" y="-95"/>
      <point x="26" y="-77" type="curve" smooth="yes"/>
      <point x="30" y="-59"/>
      <point x="41" y="208"/>
      <point x="41" y="237" type="curve" smooth="yes"/>
      <point x="41" y="244" type="line"/>
      <point x="41" y="275"/>
      <point x="59" y="517"/>
      <point x="59" y="548" type="curve" smooth="yes"/>
      <point x="59" y="558"/>
      <point x="52" y="569"/>
      <point x="40" y="582" type="curve"/>
      <point x="26" y="595"/>
      <point x="20" y="604"/>
      <point x="20" y="609" type="curve" smooth="yes"/>
      <point x="20" y="618"/>
      <point x="25" y="624"/>
      <point x="35" y="628" type="curve" smooth="yes"/>
      <point x="44" y="632"/>
      <point x="68" y="634"/>
      <point x="109" y="634" type="curve" smooth="yes"/>
      <point x="133" y="634" type="line" smooth="yes"/>
      <point x="160" y="634"/>
      <point x="201" y="641"/>
      <point x="219" y="644" type="curve"/>
      <point x="232" y="645"/>
      <point x="239" y="640"/>
      <point x="239" y="629" type="curve" smooth="yes"/>
      <point x="239" y="622"/>
      <point x="236" y="616"/>
      <point x="231" y="610" type="curve" smooth="yes"/>
      <point x="209" y="588" type="line" smooth="yes"/>
      <point x="200" y="578"/>
      <point x="195" y="568"/>
      <point x="194" y="559" type="curve" smooth="yes"/>
      <point x="193" y="536"/>
      <point x="190" y="493"/>
      <point x="185" y="429" type="curve" smooth="yes"/>
      <point x="185" y="427"/>
      <point x="185" y="425"/>
      <point x="185" y="423" type="curve" smooth="yes"/>
      <point x="185" y="403"/>
      <point x="190" y="388"/>
      <point x="199" y="378" type="curve" smooth="yes"/>
      <point x="206" y="370"/>
      <point x="231" y="358"/>
      <point x="274" y="341" type="curve"/>
      <point x="307" y="326"/>
      <point x="330" y="318"/>
      <point x="343" y="318" type="curve" smooth="yes"/>
      <point x="355" y="318"/>
      <point x="361" y="326"/>
      <point x="361" y="341" type="curve" smooth="yes"/>
      <point x="361" y="346"/>
      <point x="360" y="352"/>
      <point x="359" y="359" type="curve" smooth="yes"/>
      <point x="350" y="558" type="line" smooth="yes"/>
      <point x="350" y="567"/>
      <point x="339" y="585"/>
      <point x="316" y="612" type="curve" smooth="yes"/>
      <point x="313" y="616"/>
      <point x="311" y="620"/>
      <point x="311" y="623" type="curve" smooth="yes"/>
      <point x="311" y="632"/>
      <point x="316" y="638"/>
      <point x="326" y="643" type="curve"/>
      <point x="350" y="644"/>
      <point x="381" y="645"/>
      <point x="420" y="646" type="curve"/>
      <point x="439" y="649"/>
      <point x="466" y="653"/>
      <point x="502" y="657" type="curve"/>
      <point x="515" y="657"/>
      <point x="522" y="652"/>
      <point x="522" y="642" type="curve" smooth="yes"/>
      <point x="522" y="635"/>
      <point x="515" y="624"/>
      <point x="502" y="608" type="curve"/>
      <point x="488" y="594"/>
      <point x="481" y="581"/>
      <point x="480" y="570" type="curve"/>
      <point x="481" y="569"/>
      <point x="487" y="482"/>
      <point x="497" y="308" type="curve"/>
      <point x="507" y="277"/>
      <point x="502" y="282"/>
      <point x="519" y="262" type="curve" smooth="yes"/>
      <point x="526" y="254"/>
      <point x="551" y="240"/>
      <point x="593" y="220" type="curve"/>
      <point x="630" y="201"/>
      <point x="656" y="189"/>
      <point x="671" y="184" type="curve" smooth="yes"/>
      <point x="689" y="178"/>
      <point x="694" y="166"/>
      <point x="699" y="150" type="curve"/>
      <point x="714" y="83"/>
      <point x="732" y="9"/>
      <point x="752" y="-71" type="curve"/>
      <point x="763" y="-97"/>
      <point x="777" y="-114"/>
      <point x="802" y="-127" type="curve" smooth="yes"/>
      <point x="809" y="-131"/>
      <point x="812" y="-136"/>
      <point x="812" y="-142" type="curve" smooth="yes"/>
      <point x="812" y="-151"/>
      <point x="808" y="-155"/>
      <point x="799" y="-154" type="curve" smooth="yes"/>
      <point x="768" y="-152"/>
      <point x="735" y="-151"/>
      <point x="697" y="-151" type="curve" smooth="yes"/>
      <point x="679" y="-151"/>
      <point x="659" y="-154"/>
      <point x="638" y="-154" type="curve" smooth="yes"/>
      <point x="628" y="-154"/>
      <point x="618" y="-154"/>
      <point x="609" y="-154" type="curve" smooth="yes"/>
      <point x="591" y="-154"/>
      <point x="575" y="-154"/>
    </contour>
    <contour>
      <point x="528" y="-64" type="curve" smooth="yes"/>
      <point x="529" y="-84"/>
      <point x="541" y="-110"/>
      <point x="560" y="-119" type="curve" smooth="yes"/>
      <point x="564" y="-120"/>
      <point x="569" y="-120"/>
      <point x="574" y="-120" type="curve" smooth="yes"/>
      <point x="586" y="-120"/>
      <point x="602" y="-118"/>
      <point x="619" y="-114" type="curve"/>
      <point x="625" y="-108"/>
      <point x="628" y="-99"/>
      <point x="628" y="-88" type="curve" smooth="yes"/>
      <point x="628" y="-34"/>
      <point x="606" y="99"/>
      <point x="590" y="143" type="curve" smooth="yes"/>
      <point x="586" y="155"/>
      <point x="581" y="165"/>
      <point x="576" y="172" type="curve"/>
      <point x="570" y="178"/>
      <point x="519" y="220"/>
      <point x="507" y="220" type="curve" smooth="yes"/>
      <point x="505" y="220"/>
      <point x="503" y="219"/>
      <point x="501" y="218" type="curve"/>
      <point x="509" y="133"/>
      <point x="518" y="39"/>
    </contour>
  </outline>
</glyph>
